<?xml version="1.0" encoding="UTF-8"?>
<svg xmlns="http://www.w3.org/2000/svg" version="1.1" width="180" height="180" viewBox="0 0 180 180"><rect x="0" y="0" width="180" height="180" fill="#ffffff"/><g transform="scale(5.455)"><g transform="translate(0,0)"><path fill-rule="evenodd" d="M9 0L9 1L11 1L11 2L9 2L9 3L8 3L8 5L9 5L9 6L8 6L8 7L9 7L9 9L10 9L10 10L9 10L9 11L8 11L8 10L5 10L5 12L3 12L3 11L4 11L4 10L3 10L3 9L2 9L2 8L0 8L0 9L2 9L2 10L3 10L3 11L2 11L2 12L3 12L3 13L1 13L1 11L0 11L0 14L1 14L1 16L0 16L0 20L1 20L1 21L0 21L0 25L3 25L3 24L4 24L4 25L8 25L8 28L9 28L9 29L10 29L10 30L11 30L11 31L10 31L10 33L11 33L11 31L12 31L12 33L13 33L13 32L14 32L14 33L18 33L18 32L14 32L14 31L12 31L12 30L15 30L15 31L16 31L16 30L19 30L19 33L20 33L20 32L21 32L21 31L22 31L22 30L24 30L24 31L25 31L25 32L22 32L22 33L26 33L26 32L27 32L27 31L26 31L26 29L28 29L28 33L29 33L29 32L31 32L31 33L32 33L32 32L31 32L31 31L33 31L33 28L31 28L31 27L32 27L32 26L33 26L33 25L32 25L32 24L31 24L31 23L32 23L32 20L31 20L31 19L30 19L30 20L31 20L31 23L30 23L30 21L29 21L29 20L28 20L28 21L27 21L27 22L24 22L24 21L26 21L26 20L27 20L27 19L28 19L28 17L29 17L29 18L30 18L30 17L29 17L29 15L28 15L28 16L27 16L27 17L26 17L26 15L25 15L25 14L28 14L28 12L29 12L29 11L30 11L30 12L31 12L31 15L30 15L30 16L31 16L31 18L32 18L32 19L33 19L33 17L32 17L32 16L33 16L33 15L32 15L32 14L33 14L33 12L31 12L31 11L32 11L32 9L30 9L30 8L28 8L28 9L27 9L27 12L26 12L26 10L25 10L25 11L24 11L24 13L22 13L22 14L24 14L24 15L25 15L25 16L23 16L23 15L22 15L22 17L19 17L19 16L17 16L17 15L16 15L16 13L15 13L15 12L17 12L17 11L18 11L18 10L20 10L20 11L19 11L19 13L17 13L17 14L20 14L20 16L21 16L21 11L23 11L23 10L24 10L24 9L25 9L25 6L24 6L24 7L23 7L23 5L24 5L24 4L25 4L25 3L24 3L24 2L22 2L22 0L20 0L20 2L21 2L21 3L20 3L20 4L18 4L18 3L19 3L19 2L18 2L18 1L19 1L19 0L18 0L18 1L17 1L17 0L16 0L16 1L17 1L17 2L15 2L15 1L14 1L14 3L13 3L13 4L12 4L12 2L13 2L13 1L12 1L12 0ZM17 2L17 3L18 3L18 2ZM9 3L9 5L10 5L10 3ZM15 3L15 8L14 8L14 4L13 4L13 5L12 5L12 4L11 4L11 7L10 7L10 6L9 6L9 7L10 7L10 8L11 8L11 10L10 10L10 11L9 11L9 12L7 12L7 11L6 11L6 12L5 12L5 14L9 14L9 12L10 12L10 11L11 11L11 10L15 10L15 9L16 9L16 10L17 10L17 8L18 8L18 9L20 9L20 10L23 10L23 9L24 9L24 8L23 8L23 7L22 7L22 6L21 6L21 9L20 9L20 5L19 5L19 7L18 7L18 6L17 6L17 7L16 7L16 3ZM17 4L17 5L18 5L18 4ZM21 4L21 5L23 5L23 4ZM12 6L12 9L14 9L14 8L13 8L13 6ZM5 8L5 9L8 9L8 8ZM22 8L22 9L23 9L23 8ZM29 9L29 10L28 10L28 11L29 11L29 10L30 10L30 11L31 11L31 10L30 10L30 9ZM12 11L12 12L11 12L11 15L9 15L9 16L8 16L8 15L6 15L6 16L7 16L7 17L5 17L5 15L4 15L4 17L3 17L3 16L2 16L2 17L1 17L1 18L3 18L3 19L1 19L1 20L2 20L2 21L1 21L1 24L2 24L2 21L4 21L4 20L5 20L5 18L7 18L7 19L6 19L6 20L7 20L7 21L5 21L5 22L3 22L3 23L5 23L5 24L7 24L7 23L5 23L5 22L8 22L8 24L9 24L9 21L11 21L11 22L10 22L10 23L11 23L11 24L12 24L12 23L13 23L13 22L12 22L12 21L14 21L14 22L15 22L15 20L18 20L18 21L16 21L16 23L17 23L17 25L16 25L16 24L15 24L15 23L14 23L14 25L11 25L11 26L13 26L13 27L12 27L12 29L11 29L11 30L12 30L12 29L15 29L15 25L16 25L16 27L17 27L17 28L19 28L19 29L20 29L20 28L19 28L19 27L20 27L20 26L18 26L18 25L19 25L19 24L21 24L21 26L22 26L22 25L23 25L23 24L25 24L25 23L24 23L24 22L22 22L22 19L20 19L20 20L18 20L18 19L19 19L19 18L16 18L16 19L15 19L15 20L14 20L14 19L12 19L12 18L15 18L15 17L14 17L14 16L13 16L13 17L12 17L12 15L13 15L13 14L12 14L12 13L13 13L13 12L15 12L15 11ZM6 12L6 13L7 13L7 12ZM25 12L25 13L24 13L24 14L25 14L25 13L26 13L26 12ZM3 13L3 14L2 14L2 15L3 15L3 14L4 14L4 13ZM14 13L14 14L15 14L15 13ZM31 15L31 16L32 16L32 15ZM4 17L4 18L5 18L5 17ZM7 17L7 18L8 18L8 19L7 19L7 20L9 20L9 19L10 19L10 20L11 20L11 21L12 21L12 19L10 19L10 17ZM22 17L22 18L23 18L23 17ZM24 17L24 19L23 19L23 21L24 21L24 19L25 19L25 20L26 20L26 19L27 19L27 18L26 18L26 17ZM20 20L20 21L19 21L19 22L20 22L20 23L21 23L21 22L20 22L20 21L21 21L21 20ZM17 22L17 23L18 23L18 24L19 24L19 23L18 23L18 22ZM27 22L27 23L28 23L28 24L29 24L29 22ZM30 24L30 26L32 26L32 25L31 25L31 24ZM9 25L9 27L10 27L10 25ZM25 25L25 28L28 28L28 25ZM26 26L26 27L27 27L27 26ZM21 27L21 30L20 30L20 31L21 31L21 30L22 30L22 28L23 28L23 29L24 29L24 28L23 28L23 27ZM29 28L29 31L30 31L30 30L31 30L31 28ZM8 31L8 33L9 33L9 31ZM0 0L7 0L7 7L0 7ZM1 1L1 6L6 6L6 1ZM5 3.5A1.5 1.5 0 0 1 3.5 5A1.5 1.5 0 0 1 2 3.5A1.5 1.5 0 0 1 3.5 2A1.5 1.5 0 0 1 5 3.5ZM26 0L33 0L33 7L26 7ZM27 1L27 6L32 6L32 1ZM31 3.5A1.5 1.5 0 0 1 29.5 5A1.5 1.5 0 0 1 28 3.5A1.5 1.5 0 0 1 29.5 2A1.5 1.5 0 0 1 31 3.5ZM0 26L7 26L7 33L0 33ZM1 27L1 32L6 32L6 27ZM5 29.5A1.5 1.5 0 0 1 3.5 31A1.5 1.5 0 0 1 2 29.5A1.5 1.5 0 0 1 3.5 28A1.5 1.5 0 0 1 5 29.5Z" fill="#000000"/></g></g></svg>
