<?xml version="1.0" encoding="UTF-8"?>
<svg xmlns="http://www.w3.org/2000/svg" version="1.1" width="180" height="180" viewBox="0 0 180 180"><rect x="0" y="0" width="180" height="180" fill="#ffffff"/><g transform="scale(5.455)"><g transform="translate(0,0)"><path fill-rule="evenodd" d="M11 0L11 1L9 1L9 2L11 2L11 1L14 1L14 0ZM16 0L16 2L15 2L15 3L13 3L13 2L12 2L12 4L14 4L14 5L11 5L11 6L10 6L10 8L9 8L9 9L8 9L8 8L5 8L5 9L7 9L7 10L4 10L4 11L3 11L3 13L4 13L4 14L5 14L5 12L6 12L6 13L7 13L7 14L6 14L6 15L5 15L5 16L6 16L6 17L3 17L3 16L4 16L4 15L3 15L3 14L1 14L1 13L0 13L0 15L1 15L1 16L0 16L0 17L2 17L2 18L1 18L1 19L2 19L2 21L3 21L3 23L4 23L4 24L5 24L5 25L8 25L8 28L10 28L10 29L9 29L9 31L8 31L8 33L12 33L12 32L9 32L9 31L12 31L12 30L10 30L10 29L11 29L11 28L12 28L12 29L13 29L13 30L14 30L14 29L15 29L15 31L14 31L14 32L13 32L13 33L14 33L14 32L15 32L15 33L18 33L18 32L15 32L15 31L16 31L16 30L19 30L19 33L20 33L20 32L21 32L21 31L22 31L22 30L24 30L24 31L25 31L25 32L22 32L22 33L26 33L26 32L27 32L27 31L26 31L26 29L28 29L28 33L29 33L29 32L31 32L31 33L32 33L32 32L31 32L31 30L30 30L30 31L29 31L29 28L31 28L31 29L32 29L32 28L33 28L33 27L32 27L32 26L33 26L33 25L32 25L32 24L31 24L31 23L32 23L32 20L31 20L31 19L30 19L30 20L31 20L31 23L30 23L30 21L29 21L29 20L28 20L28 21L27 21L27 22L24 22L24 21L26 21L26 20L27 20L27 19L28 19L28 17L29 17L29 18L30 18L30 17L29 17L29 15L28 15L28 16L27 16L27 17L26 17L26 15L25 15L25 14L28 14L28 12L29 12L29 11L30 11L30 12L31 12L31 15L30 15L30 16L31 16L31 18L32 18L32 19L33 19L33 17L32 17L32 16L33 16L33 15L32 15L32 14L33 14L33 12L31 12L31 11L32 11L32 9L30 9L30 8L28 8L28 9L27 9L27 12L26 12L26 10L25 10L25 11L24 11L24 13L22 13L22 14L24 14L24 15L25 15L25 16L23 16L23 15L22 15L22 17L19 17L19 16L17 16L17 14L20 14L20 16L21 16L21 11L23 11L23 10L24 10L24 9L25 9L25 6L24 6L24 7L23 7L23 5L24 5L24 4L25 4L25 3L24 3L24 2L22 2L22 0L20 0L20 2L21 2L21 3L20 3L20 4L18 4L18 3L19 3L19 2L18 2L18 1L19 1L19 0L18 0L18 1L17 1L17 0ZM16 2L16 3L15 3L15 7L14 7L14 6L13 6L13 7L12 7L12 6L11 6L11 7L12 7L12 9L11 9L11 8L10 8L10 10L9 10L9 11L10 11L10 13L9 13L9 12L8 12L8 10L7 10L7 11L6 11L6 12L7 12L7 13L8 13L8 14L7 14L7 15L6 15L6 16L8 16L8 15L9 15L9 16L10 16L10 18L9 18L9 17L8 17L8 18L9 18L9 19L8 19L8 21L5 21L5 20L7 20L7 19L4 19L4 18L2 18L2 19L3 19L3 20L4 20L4 22L8 22L8 23L6 23L6 24L8 24L8 25L9 25L9 27L10 27L10 28L11 28L11 27L12 27L12 24L13 24L13 28L14 28L14 27L15 27L15 26L14 26L14 25L16 25L16 27L17 27L17 28L19 28L19 29L20 29L20 28L19 28L19 27L20 27L20 26L18 26L18 25L19 25L19 24L21 24L21 26L22 26L22 25L23 25L23 24L25 24L25 23L24 23L24 22L22 22L22 19L20 19L20 20L18 20L18 19L19 19L19 18L16 18L16 19L17 19L17 20L18 20L18 21L17 21L17 22L18 22L18 23L17 23L17 25L16 25L16 24L14 24L14 22L15 22L15 21L16 21L16 20L15 20L15 19L14 19L14 17L13 17L13 16L15 16L15 17L17 17L17 16L16 16L16 15L12 15L12 17L11 17L11 15L9 15L9 14L15 14L15 12L16 12L16 11L17 11L17 13L19 13L19 11L20 11L20 10L23 10L23 9L24 9L24 8L23 8L23 7L22 7L22 6L21 6L21 9L20 9L20 5L19 5L19 7L18 7L18 6L17 6L17 8L18 8L18 9L20 9L20 10L18 10L18 11L17 11L17 10L16 10L16 11L15 11L15 12L14 12L14 11L13 11L13 10L12 10L12 9L13 9L13 8L14 8L14 10L15 10L15 9L16 9L16 5L18 5L18 4L17 4L17 3L18 3L18 2ZM8 3L8 5L10 5L10 4L9 4L9 3ZM21 4L21 5L23 5L23 4ZM8 6L8 7L9 7L9 6ZM0 8L0 9L2 9L2 10L3 10L3 9L2 9L2 8ZM22 8L22 9L23 9L23 8ZM29 9L29 10L28 10L28 11L29 11L29 10L30 10L30 11L31 11L31 10L30 10L30 9ZM0 10L0 11L1 11L1 10ZM10 10L10 11L11 11L11 10ZM4 11L4 12L5 12L5 11ZM12 11L12 12L11 12L11 13L13 13L13 11ZM25 12L25 13L24 13L24 14L25 14L25 13L26 13L26 12ZM2 15L2 16L3 16L3 15ZM31 15L31 16L32 16L32 15ZM6 17L6 18L7 18L7 17ZM12 17L12 18L11 18L11 19L12 19L12 21L15 21L15 20L13 20L13 19L12 19L12 18L13 18L13 17ZM22 17L22 18L23 18L23 17ZM24 17L24 19L23 19L23 21L24 21L24 19L25 19L25 20L26 20L26 19L27 19L27 18L26 18L26 17ZM9 19L9 21L10 21L10 23L9 23L9 24L10 24L10 26L11 26L11 24L12 24L12 23L13 23L13 22L11 22L11 20L10 20L10 19ZM20 20L20 21L19 21L19 22L20 22L20 23L21 23L21 22L20 22L20 21L21 21L21 20ZM0 21L0 25L3 25L3 24L1 24L1 21ZM27 22L27 23L28 23L28 24L29 24L29 22ZM18 23L18 24L19 24L19 23ZM30 24L30 26L32 26L32 25L31 25L31 24ZM25 25L25 28L28 28L28 25ZM26 26L26 27L27 27L27 26ZM21 27L21 30L20 30L20 31L21 31L21 30L22 30L22 28L23 28L23 29L24 29L24 28L23 28L23 27ZM32 30L32 31L33 31L33 30ZM0 0L7 0L7 7L0 7ZM1 1L1 6L6 6L6 1ZM5 3.5A1.5 1.5 0 0 1 3.5 5A1.5 1.5 0 0 1 2 3.5A1.5 1.5 0 0 1 3.5 2A1.5 1.5 0 0 1 5 3.5ZM26 0L33 0L33 7L26 7ZM27 1L27 6L32 6L32 1ZM31 3.5A1.5 1.5 0 0 1 29.5 5A1.5 1.5 0 0 1 28 3.5A1.5 1.5 0 0 1 29.5 2A1.5 1.5 0 0 1 31 3.5ZM0 26L7 26L7 33L0 33ZM1 27L1 32L6 32L6 27ZM5 29.5A1.5 1.5 0 0 1 3.5 31A1.5 1.5 0 0 1 2 29.5A1.5 1.5 0 0 1 3.5 28A1.5 1.5 0 0 1 5 29.5Z" fill="#000000"/></g></g></svg>
