<?xml version="1.0" encoding="UTF-8"?>
<svg xmlns="http://www.w3.org/2000/svg" version="1.1" width="180" height="180" viewBox="0 0 180 180"><rect x="0" y="0" width="180" height="180" fill="#ffffff"/><g transform="scale(6.207)"><g transform="translate(0,0)"><path fill-rule="evenodd" d="M8 0L8 1L9 1L9 2L8 2L8 5L9 5L9 4L11 4L11 5L10 5L10 10L9 10L9 12L8 12L8 9L9 9L9 8L8 8L8 9L7 9L7 8L6 8L6 9L7 9L7 10L6 10L6 11L5 11L5 10L4 10L4 8L0 8L0 13L1 13L1 14L0 14L0 17L1 17L1 16L2 16L2 15L3 15L3 18L2 18L2 20L1 20L1 21L3 21L3 20L4 20L4 21L8 21L8 22L10 22L10 23L11 23L11 26L12 26L12 28L11 28L11 29L12 29L12 28L14 28L14 27L15 27L15 28L17 28L17 26L16 26L16 25L18 25L18 24L20 24L20 25L24 25L24 26L25 26L25 25L26 25L26 26L27 26L27 25L28 25L28 27L27 27L27 29L28 29L28 27L29 27L29 23L28 23L28 22L29 22L29 21L27 21L27 18L28 18L28 15L29 15L29 13L27 13L27 12L26 12L26 11L28 11L28 12L29 12L29 11L28 11L28 10L29 10L29 8L28 8L28 10L26 10L26 11L25 11L25 13L27 13L27 14L24 14L24 12L23 12L23 13L22 13L22 12L20 12L20 11L24 11L24 10L25 10L25 9L27 9L27 8L24 8L24 10L23 10L23 9L22 9L22 8L21 8L21 6L20 6L20 5L21 5L21 4L20 4L20 3L21 3L21 2L20 2L20 3L19 3L19 2L18 2L18 1L17 1L17 0L16 0L16 2L18 2L18 3L14 3L14 2L15 2L15 0L14 0L14 2L13 2L13 0L12 0L12 1L11 1L11 0L10 0L10 1L9 1L9 0ZM19 0L19 1L21 1L21 0ZM11 2L11 4L12 4L12 3L13 3L13 2ZM18 3L18 4L19 4L19 3ZM12 5L12 6L11 6L11 8L12 8L12 6L13 6L13 9L15 9L15 10L13 10L13 11L11 11L11 13L10 13L10 14L11 14L11 13L12 13L12 12L13 12L13 14L12 14L12 16L11 16L11 15L9 15L9 14L8 14L8 13L6 13L6 12L7 12L7 11L6 11L6 12L5 12L5 13L6 13L6 14L4 14L4 10L3 10L3 9L2 9L2 10L1 10L1 12L2 12L2 11L3 11L3 13L2 13L2 14L1 14L1 15L2 15L2 14L3 14L3 15L4 15L4 17L5 17L5 18L4 18L4 20L8 20L8 21L9 21L9 20L8 20L8 19L9 19L9 18L10 18L10 20L11 20L11 23L14 23L14 22L15 22L15 24L12 24L12 26L13 26L13 27L14 27L14 26L15 26L15 27L16 27L16 26L15 26L15 25L16 25L16 24L18 24L18 22L19 22L19 21L20 21L20 19L21 19L21 20L22 20L22 18L24 18L24 19L23 19L23 20L26 20L26 19L25 19L25 18L26 18L26 17L27 17L27 15L24 15L24 14L23 14L23 15L22 15L22 14L20 14L20 15L19 15L19 14L17 14L17 16L16 16L16 14L14 14L14 12L13 12L13 11L16 11L16 13L17 13L17 12L18 12L18 13L20 13L20 12L18 12L18 10L17 10L17 11L16 11L16 9L17 9L17 7L18 7L18 9L19 9L19 8L20 8L20 6L19 6L19 5L18 5L18 6L17 6L17 7L16 7L16 5L15 5L15 7L14 7L14 5ZM8 6L8 7L9 7L9 6ZM18 6L18 7L19 7L19 6ZM15 7L15 8L16 8L16 7ZM11 9L11 10L12 10L12 9ZM20 9L20 10L19 10L19 11L20 11L20 10L21 10L21 9ZM6 14L6 15L7 15L7 14ZM8 15L8 17L11 17L11 16L9 16L9 15ZM21 15L21 16L22 16L22 15ZM23 15L23 17L25 17L25 16L24 16L24 15ZM6 16L6 17L7 17L7 16ZM12 16L12 17L13 17L13 16ZM14 16L14 17L15 17L15 18L13 18L13 21L16 21L16 20L15 20L15 19L16 19L16 18L17 18L17 22L16 22L16 23L17 23L17 22L18 22L18 19L19 19L19 16L18 16L18 18L17 18L17 17L15 17L15 16ZM0 18L0 19L1 19L1 18ZM6 18L6 19L7 19L7 18ZM11 19L11 20L12 20L12 19ZM21 21L21 24L24 24L24 21ZM22 22L22 23L23 23L23 22ZM26 22L26 24L28 24L28 23L27 23L27 22ZM9 24L9 25L8 25L8 29L10 29L10 28L9 28L9 26L10 26L10 24ZM13 25L13 26L14 26L14 25ZM19 26L19 28L18 28L18 29L19 29L19 28L20 28L20 29L22 29L22 26ZM23 28L23 29L24 29L24 28ZM25 28L25 29L26 29L26 28ZM0 0L7 0L7 7L0 7ZM1 1L1 6L6 6L6 1ZM5 3.5A1.5 1.5 0 0 1 3.5 5A1.5 1.5 0 0 1 2 3.5A1.5 1.5 0 0 1 3.5 2A1.5 1.5 0 0 1 5 3.5ZM22 0L29 0L29 7L22 7ZM23 1L23 6L28 6L28 1ZM27 3.5A1.5 1.5 0 0 1 25.5 5A1.5 1.5 0 0 1 24 3.5A1.5 1.5 0 0 1 25.5 2A1.5 1.5 0 0 1 27 3.5ZM0 22L7 22L7 29L0 29ZM1 23L1 28L6 28L6 23ZM5 25.5A1.5 1.5 0 0 1 3.5 27A1.5 1.5 0 0 1 2 25.5A1.5 1.5 0 0 1 3.5 24A1.5 1.5 0 0 1 5 25.5Z" fill="#000000"/></g></g></svg>
