<?xml version="1.0" encoding="UTF-8"?>
<svg xmlns="http://www.w3.org/2000/svg" version="1.1" width="180" height="180" viewBox="0 0 180 180"><rect x="0" y="0" width="180" height="180" fill="#ffffff"/><g transform="scale(5.455)"><g transform="translate(0,0)"><path fill-rule="evenodd" d="M8 0L8 1L10 1L10 0ZM13 0L13 1L15 1L15 0ZM17 0L17 1L18 1L18 2L19 2L19 3L20 3L20 2L19 2L19 1L20 1L20 0ZM21 0L21 2L22 2L22 1L23 1L23 4L24 4L24 7L25 7L25 1L24 1L24 0ZM8 2L8 5L9 5L9 6L8 6L8 7L9 7L9 8L8 8L8 9L7 9L7 8L6 8L6 9L7 9L7 10L6 10L6 11L7 11L7 10L10 10L10 9L9 9L9 8L10 8L10 7L11 7L11 8L12 8L12 7L13 7L13 5L12 5L12 3L13 3L13 4L14 4L14 3L15 3L15 5L14 5L14 8L15 8L15 9L14 9L14 10L13 10L13 11L11 11L11 13L10 13L10 12L9 12L9 11L8 11L8 13L7 13L7 12L6 12L6 13L5 13L5 9L4 9L4 8L0 8L0 17L1 17L1 18L0 18L0 20L1 20L1 21L0 21L0 22L1 22L1 21L2 21L2 23L1 23L1 24L0 24L0 25L1 25L1 24L5 24L5 25L7 25L7 24L5 24L5 23L3 23L3 21L4 21L4 22L6 22L6 23L7 23L7 22L6 22L6 21L7 21L7 20L5 20L5 21L4 21L4 19L5 19L5 16L6 16L6 17L7 17L7 18L6 18L6 19L8 19L8 21L9 21L9 23L8 23L8 26L9 26L9 24L10 24L10 22L11 22L11 23L14 23L14 22L15 22L15 21L14 21L14 20L13 20L13 18L14 18L14 17L12 17L12 16L14 16L14 15L15 15L15 14L16 14L16 15L17 15L17 14L16 14L16 13L18 13L18 12L19 12L19 10L22 10L22 14L20 14L20 13L19 13L19 14L18 14L18 15L21 15L21 16L20 16L20 18L21 18L21 19L19 19L19 20L18 20L18 17L17 17L17 16L16 16L16 17L15 17L15 19L17 19L17 21L16 21L16 23L15 23L15 24L14 24L14 26L13 26L13 24L12 24L12 25L11 25L11 28L9 28L9 29L8 29L8 33L9 33L9 32L10 32L10 33L11 33L11 32L12 32L12 31L11 31L11 32L10 32L10 30L11 30L11 28L12 28L12 29L13 29L13 28L12 28L12 26L13 26L13 27L14 27L14 30L13 30L13 33L15 33L15 31L17 31L17 33L19 33L19 32L20 32L20 31L23 31L23 33L24 33L24 32L26 32L26 31L27 31L27 30L26 30L26 31L25 31L25 30L24 30L24 29L30 29L30 30L29 30L29 31L28 31L28 32L27 32L27 33L28 33L28 32L29 32L29 31L31 31L31 29L32 29L32 30L33 30L33 29L32 29L32 28L33 28L33 27L32 27L32 28L31 28L31 27L30 27L30 26L31 26L31 25L30 25L30 26L29 26L29 24L30 24L30 23L31 23L31 24L32 24L32 25L33 25L33 24L32 24L32 23L33 23L33 21L31 21L31 20L30 20L30 18L31 18L31 19L32 19L32 20L33 20L33 19L32 19L32 18L33 18L33 16L31 16L31 14L32 14L32 13L30 13L30 12L28 12L28 11L27 11L27 9L26 9L26 8L25 8L25 9L26 9L26 10L24 10L24 9L22 9L22 8L19 8L19 6L20 6L20 7L21 7L21 6L22 6L22 7L23 7L23 6L22 6L22 4L21 4L21 5L20 5L20 4L19 4L19 6L18 6L18 3L17 3L17 4L16 4L16 3L15 3L15 2L11 2L11 4L10 4L10 3L9 3L9 2ZM10 5L10 6L9 6L9 7L10 7L10 6L11 6L11 7L12 7L12 5ZM15 5L15 8L17 8L17 7L18 7L18 6L17 6L17 5ZM16 6L16 7L17 7L17 6ZM28 8L28 9L30 9L30 11L31 11L31 12L32 12L32 11L33 11L33 8L32 8L32 9L31 9L31 8ZM1 9L1 10L2 10L2 9ZM15 9L15 11L16 11L16 12L12 12L12 14L11 14L11 15L8 15L8 14L10 14L10 13L8 13L8 14L7 14L7 13L6 13L6 14L7 14L7 15L6 15L6 16L7 16L7 15L8 15L8 19L11 19L11 20L12 20L12 19L11 19L11 18L12 18L12 17L11 17L11 18L10 18L10 16L12 16L12 14L13 14L13 15L14 15L14 14L13 14L13 13L16 13L16 12L18 12L18 10L17 10L17 11L16 11L16 9ZM3 10L3 11L4 11L4 10ZM1 11L1 14L3 14L3 15L4 15L4 14L5 14L5 13L4 13L4 14L3 14L3 12L2 12L2 11ZM20 11L20 12L21 12L21 11ZM23 11L23 12L26 12L26 15L27 15L27 11ZM23 13L23 15L22 15L22 16L23 16L23 17L25 17L25 14L24 14L24 13ZM28 13L28 14L29 14L29 15L28 15L28 16L27 16L27 17L28 17L28 16L30 16L30 14L29 14L29 13ZM2 16L2 17L3 17L3 19L1 19L1 20L2 20L2 21L3 21L3 19L4 19L4 16ZM16 17L16 18L17 18L17 17ZM31 17L31 18L32 18L32 17ZM22 18L22 19L21 19L21 20L22 20L22 23L21 23L21 22L19 22L19 21L17 21L17 23L16 23L16 24L15 24L15 25L16 25L16 26L14 26L14 27L15 27L15 29L16 29L16 30L17 30L17 29L18 29L18 31L20 31L20 29L21 29L21 30L23 30L23 29L21 29L21 27L23 27L23 26L24 26L24 23L25 23L25 24L26 24L26 23L27 23L27 22L28 22L28 23L30 23L30 22L31 22L31 21L30 21L30 20L29 20L29 19L25 19L25 18ZM22 19L22 20L24 20L24 19ZM27 20L27 21L26 21L26 22L25 22L25 23L26 23L26 22L27 22L27 21L28 21L28 20ZM11 21L11 22L12 22L12 21ZM23 21L23 23L22 23L22 26L23 26L23 23L24 23L24 21ZM29 21L29 22L30 22L30 21ZM18 22L18 23L19 23L19 24L20 24L20 23L19 23L19 22ZM17 24L17 26L16 26L16 27L17 27L17 26L18 26L18 27L19 27L19 28L20 28L20 27L21 27L21 26L20 26L20 25L19 25L19 26L18 26L18 24ZM25 25L25 28L28 28L28 25ZM26 26L26 27L27 27L27 26ZM16 28L16 29L17 29L17 28ZM32 31L32 32L33 32L33 31ZM21 32L21 33L22 33L22 32ZM30 32L30 33L31 33L31 32ZM0 0L7 0L7 7L0 7ZM1 1L1 6L6 6L6 1ZM5 3.5A1.5 1.5 0 0 1 3.5 5A1.5 1.5 0 0 1 2 3.5A1.5 1.5 0 0 1 3.5 2A1.5 1.5 0 0 1 5 3.5ZM26 0L33 0L33 7L26 7ZM27 1L27 6L32 6L32 1ZM31 3.5A1.5 1.5 0 0 1 29.5 5A1.5 1.5 0 0 1 28 3.5A1.5 1.5 0 0 1 29.5 2A1.5 1.5 0 0 1 31 3.5ZM0 26L7 26L7 33L0 33ZM1 27L1 32L6 32L6 27ZM5 29.5A1.5 1.5 0 0 1 3.5 31A1.5 1.5 0 0 1 2 29.5A1.5 1.5 0 0 1 3.5 28A1.5 1.5 0 0 1 5 29.5Z" fill="#000000"/></g></g></svg>
