<?xml version="1.0" encoding="UTF-8"?>
<svg xmlns="http://www.w3.org/2000/svg" version="1.1" width="180" height="180" viewBox="0 0 180 180"><rect x="0" y="0" width="180" height="180" fill="#ffffff"/><g transform="scale(5.455)"><g transform="translate(0,0)"><path fill-rule="evenodd" d="M10 0L10 1L8 1L8 3L9 3L9 4L8 4L8 8L6 8L6 9L8 9L8 10L4 10L4 11L3 11L3 10L2 10L2 8L0 8L0 9L1 9L1 10L0 10L0 12L1 12L1 13L0 13L0 15L1 15L1 14L2 14L2 16L0 16L0 20L1 20L1 22L0 22L0 23L1 23L1 24L0 24L0 25L1 25L1 24L3 24L3 25L7 25L7 24L8 24L8 27L11 27L11 30L9 30L9 29L10 29L10 28L9 28L9 29L8 29L8 30L9 30L9 31L8 31L8 33L15 33L15 32L16 32L16 33L17 33L17 32L19 32L19 33L20 33L20 32L19 32L19 30L18 30L18 27L17 27L17 28L16 28L16 29L14 29L14 32L11 32L11 30L13 30L13 28L14 28L14 27L15 27L15 26L14 26L14 23L13 23L13 21L16 21L16 23L15 23L15 24L17 24L17 26L18 26L18 25L19 25L19 24L20 24L20 23L21 23L21 25L20 25L20 26L22 26L22 27L19 27L19 29L22 29L22 30L21 30L21 33L22 33L22 30L23 30L23 29L22 29L22 28L24 28L24 29L25 29L25 30L24 30L24 32L23 32L23 33L25 33L25 31L26 31L26 30L27 30L27 29L28 29L28 31L27 31L27 33L28 33L28 31L29 31L29 33L30 33L30 24L28 24L28 23L27 23L27 22L28 22L28 21L26 21L26 22L25 22L25 21L24 21L24 19L23 19L23 18L25 18L25 17L27 17L27 18L28 18L28 17L29 17L29 20L30 20L30 18L31 18L31 19L33 19L33 18L31 18L31 17L29 17L29 16L30 16L30 15L29 15L29 13L27 13L27 10L28 10L28 12L29 12L29 10L31 10L31 12L32 12L32 13L30 13L30 14L31 14L31 16L32 16L32 17L33 17L33 16L32 16L32 14L33 14L33 9L32 9L32 8L30 8L30 9L29 9L29 8L26 8L26 10L25 10L25 9L24 9L24 7L25 7L25 5L24 5L24 4L25 4L25 2L24 2L24 1L22 1L22 4L23 4L23 5L19 5L19 4L20 4L20 3L19 3L19 2L17 2L17 3L16 3L16 4L12 4L12 7L11 7L11 4L10 4L10 3L9 3L9 2L11 2L11 0ZM15 0L15 2L14 2L14 3L15 3L15 2L16 2L16 1L17 1L17 0ZM19 0L19 1L20 1L20 2L21 2L21 1L20 1L20 0ZM23 2L23 3L24 3L24 2ZM17 3L17 4L16 4L16 5L17 5L17 7L16 7L16 6L15 6L15 5L13 5L13 8L12 8L12 9L11 9L11 8L10 8L10 5L9 5L9 8L8 8L8 9L10 9L10 10L9 10L9 11L5 11L5 12L4 12L4 15L3 15L3 16L2 16L2 17L1 17L1 19L2 19L2 20L3 20L3 21L4 21L4 19L3 19L3 17L5 17L5 18L7 18L7 17L6 17L6 16L8 16L8 17L9 17L9 18L8 18L8 19L6 19L6 20L7 20L7 21L5 21L5 22L4 22L4 24L7 24L7 23L5 23L5 22L7 22L7 21L8 21L8 23L10 23L10 22L11 22L11 24L10 24L10 25L9 25L9 26L10 26L10 25L11 25L11 26L12 26L12 28L13 28L13 27L14 27L14 26L12 26L12 25L13 25L13 24L12 24L12 21L13 21L13 20L14 20L14 19L13 19L13 18L10 18L10 16L8 16L8 15L6 15L6 14L7 14L7 13L8 13L8 14L9 14L9 15L10 15L10 14L13 14L13 15L14 15L14 18L15 18L15 20L16 20L16 17L17 17L17 19L18 19L18 17L17 17L17 16L15 16L15 15L17 15L17 14L18 14L18 15L23 15L23 17L25 17L25 15L26 15L26 14L25 14L25 13L26 13L26 11L25 11L25 10L24 10L24 9L23 9L23 7L24 7L24 5L23 5L23 7L22 7L22 6L21 6L21 7L22 7L22 9L23 9L23 10L22 10L22 11L25 11L25 13L23 13L23 12L22 12L22 13L23 13L23 14L18 14L18 13L17 13L17 12L18 12L18 11L19 11L19 12L21 12L21 10L20 10L20 9L21 9L21 8L20 8L20 9L19 9L19 8L17 8L17 7L18 7L18 6L19 6L19 7L20 7L20 6L19 6L19 5L17 5L17 4L18 4L18 3ZM14 6L14 7L15 7L15 6ZM3 8L3 9L4 9L4 8ZM13 8L13 9L16 9L16 10L17 10L17 11L15 11L15 10L13 10L13 11L12 11L12 12L11 12L11 11L9 11L9 12L8 12L8 13L9 13L9 12L10 12L10 13L12 13L12 12L13 12L13 13L14 13L14 11L15 11L15 12L17 12L17 11L18 11L18 10L17 10L17 8ZM28 9L28 10L29 10L29 9ZM31 9L31 10L32 10L32 9ZM19 10L19 11L20 11L20 10ZM5 12L5 13L7 13L7 12ZM14 14L14 15L15 15L15 14ZM23 14L23 15L25 15L25 14ZM27 14L27 15L28 15L28 16L29 16L29 15L28 15L28 14ZM11 16L11 17L12 17L12 16ZM19 16L19 22L17 22L17 24L18 24L18 23L19 23L19 22L20 22L20 21L21 21L21 17L20 17L20 16ZM8 19L8 20L9 20L9 22L10 22L10 21L12 21L12 20L13 20L13 19L10 19L10 20L9 20L9 19ZM17 20L17 21L18 21L18 20ZM22 20L22 21L23 21L23 23L22 23L22 25L23 25L23 23L25 23L25 22L24 22L24 21L23 21L23 20ZM31 20L31 21L32 21L32 23L31 23L31 22L30 22L30 21L29 21L29 23L31 23L31 24L33 24L33 21L32 21L32 20ZM2 22L2 23L3 23L3 22ZM25 25L25 28L28 28L28 25ZM32 25L32 26L31 26L31 31L33 31L33 29L32 29L32 28L33 28L33 27L32 27L32 26L33 26L33 25ZM23 26L23 27L24 27L24 26ZM26 26L26 27L27 27L27 26ZM15 30L15 31L16 31L16 32L17 32L17 31L18 31L18 30L17 30L17 31L16 31L16 30ZM31 32L31 33L32 33L32 32ZM0 0L7 0L7 7L0 7ZM1 1L1 6L6 6L6 1ZM5 3.5A1.5 1.5 0 0 1 3.5 5A1.5 1.5 0 0 1 2 3.5A1.5 1.5 0 0 1 3.5 2A1.5 1.5 0 0 1 5 3.5ZM26 0L33 0L33 7L26 7ZM27 1L27 6L32 6L32 1ZM31 3.5A1.5 1.5 0 0 1 29.5 5A1.5 1.5 0 0 1 28 3.5A1.5 1.5 0 0 1 29.5 2A1.5 1.5 0 0 1 31 3.5ZM0 26L7 26L7 33L0 33ZM1 27L1 32L6 32L6 27ZM5 29.5A1.5 1.5 0 0 1 3.5 31A1.5 1.5 0 0 1 2 29.5A1.5 1.5 0 0 1 3.5 28A1.5 1.5 0 0 1 5 29.5Z" fill="#000000"/></g></g></svg>
