<?xml version="1.0" encoding="UTF-8"?>
<svg xmlns="http://www.w3.org/2000/svg" version="1.1" width="180" height="180" viewBox="0 0 180 180"><rect x="0" y="0" width="180" height="180" fill="#ffffff"/><g transform="scale(5.455)"><g transform="translate(0,0)"><path fill-rule="evenodd" d="M8 0L8 4L9 4L9 5L8 5L8 7L9 7L9 6L10 6L10 9L11 9L11 8L12 8L12 9L13 9L13 11L12 11L12 12L11 12L11 13L9 13L9 14L5 14L5 15L4 15L4 16L2 16L2 12L3 12L3 14L4 14L4 13L5 13L5 12L6 12L6 13L8 13L8 12L6 12L6 11L7 11L7 10L9 10L9 12L10 12L10 11L11 11L11 10L9 10L9 9L7 9L7 8L4 8L4 9L2 9L2 8L0 8L0 9L1 9L1 10L0 10L0 11L1 11L1 10L2 10L2 12L0 12L0 13L1 13L1 14L0 14L0 15L1 15L1 16L2 16L2 18L4 18L4 17L5 17L5 18L6 18L6 19L4 19L4 20L6 20L6 21L8 21L8 22L6 22L6 23L7 23L7 24L6 24L6 25L8 25L8 26L10 26L10 27L11 27L11 25L9 25L9 24L8 24L8 23L10 23L10 24L12 24L12 25L13 25L13 24L12 24L12 23L13 23L13 22L14 22L14 21L12 21L12 20L13 20L13 19L12 19L12 20L11 20L11 16L12 16L12 17L13 17L13 18L14 18L14 20L15 20L15 23L16 23L16 21L18 21L18 19L19 19L19 21L20 21L20 19L19 19L19 17L21 17L21 21L23 21L23 22L22 22L22 23L21 23L21 22L20 22L20 23L21 23L21 24L19 24L19 25L18 25L18 23L19 23L19 22L18 22L18 23L17 23L17 25L18 25L18 26L16 26L16 24L15 24L15 25L14 25L14 26L13 26L13 27L12 27L12 28L11 28L11 29L12 29L12 30L11 30L11 31L12 31L12 30L13 30L13 27L14 27L14 29L15 29L15 30L14 30L14 32L12 32L12 33L14 33L14 32L16 32L16 33L18 33L18 32L20 32L20 33L25 33L25 32L26 32L26 33L29 33L29 32L28 32L28 31L29 31L29 26L30 26L30 25L29 25L29 22L30 22L30 23L32 23L32 22L30 22L30 21L29 21L29 20L30 20L30 19L32 19L32 18L30 18L30 17L29 17L29 16L30 16L30 15L32 15L32 14L28 14L28 13L30 13L30 11L32 11L32 10L31 10L31 9L33 9L33 8L29 8L29 9L30 9L30 11L29 11L29 10L28 10L28 8L27 8L27 11L29 11L29 12L28 12L28 13L27 13L27 12L26 12L26 9L25 9L25 8L24 8L24 9L23 9L23 5L24 5L24 4L23 4L23 3L22 3L22 1L24 1L24 0L22 0L22 1L21 1L21 0L20 0L20 1L19 1L19 0L17 0L17 1L16 1L16 0L15 0L15 1L16 1L16 3L15 3L15 5L16 5L16 7L15 7L15 6L14 6L14 8L15 8L15 9L13 9L13 8L12 8L12 7L13 7L13 6L12 6L12 7L11 7L11 3L10 3L10 2L9 2L9 0ZM13 0L13 1L11 1L11 2L12 2L12 5L13 5L13 4L14 4L14 3L13 3L13 2L14 2L14 0ZM18 1L18 3L16 3L16 5L18 5L18 3L19 3L19 5L20 5L20 6L19 6L19 8L18 8L18 9L19 9L19 11L20 11L20 10L22 10L22 11L23 11L23 10L22 10L22 9L21 9L21 8L20 8L20 6L21 6L21 7L22 7L22 6L21 6L21 4L22 4L22 5L23 5L23 4L22 4L22 3L21 3L21 1L20 1L20 2L19 2L19 1ZM24 2L24 3L25 3L25 2ZM17 6L17 7L16 7L16 8L17 8L17 7L18 7L18 6ZM24 6L24 7L25 7L25 6ZM19 8L19 9L20 9L20 8ZM6 9L6 10L3 10L3 11L6 11L6 10L7 10L7 9ZM16 9L16 10L17 10L17 11L16 11L16 12L14 12L14 11L13 11L13 12L12 12L12 13L11 13L11 14L12 14L12 13L14 13L14 15L12 15L12 16L13 16L13 17L14 17L14 18L15 18L15 13L17 13L17 11L18 11L18 10L17 10L17 9ZM24 9L24 10L25 10L25 9ZM24 11L24 12L25 12L25 13L24 13L24 15L28 15L28 14L27 14L27 13L26 13L26 12L25 12L25 11ZM18 12L18 13L19 13L19 16L21 16L21 15L22 15L22 13L19 13L19 12ZM31 12L31 13L33 13L33 12ZM9 14L9 15L8 15L8 16L9 16L9 17L8 17L8 19L6 19L6 20L8 20L8 21L10 21L10 23L11 23L11 22L12 22L12 21L11 21L11 20L8 20L8 19L10 19L10 18L9 18L9 17L10 17L10 16L11 16L11 15L10 15L10 14ZM16 14L16 15L17 15L17 14ZM20 14L20 15L21 15L21 14ZM6 15L6 16L5 16L5 17L6 17L6 18L7 18L7 17L6 17L6 16L7 16L7 15ZM16 16L16 17L17 17L17 16ZM25 16L25 17L24 17L24 18L25 18L25 17L26 17L26 18L27 18L27 17L28 17L28 19L30 19L30 18L29 18L29 17L28 17L28 16L27 16L27 17L26 17L26 16ZM32 16L32 17L33 17L33 16ZM0 17L0 18L1 18L1 17ZM22 17L22 18L23 18L23 17ZM16 18L16 19L15 19L15 20L17 20L17 19L18 19L18 18ZM2 19L2 20L1 20L1 21L0 21L0 22L1 22L1 21L2 21L2 22L3 22L3 21L2 21L2 20L3 20L3 19ZM22 19L22 20L23 20L23 21L24 21L24 23L25 23L25 21L26 21L26 22L27 22L27 24L28 24L28 22L29 22L29 21L28 21L28 22L27 22L27 21L26 21L26 19L24 19L24 20L23 20L23 19ZM24 20L24 21L25 21L25 20ZM32 20L32 21L33 21L33 20ZM4 21L4 23L2 23L2 24L0 24L0 25L2 25L2 24L3 24L3 25L4 25L4 23L5 23L5 21ZM23 24L23 25L24 25L24 24ZM31 24L31 27L32 27L32 24ZM19 25L19 27L20 27L20 29L19 29L19 31L20 31L20 30L22 30L22 31L26 31L26 29L25 29L25 30L22 30L22 29L21 29L21 27L20 27L20 26L22 26L22 28L23 28L23 29L24 29L24 26L22 26L22 25ZM25 25L25 28L28 28L28 25ZM26 26L26 27L27 27L27 26ZM8 27L8 29L9 29L9 31L8 31L8 33L11 33L11 32L9 32L9 31L10 31L10 28L9 28L9 27ZM15 27L15 29L16 29L16 27ZM32 28L32 29L31 29L31 31L32 31L32 30L33 30L33 28ZM27 29L27 31L28 31L28 29ZM16 30L16 31L18 31L18 30ZM32 32L32 33L33 33L33 32ZM0 0L7 0L7 7L0 7ZM1 1L1 6L6 6L6 1ZM5 3.5A1.5 1.5 0 0 1 3.5 5A1.5 1.5 0 0 1 2 3.5A1.5 1.5 0 0 1 3.5 2A1.5 1.5 0 0 1 5 3.5ZM26 0L33 0L33 7L26 7ZM27 1L27 6L32 6L32 1ZM31 3.5A1.5 1.5 0 0 1 29.5 5A1.5 1.5 0 0 1 28 3.5A1.5 1.5 0 0 1 29.5 2A1.5 1.5 0 0 1 31 3.5ZM0 26L7 26L7 33L0 33ZM1 27L1 32L6 32L6 27ZM5 29.5A1.5 1.5 0 0 1 3.5 31A1.5 1.5 0 0 1 2 29.5A1.5 1.5 0 0 1 3.5 28A1.5 1.5 0 0 1 5 29.5Z" fill="#000000"/></g></g></svg>
