<?xml version="1.0" encoding="UTF-8"?>
<svg xmlns="http://www.w3.org/2000/svg" version="1.1" width="180" height="180" viewBox="0 0 180 180"><rect x="0" y="0" width="180" height="180" fill="#ffffff"/><g transform="scale(5.455)"><g transform="translate(0,0)"><path fill-rule="evenodd" d="M10 0L10 1L8 1L8 3L9 3L9 4L8 4L8 8L6 8L6 9L7 9L7 10L5 10L5 9L4 9L4 8L3 8L3 9L2 9L2 8L0 8L0 9L1 9L1 10L2 10L2 11L3 11L3 12L5 12L5 13L1 13L1 11L0 11L0 13L1 13L1 14L0 14L0 15L2 15L2 16L0 16L0 19L1 19L1 20L2 20L2 22L0 22L0 23L1 23L1 24L0 24L0 25L1 25L1 24L2 24L2 23L3 23L3 25L4 25L4 23L5 23L5 21L7 21L7 22L6 22L6 23L7 23L7 22L9 22L9 23L8 23L8 24L9 24L9 25L8 25L8 27L9 27L9 26L12 26L12 28L11 28L11 27L10 27L10 31L8 31L8 33L9 33L9 32L10 32L10 31L11 31L11 33L13 33L13 32L14 32L14 33L15 33L15 32L19 32L19 33L20 33L20 32L21 32L21 33L22 33L22 32L24 32L24 33L26 33L26 32L27 32L27 33L28 33L28 31L31 31L31 29L30 29L30 30L29 30L29 24L30 24L30 22L31 22L31 21L32 21L32 23L31 23L31 24L33 24L33 21L32 21L32 20L31 20L31 21L30 21L30 18L31 18L31 19L33 19L33 18L31 18L31 17L29 17L29 16L30 16L30 14L31 14L31 16L32 16L32 17L33 17L33 16L32 16L32 14L33 14L33 9L32 9L32 8L30 8L30 9L29 9L29 8L26 8L26 9L25 9L25 8L23 8L23 5L24 5L24 7L25 7L25 5L24 5L24 4L23 4L23 5L22 5L22 4L21 4L21 5L22 5L22 7L21 7L21 6L20 6L20 5L19 5L19 4L20 4L20 3L19 3L19 1L20 1L20 2L21 2L21 0L15 0L15 1L14 1L14 2L17 2L17 3L15 3L15 4L14 4L14 3L12 3L12 7L11 7L11 4L10 4L10 3L9 3L9 2L11 2L11 0ZM23 0L23 1L22 1L22 2L25 2L25 1L24 1L24 0ZM17 1L17 2L18 2L18 1ZM17 3L17 4L16 4L16 5L18 5L18 6L17 6L17 7L16 7L16 6L15 6L15 5L14 5L14 4L13 4L13 7L12 7L12 8L13 8L13 9L14 9L14 10L15 10L15 11L14 11L14 12L12 12L12 16L11 16L11 15L10 15L10 16L8 16L8 15L9 15L9 14L8 14L8 13L10 13L10 14L11 14L11 13L10 13L10 12L8 12L8 13L5 13L5 14L8 14L8 15L6 15L6 16L4 16L4 17L3 17L3 18L1 18L1 19L2 19L2 20L3 20L3 21L4 21L4 20L3 20L3 18L4 18L4 19L5 19L5 20L8 20L8 21L9 21L9 22L10 22L10 23L11 23L11 25L12 25L12 24L13 24L13 27L15 27L15 29L13 29L13 28L12 28L12 29L11 29L11 31L12 31L12 32L13 32L13 30L14 30L14 32L15 32L15 31L17 31L17 30L16 30L16 28L17 28L17 27L16 27L16 25L15 25L15 24L16 24L16 22L17 22L17 21L19 21L19 22L18 22L18 23L17 23L17 24L18 24L18 27L19 27L19 28L20 28L20 29L18 29L18 31L23 31L23 30L21 30L21 27L23 27L23 29L24 29L24 30L25 30L25 31L27 31L27 30L26 30L26 29L24 29L24 21L23 21L23 19L24 19L24 20L26 20L26 21L27 21L27 22L25 22L25 24L29 24L29 22L30 22L30 21L29 21L29 20L28 20L28 21L27 21L27 20L26 20L26 19L29 19L29 17L28 17L28 16L29 16L29 15L28 15L28 16L27 16L27 17L26 17L26 15L27 15L27 14L28 14L28 13L29 13L29 12L30 12L30 13L32 13L32 12L31 12L31 11L32 11L32 9L30 9L30 11L29 11L29 9L27 9L27 14L25 14L25 17L26 17L26 19L25 19L25 18L23 18L23 17L18 17L18 20L17 20L17 18L16 18L16 17L17 17L17 14L18 14L18 15L20 15L20 16L21 16L21 15L20 15L20 14L19 14L19 13L20 13L20 12L21 12L21 11L22 11L22 14L24 14L24 13L23 13L23 12L26 12L26 10L24 10L24 9L23 9L23 8L22 8L22 9L23 9L23 11L22 11L22 10L20 10L20 6L19 6L19 5L18 5L18 3ZM9 5L9 8L8 8L8 10L7 10L7 11L5 11L5 10L3 10L3 11L5 11L5 12L7 12L7 11L8 11L8 10L9 10L9 11L11 11L11 8L10 8L10 5ZM14 6L14 7L13 7L13 8L14 8L14 9L16 9L16 7L15 7L15 6ZM18 6L18 7L17 7L17 8L19 8L19 6ZM14 7L14 8L15 8L15 7ZM9 9L9 10L10 10L10 9ZM17 10L17 11L15 11L15 12L14 12L14 13L13 13L13 15L15 15L15 17L14 17L14 16L12 16L12 18L11 18L11 16L10 16L10 18L9 18L9 19L8 19L8 20L10 20L10 18L11 18L11 19L12 19L12 20L13 20L13 18L14 18L14 20L15 20L15 21L14 21L14 22L15 22L15 21L16 21L16 20L15 20L15 17L16 17L16 15L15 15L15 12L16 12L16 13L18 13L18 12L19 12L19 11L20 11L20 10L19 10L19 11L18 11L18 10ZM17 11L17 12L18 12L18 11ZM28 11L28 12L29 12L29 11ZM3 14L3 15L4 15L4 14ZM22 15L22 16L23 16L23 15ZM6 16L6 17L7 17L7 18L6 18L6 19L7 19L7 18L8 18L8 16ZM4 17L4 18L5 18L5 17ZM20 18L20 19L19 19L19 20L20 20L20 22L19 22L19 24L20 24L20 25L19 25L19 26L20 26L20 27L21 27L21 26L22 26L22 19L23 19L23 18L22 18L22 19L21 19L21 18ZM20 19L20 20L21 20L21 19ZM10 21L10 22L12 22L12 21ZM3 22L3 23L4 23L4 22ZM20 22L20 23L21 23L21 22ZM27 22L27 23L28 23L28 22ZM14 23L14 24L15 24L15 23ZM6 24L6 25L7 25L7 24ZM25 25L25 28L28 28L28 25ZM30 25L30 27L31 27L31 28L32 28L32 26L33 26L33 25L32 25L32 26L31 26L31 25ZM26 26L26 27L27 27L27 26ZM8 29L8 30L9 30L9 29ZM32 30L32 31L33 31L33 30ZM29 32L29 33L30 33L30 32ZM31 32L31 33L32 33L32 32ZM0 0L7 0L7 7L0 7ZM1 1L1 6L6 6L6 1ZM5 3.5A1.5 1.5 0 0 1 3.5 5A1.5 1.5 0 0 1 2 3.5A1.5 1.5 0 0 1 3.5 2A1.5 1.5 0 0 1 5 3.5ZM26 0L33 0L33 7L26 7ZM27 1L27 6L32 6L32 1ZM31 3.5A1.5 1.5 0 0 1 29.5 5A1.5 1.5 0 0 1 28 3.5A1.5 1.5 0 0 1 29.5 2A1.5 1.5 0 0 1 31 3.5ZM0 26L7 26L7 33L0 33ZM1 27L1 32L6 32L6 27ZM5 29.5A1.5 1.5 0 0 1 3.5 31A1.5 1.5 0 0 1 2 29.5A1.5 1.5 0 0 1 3.5 28A1.5 1.5 0 0 1 5 29.5Z" fill="#000000"/></g></g></svg>
