<?xml version="1.0" encoding="UTF-8"?>
<svg xmlns="http://www.w3.org/2000/svg" version="1.1" width="130" height="130" viewBox="0 0 130 130"><rect x="0" y="0" width="130" height="130" fill="#ffffff"/><g transform="scale(4.483)"><g transform="translate(0,0)"><path fill-rule="evenodd" d="M9 0L9 1L10 1L10 2L8 2L8 3L9 3L9 4L10 4L10 5L9 5L9 6L8 6L8 8L4 8L4 9L3 9L3 8L0 8L0 9L3 9L3 10L5 10L5 11L4 11L4 14L3 14L3 13L2 13L2 12L3 12L3 11L2 11L2 10L1 10L1 11L2 11L2 12L1 12L1 13L0 13L0 14L1 14L1 13L2 13L2 15L1 15L1 17L2 17L2 16L4 16L4 17L5 17L5 15L4 15L4 14L5 14L5 11L7 11L7 12L6 12L6 13L7 13L7 12L8 12L8 11L10 11L10 10L11 10L11 9L12 9L12 8L13 8L13 9L14 9L14 8L15 8L15 9L16 9L16 10L17 10L17 13L16 13L16 14L17 14L17 15L16 15L16 16L15 16L15 17L14 17L14 15L13 15L13 16L12 16L12 15L11 15L11 14L10 14L10 13L9 13L9 14L10 14L10 15L9 15L9 16L10 16L10 17L7 17L7 16L8 16L8 14L6 14L6 15L7 15L7 16L6 16L6 17L7 17L7 18L2 18L2 19L1 19L1 18L0 18L0 19L1 19L1 20L0 20L0 21L1 21L1 20L2 20L2 21L3 21L3 20L5 20L5 21L7 21L7 20L8 20L8 25L9 25L9 26L8 26L8 29L11 29L11 28L12 28L12 27L10 27L10 26L11 26L11 23L10 23L10 21L9 21L9 19L8 19L8 18L10 18L10 17L12 17L12 18L16 18L16 20L15 20L15 19L12 19L12 20L11 20L11 21L12 21L12 20L13 20L13 22L12 22L12 23L13 23L13 25L12 25L12 26L13 26L13 29L14 29L14 28L15 28L15 29L18 29L18 28L19 28L19 26L21 26L21 27L20 27L20 29L23 29L23 28L24 28L24 29L26 29L26 27L27 27L27 29L29 29L29 28L28 28L28 27L29 27L29 21L26 21L26 22L25 22L25 20L26 20L26 18L27 18L27 20L28 20L28 19L29 19L29 16L28 16L28 15L29 15L29 12L28 12L28 11L29 11L29 9L28 9L28 10L26 10L26 9L27 9L27 8L26 8L26 9L25 9L25 10L24 10L24 9L23 9L23 8L21 8L21 10L20 10L20 11L19 11L19 9L18 9L18 7L19 7L19 8L20 8L20 7L21 7L21 6L20 6L20 5L21 5L21 4L19 4L19 3L20 3L20 2L21 2L21 1L20 1L20 0L18 0L18 1L17 1L17 2L18 2L18 1L19 1L19 3L18 3L18 4L19 4L19 6L18 6L18 5L16 5L16 4L15 4L15 3L14 3L14 5L15 5L15 6L14 6L14 7L13 7L13 3L11 3L11 2L14 2L14 1L15 1L15 2L16 2L16 0L12 0L12 1L11 1L11 0ZM10 5L10 6L9 6L9 7L10 7L10 6L11 6L11 7L12 7L12 6L11 6L11 5ZM15 6L15 8L16 8L16 6ZM17 6L17 7L18 7L18 6ZM19 6L19 7L20 7L20 6ZM9 8L9 10L10 10L10 8ZM6 9L6 10L7 10L7 11L8 11L8 9ZM12 10L12 11L11 11L11 12L12 12L12 14L15 14L15 13L14 13L14 12L15 12L15 10L14 10L14 11L13 11L13 10ZM22 10L22 11L24 11L24 14L23 14L23 15L22 15L22 12L21 12L21 11L20 11L20 12L19 12L19 11L18 11L18 13L17 13L17 14L18 14L18 15L20 15L20 16L18 16L18 18L19 18L19 19L18 19L18 22L16 22L16 21L15 21L15 20L14 20L14 22L13 22L13 23L14 23L14 24L16 24L16 23L18 23L18 22L20 22L20 21L19 21L19 19L20 19L20 20L21 20L21 19L20 19L20 18L21 18L21 17L22 17L22 16L23 16L23 17L24 17L24 19L23 19L23 18L22 18L22 19L23 19L23 20L25 20L25 18L26 18L26 17L27 17L27 18L28 18L28 17L27 17L27 14L28 14L28 13L27 13L27 11L26 11L26 10L25 10L25 11L24 11L24 10ZM25 11L25 14L27 14L27 13L26 13L26 11ZM20 14L20 15L21 15L21 16L22 16L22 15L21 15L21 14ZM10 15L10 16L11 16L11 15ZM24 15L24 16L26 16L26 15ZM16 16L16 17L17 17L17 16ZM2 19L2 20L3 20L3 19ZM5 19L5 20L7 20L7 19ZM21 21L21 24L24 24L24 21ZM22 22L22 23L23 23L23 22ZM26 22L26 26L27 26L27 27L28 27L28 24L27 24L27 22ZM9 23L9 24L10 24L10 23ZM18 24L18 26L19 26L19 25L20 25L20 24ZM13 25L13 26L14 26L14 27L16 27L16 28L17 28L17 26L16 26L16 25ZM22 25L22 28L23 28L23 27L24 27L24 25ZM0 0L7 0L7 7L0 7ZM1 1L1 6L6 6L6 1ZM5 3.5A1.5 1.5 0 0 1 3.5 5A1.5 1.5 0 0 1 2 3.5A1.5 1.5 0 0 1 3.5 2A1.5 1.5 0 0 1 5 3.5ZM22 0L29 0L29 7L22 7ZM23 1L23 6L28 6L28 1ZM27 3.5A1.5 1.5 0 0 1 25.5 5A1.5 1.5 0 0 1 24 3.5A1.5 1.5 0 0 1 25.5 2A1.5 1.5 0 0 1 27 3.5ZM0 22L7 22L7 29L0 29ZM1 23L1 28L6 28L6 23ZM5 25.5A1.5 1.5 0 0 1 3.5 27A1.5 1.5 0 0 1 2 25.5A1.5 1.5 0 0 1 3.5 24A1.5 1.5 0 0 1 5 25.5Z" fill="#000000"/></g></g></svg>
