<?xml version="1.0" encoding="UTF-8"?>
<svg xmlns="http://www.w3.org/2000/svg" version="1.1" width="130" height="130" viewBox="0 0 130 130"><rect x="0" y="0" width="130" height="130" fill="#ffffff"/><g transform="scale(4.483)"><g transform="translate(0,0)"><path fill-rule="evenodd" d="M8 0L8 1L9 1L9 0ZM10 0L10 1L11 1L11 2L10 2L10 3L9 3L9 2L8 2L8 5L9 5L9 6L8 6L8 7L9 7L9 8L8 8L8 9L7 9L7 8L6 8L6 9L4 9L4 8L0 8L0 9L1 9L1 12L2 12L2 13L1 13L1 18L0 18L0 19L1 19L1 18L2 18L2 20L1 20L1 21L2 21L2 20L3 20L3 21L8 21L8 22L9 22L9 21L10 21L10 20L9 20L9 21L8 21L8 17L7 17L7 16L9 16L9 19L11 19L11 18L14 18L14 19L15 19L15 20L14 20L14 21L16 21L16 23L15 23L15 24L16 24L16 23L18 23L18 24L17 24L17 25L14 25L14 23L13 23L13 25L12 25L12 28L11 28L11 27L10 27L10 28L11 28L11 29L14 29L14 28L15 28L15 29L16 29L16 27L15 27L15 26L17 26L17 27L18 27L18 24L20 24L20 25L24 25L24 26L25 26L25 25L26 25L26 26L28 26L28 27L27 27L27 29L28 29L28 27L29 27L29 25L28 25L28 22L29 22L29 21L27 21L27 18L28 18L28 15L29 15L29 13L27 13L27 12L26 12L26 11L28 11L28 12L29 12L29 11L28 11L28 10L29 10L29 8L28 8L28 10L26 10L26 11L25 11L25 13L27 13L27 14L24 14L24 12L23 12L23 13L22 13L22 12L20 12L20 11L24 11L24 10L25 10L25 9L27 9L27 8L24 8L24 10L23 10L23 9L22 9L22 8L21 8L21 6L20 6L20 5L21 5L21 4L20 4L20 3L21 3L21 2L20 2L20 3L19 3L19 2L18 2L18 1L21 1L21 0L18 0L18 1L17 1L17 0L16 0L16 1L17 1L17 2L18 2L18 3L17 3L17 4L15 4L15 1L14 1L14 0ZM13 1L13 2L14 2L14 1ZM11 2L11 3L10 3L10 6L9 6L9 7L10 7L10 8L9 8L9 9L8 9L8 10L9 10L9 11L8 11L8 12L7 12L7 11L5 11L5 12L7 12L7 13L6 13L6 14L7 14L7 15L6 15L6 16L5 16L5 14L4 14L4 12L3 12L3 13L2 13L2 16L3 16L3 17L2 17L2 18L3 18L3 19L5 19L5 18L7 18L7 17L6 17L6 16L7 16L7 15L8 15L8 13L9 13L9 12L10 12L10 13L11 13L11 15L10 15L10 14L9 14L9 15L10 15L10 18L11 18L11 17L13 17L13 16L14 16L14 17L15 17L15 18L16 18L16 19L17 19L17 18L19 18L19 19L18 19L18 20L19 20L19 21L20 21L20 19L21 19L21 20L22 20L22 18L24 18L24 19L23 19L23 20L26 20L26 19L25 19L25 18L26 18L26 17L27 17L27 15L24 15L24 14L23 14L23 15L22 15L22 14L20 14L20 15L17 15L17 14L19 14L19 13L20 13L20 12L19 12L19 11L20 11L20 10L21 10L21 9L20 9L20 10L19 10L19 9L17 9L17 12L18 12L18 13L17 13L17 14L15 14L15 13L13 13L13 14L15 14L15 15L13 15L13 16L12 16L12 11L14 11L14 10L15 10L15 11L16 11L16 9L14 9L14 8L15 8L15 7L16 7L16 6L17 6L17 7L18 7L18 8L20 8L20 6L19 6L19 5L14 5L14 4L13 4L13 3L12 3L12 2ZM18 3L18 4L19 4L19 3ZM12 5L12 7L11 7L11 6L10 6L10 7L11 7L11 11L12 11L12 10L14 10L14 9L13 9L13 5ZM14 6L14 7L15 7L15 6ZM18 6L18 7L19 7L19 6ZM3 9L3 11L4 11L4 9ZM6 9L6 10L7 10L7 9ZM9 9L9 10L10 10L10 9ZM3 14L3 16L4 16L4 14ZM16 15L16 16L15 16L15 17L17 17L17 15ZM21 15L21 16L22 16L22 15ZM23 15L23 17L25 17L25 16L24 16L24 15ZM18 16L18 17L19 17L19 16ZM4 17L4 18L5 18L5 17ZM6 19L6 20L7 20L7 19ZM12 19L12 20L11 20L11 24L9 24L9 25L8 25L8 29L9 29L9 25L11 25L11 24L12 24L12 22L13 22L13 19ZM17 21L17 22L18 22L18 23L19 23L19 22L18 22L18 21ZM21 21L21 24L24 24L24 21ZM22 22L22 23L23 23L23 22ZM26 22L26 24L27 24L27 22ZM13 26L13 28L14 28L14 26ZM19 26L19 28L18 28L18 29L19 29L19 28L20 28L20 29L22 29L22 26ZM23 28L23 29L24 29L24 28ZM25 28L25 29L26 29L26 28ZM0 0L7 0L7 7L0 7ZM1 1L1 6L6 6L6 1ZM5 3.5A1.5 1.5 0 0 1 3.5 5A1.5 1.5 0 0 1 2 3.5A1.5 1.5 0 0 1 3.5 2A1.5 1.5 0 0 1 5 3.5ZM22 0L29 0L29 7L22 7ZM23 1L23 6L28 6L28 1ZM27 3.5A1.5 1.5 0 0 1 25.5 5A1.5 1.5 0 0 1 24 3.5A1.5 1.5 0 0 1 25.5 2A1.5 1.5 0 0 1 27 3.5ZM0 22L7 22L7 29L0 29ZM1 23L1 28L6 28L6 23ZM5 25.5A1.5 1.5 0 0 1 3.5 27A1.5 1.5 0 0 1 2 25.5A1.5 1.5 0 0 1 3.5 24A1.5 1.5 0 0 1 5 25.5Z" fill="#000000"/></g></g></svg>
