<?xml version="1.0" encoding="UTF-8"?>
<svg xmlns="http://www.w3.org/2000/svg" version="1.1" width="180" height="180" viewBox="0 0 180 180"><rect x="0" y="0" width="180" height="180" fill="#ffffff"/><g transform="scale(5.455)"><g transform="translate(0,0)"><path fill-rule="evenodd" d="M10 0L10 2L11 2L11 0ZM12 0L12 1L13 1L13 0ZM14 0L14 1L15 1L15 4L14 4L14 3L13 3L13 2L12 2L12 4L14 4L14 5L11 5L11 6L10 6L10 4L11 4L11 3L8 3L8 4L9 4L9 5L8 5L8 7L9 7L9 8L6 8L6 9L5 9L5 8L0 8L0 10L1 10L1 11L2 11L2 12L1 12L1 13L4 13L4 14L3 14L3 15L4 15L4 14L5 14L5 15L7 15L7 16L5 16L5 17L7 17L7 16L11 16L11 17L12 17L12 18L13 18L13 19L12 19L12 21L14 21L14 24L12 24L12 23L13 23L13 22L11 22L11 21L10 21L10 20L11 20L11 19L9 19L9 18L6 18L6 19L7 19L7 20L4 20L4 19L5 19L5 18L4 18L4 19L3 19L3 18L2 18L2 20L3 20L3 21L1 21L1 20L0 20L0 25L1 25L1 22L2 22L2 24L3 24L3 25L5 25L5 24L4 24L4 23L3 23L3 21L4 21L4 22L5 22L5 23L7 23L7 22L5 22L5 21L7 21L7 20L9 20L9 21L8 21L8 22L9 22L9 23L8 23L8 24L6 24L6 25L8 25L8 27L9 27L9 28L8 28L8 33L10 33L10 30L11 30L11 28L12 28L12 29L13 29L13 31L14 31L14 32L13 32L13 33L14 33L14 32L15 32L15 33L18 33L18 32L16 32L16 31L18 31L18 30L20 30L20 31L19 31L19 33L20 33L20 32L22 32L22 33L26 33L26 32L28 32L28 33L29 33L29 32L31 32L31 33L32 33L32 32L31 32L31 31L32 31L32 30L29 30L29 28L31 28L31 29L32 29L32 26L33 26L33 24L32 24L32 26L30 26L30 25L29 25L29 24L31 24L31 23L32 23L32 22L33 22L33 21L32 21L32 20L31 20L31 19L32 19L32 18L33 18L33 17L32 17L32 16L31 16L31 15L32 15L32 14L33 14L33 13L31 13L31 15L30 15L30 16L31 16L31 19L30 19L30 17L29 17L29 16L28 16L28 15L25 15L25 14L27 14L27 13L30 13L30 12L31 12L31 11L32 11L32 10L33 10L33 9L32 9L32 8L31 8L31 9L30 9L30 8L29 8L29 9L30 9L30 10L29 10L29 11L28 11L28 10L27 10L27 9L28 9L28 8L27 8L27 9L26 9L26 8L25 8L25 6L24 6L24 7L23 7L23 5L24 5L24 4L25 4L25 3L24 3L24 2L21 2L21 1L24 1L24 0L21 0L21 1L20 1L20 0L17 0L17 1L15 1L15 0ZM8 1L8 2L9 2L9 1ZM18 1L18 2L16 2L16 3L18 3L18 4L15 4L15 5L14 5L14 6L13 6L13 7L12 7L12 6L11 6L11 7L12 7L12 9L11 9L11 8L10 8L10 9L9 9L9 10L8 10L8 9L6 9L6 10L8 10L8 11L9 11L9 12L7 12L7 11L6 11L6 12L7 12L7 13L6 13L6 14L7 14L7 15L11 15L11 14L16 14L16 13L17 13L17 12L18 12L18 13L22 13L22 12L24 12L24 11L25 11L25 10L26 10L26 13L27 13L27 12L28 12L28 11L27 11L27 10L26 10L26 9L24 9L24 8L23 8L23 7L22 7L22 5L23 5L23 3L21 3L21 2L20 2L20 1ZM18 2L18 3L19 3L19 2ZM18 4L18 5L15 5L15 6L14 6L14 8L13 8L13 9L12 9L12 10L13 10L13 11L12 11L12 13L16 13L16 12L17 12L17 11L18 11L18 10L20 10L20 11L19 11L19 12L22 12L22 11L23 11L23 10L24 10L24 9L23 9L23 8L22 8L22 7L21 7L21 4ZM19 5L19 7L18 7L18 6L17 6L17 8L18 8L18 9L20 9L20 5ZM9 6L9 7L10 7L10 6ZM15 6L15 7L16 7L16 6ZM14 8L14 9L15 9L15 10L16 10L16 11L17 11L17 9L16 9L16 8ZM21 8L21 9L22 9L22 8ZM1 9L1 10L2 10L2 11L5 11L5 9L4 9L4 10L2 10L2 9ZM10 9L10 11L11 11L11 9ZM30 10L30 11L29 11L29 12L30 12L30 11L31 11L31 10ZM13 11L13 12L14 12L14 11ZM4 12L4 13L5 13L5 12ZM9 12L9 13L7 13L7 14L9 14L9 13L11 13L11 12ZM24 13L24 14L21 14L21 15L20 15L20 14L17 14L17 15L16 15L16 16L15 16L15 18L14 18L14 17L13 17L13 16L14 16L14 15L12 15L12 17L13 17L13 18L14 18L14 19L13 19L13 20L15 20L15 22L18 22L18 23L17 23L17 24L16 24L16 23L15 23L15 26L14 26L14 25L13 25L13 28L19 28L19 29L20 29L20 28L21 28L21 29L22 29L22 28L21 28L21 27L20 27L20 26L18 26L18 25L22 25L22 24L23 24L23 25L24 25L24 24L25 24L25 23L24 23L24 22L26 22L26 21L27 21L27 24L29 24L29 21L30 21L30 23L31 23L31 20L30 20L30 19L28 19L28 20L26 20L26 19L25 19L25 18L26 18L26 17L27 17L27 18L29 18L29 17L27 17L27 16L26 16L26 17L24 17L24 18L23 18L23 17L22 17L22 16L25 16L25 15L24 15L24 14L25 14L25 13ZM1 14L1 15L2 15L2 14ZM21 15L21 16L22 16L22 15ZM2 16L2 17L3 17L3 16ZM17 16L17 17L16 17L16 18L15 18L15 19L16 19L16 21L18 21L18 20L20 20L20 21L19 21L19 22L20 22L20 23L21 23L21 24L22 24L22 23L21 23L21 22L22 22L22 21L23 21L23 22L24 22L24 21L26 21L26 20L25 20L25 19L24 19L24 21L23 21L23 19L22 19L22 18L21 18L21 17L19 17L19 16ZM0 17L0 19L1 19L1 17ZM18 18L18 19L17 19L17 20L18 20L18 19L20 19L20 20L21 20L21 21L22 21L22 20L21 20L21 18ZM28 20L28 21L29 21L29 20ZM10 22L10 23L9 23L9 24L11 24L11 22ZM18 23L18 24L17 24L17 25L18 25L18 24L19 24L19 23ZM9 25L9 26L10 26L10 27L12 27L12 25ZM25 25L25 28L28 28L28 25ZM15 26L15 27L16 27L16 26ZM26 26L26 27L27 27L27 26ZM19 27L19 28L20 28L20 27ZM23 28L23 29L24 29L24 28ZM9 29L9 30L10 30L10 29ZM14 29L14 30L16 30L16 29ZM26 29L26 30L25 30L25 31L22 31L22 32L25 32L25 31L26 31L26 30L27 30L27 31L29 31L29 30L27 30L27 29ZM11 32L11 33L12 33L12 32ZM0 0L7 0L7 7L0 7ZM1 1L1 6L6 6L6 1ZM5 3.5A1.5 1.5 0 0 1 3.5 5A1.5 1.5 0 0 1 2 3.5A1.5 1.5 0 0 1 3.5 2A1.5 1.5 0 0 1 5 3.5ZM26 0L33 0L33 7L26 7ZM27 1L27 6L32 6L32 1ZM31 3.5A1.5 1.5 0 0 1 29.5 5A1.5 1.5 0 0 1 28 3.5A1.5 1.5 0 0 1 29.5 2A1.5 1.5 0 0 1 31 3.5ZM0 26L7 26L7 33L0 33ZM1 27L1 32L6 32L6 27ZM5 29.5A1.5 1.5 0 0 1 3.5 31A1.5 1.5 0 0 1 2 29.5A1.5 1.5 0 0 1 3.5 28A1.5 1.5 0 0 1 5 29.5Z" fill="#000000"/></g></g></svg>
