<?xml version="1.0" encoding="UTF-8"?>
<svg xmlns="http://www.w3.org/2000/svg" version="1.1" width="180" height="180" viewBox="0 0 180 180"><rect x="0" y="0" width="180" height="180" fill="#ffffff"/><g transform="scale(5.455)"><g transform="translate(0,0)"><path fill-rule="evenodd" d="M8 0L8 1L9 1L9 2L8 2L8 5L9 5L9 4L11 4L11 5L10 5L10 10L9 10L9 11L8 11L8 10L4 10L4 11L2 11L2 13L1 13L1 12L0 12L0 13L1 13L1 14L2 14L2 16L3 16L3 17L5 17L5 18L6 18L6 19L7 19L7 20L5 20L5 21L4 21L4 20L3 20L3 19L4 19L4 18L3 18L3 19L2 19L2 17L1 17L1 16L0 16L0 17L1 17L1 20L0 20L0 22L2 22L2 23L1 23L1 24L0 24L0 25L1 25L1 24L2 24L2 23L3 23L3 25L8 25L8 26L9 26L9 24L10 24L10 25L11 25L11 26L10 26L10 27L11 27L11 29L10 29L10 28L9 28L9 29L8 29L8 33L9 33L9 31L10 31L10 33L13 33L13 31L17 31L17 33L19 33L19 32L20 32L20 31L23 31L23 33L24 33L24 32L26 32L26 31L27 31L27 30L26 30L26 31L25 31L25 30L24 30L24 29L30 29L30 30L29 30L29 31L28 31L28 32L27 32L27 33L28 33L28 32L29 32L29 31L32 31L32 32L33 32L33 31L32 31L32 29L33 29L33 28L32 28L32 27L30 27L30 26L31 26L31 25L30 25L30 26L29 26L29 24L30 24L30 23L31 23L31 24L32 24L32 25L33 25L33 24L32 24L32 23L33 23L33 21L31 21L31 20L30 20L30 18L31 18L31 19L32 19L32 20L33 20L33 19L32 19L32 18L33 18L33 16L31 16L31 14L32 14L32 13L30 13L30 12L28 12L28 11L27 11L27 9L26 9L26 8L25 8L25 9L26 9L26 10L24 10L24 9L22 9L22 8L19 8L19 6L20 6L20 7L21 7L21 6L22 6L22 7L23 7L23 6L22 6L22 4L21 4L21 5L20 5L20 4L19 4L19 6L18 6L18 3L17 3L17 1L18 1L18 2L19 2L19 3L20 3L20 2L19 2L19 1L20 1L20 0L17 0L17 1L16 1L16 3L15 3L15 5L16 5L16 4L17 4L17 6L16 6L16 8L15 8L15 9L13 9L13 6L14 6L14 7L15 7L15 6L14 6L14 5L13 5L13 4L14 4L14 2L15 2L15 0L14 0L14 1L13 1L13 0L12 0L12 1L11 1L11 0L10 0L10 1L9 1L9 0ZM21 0L21 2L22 2L22 1L23 1L23 4L24 4L24 7L25 7L25 1L24 1L24 0ZM11 2L11 4L12 4L12 3L13 3L13 2ZM12 5L12 6L11 6L11 8L12 8L12 6L13 6L13 5ZM8 6L8 7L9 7L9 6ZM17 6L17 7L18 7L18 6ZM0 8L0 9L2 9L2 10L3 10L3 9L4 9L4 8ZM6 8L6 9L7 9L7 8ZM8 8L8 9L9 9L9 8ZM16 8L16 9L15 9L15 10L14 10L14 11L15 11L15 12L16 12L16 13L17 13L17 14L15 14L15 15L16 15L16 18L17 18L17 17L18 17L18 20L19 20L19 19L21 19L21 20L22 20L22 23L21 23L21 22L19 22L19 21L17 21L17 20L16 20L16 21L15 21L15 22L14 22L14 19L15 19L15 18L14 18L14 19L13 19L13 17L12 17L12 16L14 16L14 17L15 17L15 16L14 16L14 13L13 13L13 14L12 14L12 16L11 16L11 15L10 15L10 14L11 14L11 13L12 13L12 12L13 12L13 11L11 11L11 13L9 13L9 15L8 15L8 17L6 17L6 16L7 16L7 15L5 15L5 12L7 12L7 11L5 11L5 12L4 12L4 13L3 13L3 16L4 16L4 15L5 15L5 17L6 17L6 18L7 18L7 19L9 19L9 20L7 20L7 21L5 21L5 22L3 22L3 23L5 23L5 24L7 24L7 23L5 23L5 22L7 22L7 21L8 21L8 22L9 22L9 23L10 23L10 24L11 24L11 23L16 23L16 24L15 24L15 25L12 25L12 26L11 26L11 27L13 27L13 28L12 28L12 29L11 29L11 30L10 30L10 31L13 31L13 30L15 30L15 29L16 29L16 30L17 30L17 29L18 29L18 31L20 31L20 29L21 29L21 30L23 30L23 29L21 29L21 27L23 27L23 26L24 26L24 23L25 23L25 24L26 24L26 23L27 23L27 22L28 22L28 23L30 23L30 22L31 22L31 21L30 21L30 20L29 20L29 19L25 19L25 18L22 18L22 19L21 19L21 18L20 18L20 16L21 16L21 15L18 15L18 14L19 14L19 13L20 13L20 14L22 14L22 10L19 10L19 12L18 12L18 10L17 10L17 8ZM28 8L28 9L30 9L30 11L31 11L31 12L32 12L32 11L33 11L33 8L32 8L32 9L31 9L31 8ZM11 9L11 10L12 10L12 9ZM0 10L0 11L1 11L1 10ZM20 11L20 12L21 12L21 11ZM23 11L23 12L26 12L26 15L27 15L27 11ZM17 12L17 13L18 13L18 12ZM6 13L6 14L8 14L8 13ZM23 13L23 15L22 15L22 16L23 16L23 17L25 17L25 14L24 14L24 13ZM28 13L28 14L29 14L29 15L28 15L28 16L27 16L27 17L28 17L28 16L30 16L30 14L29 14L29 13ZM10 16L10 18L11 18L11 16ZM31 17L31 18L32 18L32 17ZM10 19L10 20L9 20L9 22L11 22L11 20L12 20L12 19ZM22 19L22 20L24 20L24 19ZM1 20L1 21L3 21L3 20ZM27 20L27 21L26 21L26 22L25 22L25 23L26 23L26 22L27 22L27 21L28 21L28 20ZM23 21L23 23L22 23L22 26L23 26L23 23L24 23L24 21ZM29 21L29 22L30 22L30 21ZM16 22L16 23L17 23L17 22ZM18 22L18 23L19 23L19 24L20 24L20 23L19 23L19 22ZM17 24L17 26L16 26L16 25L15 25L15 26L16 26L16 27L17 27L17 26L18 26L18 27L19 27L19 28L20 28L20 27L21 27L21 26L20 26L20 25L19 25L19 26L18 26L18 24ZM25 25L25 28L28 28L28 25ZM13 26L13 27L14 27L14 26ZM26 26L26 27L27 27L27 26ZM13 28L13 29L12 29L12 30L13 30L13 29L14 29L14 28ZM16 28L16 29L17 29L17 28ZM21 32L21 33L22 33L22 32ZM30 32L30 33L31 33L31 32ZM0 0L7 0L7 7L0 7ZM1 1L1 6L6 6L6 1ZM5 3.5A1.5 1.5 0 0 1 3.5 5A1.5 1.5 0 0 1 2 3.5A1.5 1.5 0 0 1 3.5 2A1.5 1.5 0 0 1 5 3.5ZM26 0L33 0L33 7L26 7ZM27 1L27 6L32 6L32 1ZM31 3.5A1.5 1.5 0 0 1 29.5 5A1.5 1.5 0 0 1 28 3.5A1.5 1.5 0 0 1 29.5 2A1.5 1.5 0 0 1 31 3.5ZM0 26L7 26L7 33L0 33ZM1 27L1 32L6 32L6 27ZM5 29.5A1.5 1.5 0 0 1 3.5 31A1.5 1.5 0 0 1 2 29.5A1.5 1.5 0 0 1 3.5 28A1.5 1.5 0 0 1 5 29.5Z" fill="#000000"/></g></g></svg>
