<?xml version="1.0" encoding="UTF-8"?>
<svg xmlns="http://www.w3.org/2000/svg" version="1.1" width="180" height="180" viewBox="0 0 180 180"><rect x="0" y="0" width="180" height="180" fill="#ffffff"/><g transform="scale(5.455)"><g transform="translate(0,0)"><path fill-rule="evenodd" d="M9 0L9 1L8 1L8 2L9 2L9 3L8 3L8 4L10 4L10 7L11 7L11 4L12 4L12 5L13 5L13 6L12 6L12 8L13 8L13 9L11 9L11 8L6 8L6 9L7 9L7 10L4 10L4 9L5 9L5 8L0 8L0 13L1 13L1 15L0 15L0 16L1 16L1 15L2 15L2 16L3 16L3 15L4 15L4 17L0 17L0 18L1 18L1 21L0 21L0 25L1 25L1 22L2 22L2 25L3 25L3 24L4 24L4 25L5 25L5 22L4 22L4 21L2 21L2 20L6 20L6 21L7 21L7 20L8 20L8 21L9 21L9 22L10 22L10 21L11 21L11 22L12 22L12 23L14 23L14 24L13 24L13 26L14 26L14 27L18 27L18 28L13 28L13 27L12 27L12 28L11 28L11 26L12 26L12 25L11 25L11 23L8 23L8 22L6 22L6 23L7 23L7 24L6 24L6 25L7 25L7 24L8 24L8 27L10 27L10 28L8 28L8 33L9 33L9 32L12 32L12 33L16 33L16 32L17 32L17 33L18 33L18 32L17 32L17 31L16 31L16 30L18 30L18 31L19 31L19 30L20 30L20 31L21 31L21 32L22 32L22 33L23 33L23 32L24 32L24 33L25 33L25 32L24 32L24 31L27 31L27 32L28 32L28 33L29 33L29 31L30 31L30 32L31 32L31 33L32 33L32 32L31 32L31 31L32 31L32 30L31 30L31 29L30 29L30 28L31 28L31 27L32 27L32 29L33 29L33 27L32 27L32 26L33 26L33 24L32 24L32 26L31 26L31 25L30 25L30 24L31 24L31 23L32 23L32 22L33 22L33 21L32 21L32 20L31 20L31 19L32 19L32 18L33 18L33 17L32 17L32 16L31 16L31 15L32 15L32 14L33 14L33 13L31 13L31 15L30 15L30 13L29 13L29 10L28 10L28 8L27 8L27 9L26 9L26 8L25 8L25 6L24 6L24 8L25 8L25 10L27 10L27 11L28 11L28 12L27 12L27 13L25 13L25 12L26 12L26 11L25 11L25 12L24 12L24 11L21 11L21 10L24 10L24 9L23 9L23 5L24 5L24 4L23 4L23 3L25 3L25 1L24 1L24 2L23 2L23 3L22 3L22 2L21 2L21 1L23 1L23 0L19 0L19 1L15 1L15 0L14 0L14 1L15 1L15 2L14 2L14 3L12 3L12 2L13 2L13 1L11 1L11 2L10 2L10 0ZM19 1L19 3L18 3L18 2L17 2L17 3L18 3L18 4L22 4L22 5L23 5L23 4L22 4L22 3L21 3L21 2L20 2L20 1ZM10 3L10 4L11 4L11 3ZM14 3L14 4L13 4L13 5L17 5L17 8L16 8L16 6L15 6L15 7L14 7L14 6L13 6L13 8L15 8L15 9L14 9L14 10L11 10L11 9L10 9L10 11L11 11L11 12L10 12L10 13L9 13L9 11L8 11L8 13L6 13L6 12L7 12L7 11L6 11L6 12L4 12L4 10L2 10L2 9L1 9L1 10L2 10L2 11L3 11L3 13L2 13L2 12L1 12L1 13L2 13L2 14L4 14L4 15L5 15L5 16L8 16L8 17L5 17L5 18L4 18L4 19L6 19L6 20L7 20L7 19L6 19L6 18L8 18L8 19L9 19L9 21L10 21L10 20L11 20L11 21L12 21L12 22L13 22L13 20L14 20L14 19L15 19L15 21L14 21L14 22L16 22L16 21L17 21L17 22L19 22L19 26L18 26L18 25L17 25L17 26L18 26L18 27L19 27L19 28L18 28L18 29L21 29L21 31L22 31L22 29L23 29L23 31L24 31L24 27L23 27L23 26L24 26L24 25L22 25L22 24L23 24L23 23L24 23L24 24L27 24L27 22L25 22L25 21L27 21L27 20L28 20L28 19L26 19L26 18L25 18L25 17L28 17L28 18L29 18L29 17L30 17L30 19L29 19L29 20L30 20L30 21L28 21L28 24L30 24L30 23L29 23L29 22L30 22L30 21L31 21L31 20L30 20L30 19L31 19L31 16L30 16L30 15L29 15L29 13L28 13L28 16L26 16L26 14L25 14L25 16L23 16L23 17L24 17L24 18L21 18L21 19L20 19L20 18L19 18L19 17L17 17L17 16L20 16L20 17L22 17L22 16L20 16L20 15L21 15L21 14L19 14L19 13L18 13L18 14L17 14L17 16L16 16L16 17L15 17L15 18L14 18L14 16L15 16L15 15L14 15L14 14L16 14L16 13L13 13L13 12L14 12L14 11L15 11L15 10L16 10L16 11L17 11L17 12L19 12L19 11L20 11L20 10L18 10L18 11L17 11L17 10L16 10L16 9L17 9L17 8L18 8L18 9L19 9L19 7L20 7L20 6L21 6L21 7L22 7L22 6L21 6L21 5L19 5L19 7L18 7L18 5L17 5L17 4L16 4L16 3ZM8 5L8 7L9 7L9 5ZM20 8L20 9L22 9L22 8ZM29 8L29 9L30 9L30 8ZM31 8L31 10L33 10L33 9L32 9L32 8ZM30 11L30 12L31 12L31 11ZM11 12L11 13L10 13L10 14L9 14L9 13L8 13L8 14L6 14L6 13L5 13L5 15L8 15L8 16L9 16L9 17L10 17L10 18L9 18L9 19L10 19L10 18L12 18L12 17L13 17L13 16L12 16L12 17L10 17L10 16L11 16L11 14L12 14L12 15L13 15L13 13L12 13L12 12ZM20 12L20 13L22 13L22 14L23 14L23 15L24 15L24 14L23 14L23 13L22 13L22 12ZM9 15L9 16L10 16L10 15ZM28 16L28 17L29 17L29 16ZM16 17L16 18L15 18L15 19L16 19L16 18L17 18L17 17ZM2 18L2 19L3 19L3 18ZM13 18L13 19L14 19L14 18ZM18 18L18 19L19 19L19 18ZM21 19L21 20L22 20L22 21L19 21L19 20L17 20L17 21L19 21L19 22L22 22L22 23L20 23L20 26L21 26L21 27L20 27L20 28L23 28L23 27L22 27L22 25L21 25L21 24L22 24L22 23L23 23L23 22L24 22L24 21L23 21L23 20L22 20L22 19ZM24 19L24 20L25 20L25 19ZM3 22L3 23L4 23L4 22ZM17 23L17 24L18 24L18 23ZM9 25L9 26L11 26L11 25ZM14 25L14 26L16 26L16 25ZM25 25L25 28L28 28L28 25ZM29 25L29 28L30 28L30 27L31 27L31 26L30 26L30 25ZM26 26L26 27L27 27L27 26ZM9 29L9 30L11 30L11 31L13 31L13 32L14 32L14 31L15 31L15 29L14 29L14 30L13 30L13 29L12 29L12 30L11 30L11 29ZM25 29L25 30L28 30L28 31L29 31L29 30L28 30L28 29ZM30 30L30 31L31 31L31 30ZM19 32L19 33L20 33L20 32ZM0 0L7 0L7 7L0 7ZM1 1L1 6L6 6L6 1ZM5 3.5A1.5 1.5 0 0 1 3.5 5A1.5 1.5 0 0 1 2 3.5A1.5 1.5 0 0 1 3.5 2A1.5 1.5 0 0 1 5 3.5ZM26 0L33 0L33 7L26 7ZM27 1L27 6L32 6L32 1ZM31 3.5A1.5 1.5 0 0 1 29.5 5A1.5 1.5 0 0 1 28 3.5A1.5 1.5 0 0 1 29.5 2A1.5 1.5 0 0 1 31 3.5ZM0 26L7 26L7 33L0 33ZM1 27L1 32L6 32L6 27ZM5 29.5A1.5 1.5 0 0 1 3.5 31A1.5 1.5 0 0 1 2 29.5A1.5 1.5 0 0 1 3.5 28A1.5 1.5 0 0 1 5 29.5Z" fill="#000000"/></g></g></svg>
