<?xml version="1.0" encoding="UTF-8"?>
<svg xmlns="http://www.w3.org/2000/svg" version="1.1" width="180" height="180" viewBox="0 0 180 180"><rect x="0" y="0" width="180" height="180" fill="#ffffff"/><g transform="scale(6.207)"><g transform="translate(0,0)"><path fill-rule="evenodd" d="M8 0L8 1L10 1L10 0ZM14 0L14 1L15 1L15 0ZM16 0L16 1L17 1L17 2L11 2L11 4L10 4L10 3L9 3L9 2L8 2L8 5L9 5L9 6L8 6L8 7L9 7L9 8L8 8L8 9L9 9L9 10L8 10L8 13L7 13L7 12L6 12L6 11L7 11L7 10L6 10L6 11L5 11L5 10L4 10L4 12L3 12L3 13L4 13L4 14L3 14L3 16L1 16L1 18L0 18L0 19L1 19L1 18L2 18L2 17L3 17L3 19L2 19L2 20L1 20L1 21L2 21L2 20L3 20L3 21L4 21L4 20L5 20L5 21L8 21L8 22L9 22L9 21L10 21L10 22L11 22L11 23L14 23L14 20L16 20L16 18L17 18L17 22L16 22L16 23L17 23L17 22L18 22L18 24L16 24L16 25L15 25L15 24L14 24L14 26L13 26L13 24L12 24L12 25L10 25L10 26L9 26L9 25L8 25L8 29L11 29L11 28L12 28L12 29L13 29L13 28L12 28L12 26L13 26L13 27L14 27L14 29L15 29L15 28L17 28L17 26L16 26L16 25L18 25L18 24L20 24L20 25L24 25L24 26L25 26L25 25L26 25L26 26L27 26L27 25L28 25L28 27L27 27L27 29L28 29L28 27L29 27L29 23L28 23L28 22L29 22L29 21L27 21L27 18L28 18L28 15L29 15L29 13L27 13L27 12L26 12L26 11L28 11L28 12L29 12L29 11L28 11L28 10L29 10L29 8L28 8L28 10L26 10L26 11L25 11L25 13L27 13L27 14L24 14L24 12L23 12L23 13L22 13L22 12L20 12L20 11L24 11L24 10L25 10L25 9L27 9L27 8L24 8L24 10L23 10L23 9L22 9L22 8L21 8L21 6L20 6L20 5L21 5L21 4L20 4L20 3L21 3L21 2L20 2L20 3L19 3L19 2L18 2L18 1L17 1L17 0ZM19 0L19 1L21 1L21 0ZM17 2L17 3L18 3L18 4L19 4L19 3L18 3L18 2ZM12 3L12 5L10 5L10 6L9 6L9 7L10 7L10 8L9 8L9 9L10 9L10 10L9 10L9 12L10 12L10 13L11 13L11 11L13 11L13 9L14 9L14 11L16 11L16 14L15 14L15 12L14 12L14 14L15 14L15 15L16 15L16 16L14 16L14 15L13 15L13 16L12 16L12 14L13 14L13 12L12 12L12 14L10 14L10 15L9 15L9 14L8 14L8 15L6 15L6 16L7 16L7 17L6 17L6 18L5 18L5 15L4 15L4 18L5 18L5 20L8 20L8 21L9 21L9 20L12 20L12 19L11 19L11 18L12 18L12 17L14 17L14 19L13 19L13 20L14 20L14 19L15 19L15 17L16 17L16 16L17 16L17 18L18 18L18 16L19 16L19 19L18 19L18 22L19 22L19 21L20 21L20 19L21 19L21 20L22 20L22 18L24 18L24 19L23 19L23 20L26 20L26 19L25 19L25 18L26 18L26 17L27 17L27 15L24 15L24 14L23 14L23 15L22 15L22 14L20 14L20 15L19 15L19 14L17 14L17 12L18 12L18 13L20 13L20 12L18 12L18 10L16 10L16 8L15 8L15 9L14 9L14 6L15 6L15 7L16 7L16 6L17 6L17 7L18 7L18 9L19 9L19 8L20 8L20 6L19 6L19 5L18 5L18 6L17 6L17 5L15 5L15 4L13 4L13 3ZM12 5L12 7L11 7L11 6L10 6L10 7L11 7L11 8L12 8L12 7L13 7L13 6L14 6L14 5ZM18 6L18 7L19 7L19 6ZM0 8L0 10L2 10L2 11L1 11L1 12L0 12L0 14L1 14L1 15L2 15L2 14L1 14L1 12L2 12L2 11L3 11L3 9L4 9L4 8ZM6 8L6 9L7 9L7 8ZM20 9L20 10L19 10L19 11L20 11L20 10L21 10L21 9ZM5 13L5 14L7 14L7 13ZM10 15L10 18L11 18L11 17L12 17L12 16L11 16L11 15ZM21 15L21 16L22 16L22 15ZM23 15L23 17L25 17L25 16L24 16L24 15ZM8 17L8 20L9 20L9 17ZM6 18L6 19L7 19L7 18ZM3 19L3 20L4 20L4 19ZM11 21L11 22L12 22L12 21ZM21 21L21 24L24 24L24 21ZM22 22L22 23L23 23L23 22ZM26 22L26 24L27 24L27 22ZM9 23L9 24L10 24L10 23ZM10 26L10 27L11 27L11 26ZM14 26L14 27L16 27L16 26ZM19 26L19 28L18 28L18 29L19 29L19 28L20 28L20 29L22 29L22 26ZM23 28L23 29L24 29L24 28ZM25 28L25 29L26 29L26 28ZM0 0L7 0L7 7L0 7ZM1 1L1 6L6 6L6 1ZM5 3.5A1.5 1.5 0 0 1 3.5 5A1.5 1.5 0 0 1 2 3.5A1.5 1.5 0 0 1 3.5 2A1.5 1.5 0 0 1 5 3.5ZM22 0L29 0L29 7L22 7ZM23 1L23 6L28 6L28 1ZM27 3.5A1.5 1.5 0 0 1 25.5 5A1.5 1.5 0 0 1 24 3.5A1.5 1.5 0 0 1 25.5 2A1.5 1.5 0 0 1 27 3.5ZM0 22L7 22L7 29L0 29ZM1 23L1 28L6 28L6 23ZM5 25.5A1.5 1.5 0 0 1 3.5 27A1.5 1.5 0 0 1 2 25.5A1.5 1.5 0 0 1 3.5 24A1.5 1.5 0 0 1 5 25.5Z" fill="#000000"/></g></g></svg>
