<?xml version="1.0" encoding="UTF-8"?>
<svg xmlns="http://www.w3.org/2000/svg" version="1.1" width="180" height="180" viewBox="0 0 180 180"><rect x="0" y="0" width="180" height="180" fill="#ffffff"/><g transform="scale(6.207)"><g transform="translate(0,0)"><path fill-rule="evenodd" d="M9 0L9 1L10 1L10 2L8 2L8 3L9 3L9 4L10 4L10 5L9 5L9 6L8 6L8 8L4 8L4 9L3 9L3 8L0 8L0 9L3 9L3 10L4 10L4 13L3 13L3 12L2 12L2 13L3 13L3 14L5 14L5 15L4 15L4 16L5 16L5 17L7 17L7 16L8 16L8 18L6 18L6 19L5 19L5 18L4 18L4 17L3 17L3 16L2 16L2 15L1 15L1 16L0 16L0 17L1 17L1 16L2 16L2 19L1 19L1 18L0 18L0 19L1 19L1 20L0 20L0 21L1 21L1 20L2 20L2 19L3 19L3 18L4 18L4 20L3 20L3 21L8 21L8 25L9 25L9 26L8 26L8 29L9 29L9 26L10 26L10 28L12 28L12 29L13 29L13 28L12 28L12 27L11 27L11 26L12 26L12 24L14 24L14 26L13 26L13 27L14 27L14 26L15 26L15 25L16 25L16 24L17 24L17 25L18 25L18 24L20 24L20 25L19 25L19 26L18 26L18 27L17 27L17 26L16 26L16 27L15 27L15 28L16 28L16 29L18 29L18 28L19 28L19 26L21 26L21 27L20 27L20 29L23 29L23 28L24 28L24 29L26 29L26 27L27 27L27 29L29 29L29 28L28 28L28 27L29 27L29 25L27 25L27 26L26 26L26 22L27 22L27 24L28 24L28 23L29 23L29 21L26 21L26 22L25 22L25 20L26 20L26 18L27 18L27 20L28 20L28 19L29 19L29 16L28 16L28 15L29 15L29 12L28 12L28 11L29 11L29 9L28 9L28 10L26 10L26 9L27 9L27 8L26 8L26 9L25 9L25 10L24 10L24 9L23 9L23 8L21 8L21 10L20 10L20 11L18 11L18 10L17 10L17 9L19 9L19 8L20 8L20 7L21 7L21 6L20 6L20 5L21 5L21 4L19 4L19 3L20 3L20 2L21 2L21 1L20 1L20 0L19 0L19 3L18 3L18 4L19 4L19 6L18 6L18 7L17 7L17 6L16 6L16 4L17 4L17 3L15 3L15 2L18 2L18 1L16 1L16 0L15 0L15 2L14 2L14 1L13 1L13 0L12 0L12 1L10 1L10 0ZM11 2L11 3L12 3L12 4L11 4L11 5L10 5L10 6L9 6L9 7L10 7L10 6L11 6L11 8L12 8L12 10L10 10L10 8L9 8L9 10L8 10L8 11L6 11L6 12L5 12L5 13L6 13L6 14L7 14L7 15L5 15L5 16L7 16L7 15L8 15L8 14L7 14L7 13L8 13L8 12L9 12L9 19L10 19L10 18L11 18L11 19L12 19L12 20L11 20L11 21L12 21L12 20L13 20L13 21L14 21L14 22L13 22L13 23L14 23L14 22L15 22L15 23L17 23L17 22L18 22L18 23L19 23L19 22L20 22L20 21L19 21L19 22L18 22L18 21L17 21L17 17L16 17L16 11L17 11L17 10L16 10L16 9L17 9L17 7L16 7L16 6L15 6L15 10L14 10L14 9L13 9L13 8L12 8L12 6L13 6L13 7L14 7L14 5L13 5L13 4L14 4L14 2L13 2L13 3L12 3L12 2ZM19 6L19 7L18 7L18 8L19 8L19 7L20 7L20 6ZM5 9L5 10L7 10L7 9ZM1 10L1 11L2 11L2 10ZM9 10L9 11L10 11L10 10ZM22 10L22 11L24 11L24 14L23 14L23 15L22 15L22 12L21 12L21 11L20 11L20 12L18 12L18 13L19 13L19 15L20 15L20 16L18 16L18 17L19 17L19 19L18 19L18 20L19 20L19 19L20 19L20 20L21 20L21 19L20 19L20 18L21 18L21 17L22 17L22 16L23 16L23 17L24 17L24 19L23 19L23 18L22 18L22 19L23 19L23 20L25 20L25 18L26 18L26 17L27 17L27 18L28 18L28 17L27 17L27 14L28 14L28 13L27 13L27 11L26 11L26 10L25 10L25 11L24 11L24 10ZM11 11L11 12L12 12L12 13L11 13L11 14L10 14L10 15L12 15L12 16L10 16L10 17L11 17L11 18L12 18L12 16L14 16L14 17L15 17L15 16L14 16L14 15L15 15L15 14L14 14L14 13L13 13L13 12L15 12L15 11L13 11L13 12L12 12L12 11ZM25 11L25 14L27 14L27 13L26 13L26 11ZM0 12L0 13L1 13L1 12ZM6 12L6 13L7 13L7 12ZM17 14L17 15L18 15L18 14ZM20 14L20 15L21 15L21 16L22 16L22 15L21 15L21 14ZM24 15L24 16L26 16L26 15ZM13 18L13 19L14 19L14 18ZM6 19L6 20L8 20L8 21L9 21L9 20L8 20L8 19ZM15 19L15 20L16 20L16 19ZM21 21L21 24L24 24L24 21ZM22 22L22 23L23 23L23 22ZM10 23L10 24L9 24L9 25L10 25L10 26L11 26L11 24L12 24L12 23ZM22 25L22 28L23 28L23 27L24 27L24 25ZM27 26L27 27L28 27L28 26ZM0 0L7 0L7 7L0 7ZM1 1L1 6L6 6L6 1ZM5 3.5A1.5 1.5 0 0 1 3.5 5A1.5 1.5 0 0 1 2 3.5A1.5 1.5 0 0 1 3.5 2A1.5 1.5 0 0 1 5 3.5ZM22 0L29 0L29 7L22 7ZM23 1L23 6L28 6L28 1ZM27 3.5A1.5 1.5 0 0 1 25.5 5A1.5 1.5 0 0 1 24 3.5A1.5 1.5 0 0 1 25.5 2A1.5 1.5 0 0 1 27 3.5ZM0 22L7 22L7 29L0 29ZM1 23L1 28L6 28L6 23ZM5 25.5A1.5 1.5 0 0 1 3.5 27A1.5 1.5 0 0 1 2 25.5A1.5 1.5 0 0 1 3.5 24A1.5 1.5 0 0 1 5 25.5Z" fill="#000000"/></g></g></svg>
