<?xml version="1.0" encoding="UTF-8"?>
<svg xmlns="http://www.w3.org/2000/svg" version="1.1" width="180" height="180" viewBox="0 0 180 180"><rect x="0" y="0" width="180" height="180" fill="#ffffff"/><g transform="scale(6.207)"><g transform="translate(0,0)"><path fill-rule="evenodd" d="M9 0L9 1L8 1L8 3L9 3L9 4L8 4L8 8L6 8L6 9L7 9L7 10L5 10L5 9L4 9L4 8L3 8L3 10L4 10L4 11L5 11L5 13L4 13L4 12L2 12L2 13L0 13L0 15L1 15L1 16L2 16L2 17L1 17L1 18L0 18L0 19L1 19L1 18L2 18L2 17L3 17L3 19L2 19L2 20L3 20L3 21L8 21L8 23L9 23L9 25L8 25L8 26L9 26L9 25L10 25L10 27L11 27L11 28L10 28L10 29L11 29L11 28L12 28L12 29L14 29L14 28L12 28L12 24L14 24L14 25L13 25L13 27L15 27L15 28L17 28L17 29L18 29L18 28L19 28L19 29L22 29L22 26L23 26L23 28L24 28L24 29L25 29L25 28L26 28L26 26L25 26L25 25L26 25L26 24L28 24L28 22L29 22L29 21L27 21L27 20L29 20L29 17L28 17L28 15L29 15L29 14L27 14L27 13L29 13L29 12L28 12L28 10L29 10L29 9L28 9L28 8L26 8L26 9L25 9L25 8L22 8L22 9L21 9L21 8L20 8L20 9L21 9L21 10L19 10L19 11L18 11L18 10L17 10L17 9L16 9L16 13L17 13L17 14L16 14L16 16L17 16L17 17L18 17L18 18L16 18L16 20L18 20L18 22L16 22L16 23L15 23L15 22L14 22L14 21L15 21L15 20L14 20L14 18L15 18L15 16L14 16L14 14L13 14L13 12L14 12L14 10L15 10L15 9L14 9L14 8L15 8L15 6L16 6L16 8L18 8L18 9L19 9L19 8L18 8L18 7L19 7L19 6L20 6L20 7L21 7L21 4L20 4L20 5L19 5L19 6L18 6L18 5L17 5L17 3L18 3L18 4L19 4L19 3L21 3L21 1L20 1L20 0L19 0L19 1L20 1L20 2L19 2L19 3L18 3L18 1L17 1L17 3L14 3L14 5L15 5L15 6L14 6L14 8L13 8L13 6L12 6L12 5L11 5L11 6L10 6L10 5L9 5L9 4L12 4L12 3L13 3L13 0L12 0L12 1L11 1L11 2L9 2L9 1L10 1L10 0ZM15 0L15 2L16 2L16 0ZM16 5L16 6L17 6L17 7L18 7L18 6L17 6L17 5ZM9 6L9 7L10 7L10 8L8 8L8 9L9 9L9 10L7 10L7 11L6 11L6 12L8 12L8 13L6 13L6 14L5 14L5 17L4 17L4 13L2 13L2 14L1 14L1 15L3 15L3 17L4 17L4 19L3 19L3 20L4 20L4 19L5 19L5 17L6 17L6 18L7 18L7 19L6 19L6 20L7 20L7 19L8 19L8 20L11 20L11 19L12 19L12 20L13 20L13 21L14 21L14 20L13 20L13 18L14 18L14 17L13 17L13 16L12 16L12 14L9 14L9 15L8 15L8 13L12 13L12 12L13 12L13 10L14 10L14 9L13 9L13 8L12 8L12 6L11 6L11 7L10 7L10 6ZM0 8L0 10L1 10L1 11L0 11L0 12L1 12L1 11L2 11L2 10L1 10L1 9L2 9L2 8ZM10 8L10 10L9 10L9 11L8 11L8 12L9 12L9 11L11 11L11 10L12 10L12 9L11 9L11 8ZM24 9L24 10L23 10L23 12L24 12L24 15L22 15L22 14L23 14L23 13L22 13L22 12L18 12L18 11L17 11L17 12L18 12L18 13L20 13L20 14L19 14L19 15L20 15L20 17L19 17L19 16L18 16L18 17L19 17L19 19L18 19L18 20L21 20L21 19L20 19L20 17L23 17L23 18L22 18L22 20L25 20L25 23L27 23L27 22L26 22L26 20L27 20L27 18L28 18L28 17L27 17L27 15L26 15L26 13L27 13L27 12L26 12L26 13L25 13L25 11L24 11L24 10L25 10L25 9ZM26 9L26 10L28 10L28 9ZM6 14L6 15L7 15L7 16L6 16L6 17L7 17L7 18L8 18L8 19L9 19L9 18L10 18L10 19L11 19L11 17L12 17L12 16L11 16L11 15L9 15L9 18L8 18L8 17L7 17L7 16L8 16L8 15L7 15L7 14ZM21 15L21 16L22 16L22 15ZM24 15L24 16L25 16L25 17L26 17L26 15ZM23 18L23 19L24 19L24 18ZM25 18L25 19L26 19L26 18ZM0 20L0 21L1 21L1 20ZM9 21L9 22L11 22L11 21ZM19 21L19 22L18 22L18 23L17 23L17 24L16 24L16 25L15 25L15 27L16 27L16 25L17 25L17 26L19 26L19 28L20 28L20 24L18 24L18 23L20 23L20 21ZM21 21L21 24L24 24L24 21ZM22 22L22 23L23 23L23 22ZM10 23L10 25L11 25L11 23ZM14 23L14 24L15 24L15 23ZM17 24L17 25L18 25L18 24ZM23 25L23 26L24 26L24 25ZM27 25L27 26L28 26L28 27L27 27L27 29L28 29L28 27L29 27L29 26L28 26L28 25ZM8 27L8 29L9 29L9 27ZM0 0L7 0L7 7L0 7ZM1 1L1 6L6 6L6 1ZM5 3.5A1.5 1.5 0 0 1 3.5 5A1.5 1.5 0 0 1 2 3.5A1.5 1.5 0 0 1 3.5 2A1.5 1.5 0 0 1 5 3.5ZM22 0L29 0L29 7L22 7ZM23 1L23 6L28 6L28 1ZM27 3.5A1.5 1.5 0 0 1 25.5 5A1.5 1.5 0 0 1 24 3.5A1.5 1.5 0 0 1 25.5 2A1.5 1.5 0 0 1 27 3.5ZM0 22L7 22L7 29L0 29ZM1 23L1 28L6 28L6 23ZM5 25.5A1.5 1.5 0 0 1 3.5 27A1.5 1.5 0 0 1 2 25.5A1.5 1.5 0 0 1 3.5 24A1.5 1.5 0 0 1 5 25.5Z" fill="#000000"/></g></g></svg>
