<?xml version="1.0" encoding="UTF-8"?>
<svg xmlns="http://www.w3.org/2000/svg" version="1.1" width="130" height="130" viewBox="0 0 130 130"><rect x="0" y="0" width="130" height="130" fill="#ffffff"/><g transform="scale(4.483)"><g transform="translate(0,0)"><path fill-rule="evenodd" d="M9 0L9 1L8 1L8 3L9 3L9 4L8 4L8 8L6 8L6 9L5 9L5 10L2 10L2 12L1 12L1 11L0 11L0 13L1 13L1 16L0 16L0 17L1 17L1 16L3 16L3 15L4 15L4 17L5 17L5 19L2 19L2 21L3 21L3 20L4 20L4 21L7 21L7 20L6 20L6 19L7 19L7 18L8 18L8 17L7 17L7 16L6 16L6 17L5 17L5 15L4 15L4 14L3 14L3 12L4 12L4 13L5 13L5 12L6 12L6 13L7 13L7 14L6 14L6 15L8 15L8 14L9 14L9 16L10 16L10 17L9 17L9 21L8 21L8 23L9 23L9 25L8 25L8 26L9 26L9 27L8 27L8 29L10 29L10 28L12 28L12 26L13 26L13 28L15 28L15 29L16 29L16 27L15 27L15 26L14 26L14 25L17 25L17 26L18 26L18 27L17 27L17 29L18 29L18 28L19 28L19 29L22 29L22 26L23 26L23 28L24 28L24 29L25 29L25 28L26 28L26 26L25 26L25 25L26 25L26 24L27 24L27 23L28 23L28 25L29 25L29 23L28 23L28 22L29 22L29 21L27 21L27 20L29 20L29 17L28 17L28 15L29 15L29 14L27 14L27 13L29 13L29 12L28 12L28 10L29 10L29 9L28 9L28 8L26 8L26 9L25 9L25 8L22 8L22 9L21 9L21 8L20 8L20 9L21 9L21 10L19 10L19 9L17 9L17 8L18 8L18 7L19 7L19 6L20 6L20 7L21 7L21 4L20 4L20 5L19 5L19 6L18 6L18 7L17 7L17 4L15 4L15 2L17 2L17 3L18 3L18 4L19 4L19 3L21 3L21 1L20 1L20 0L18 0L18 1L16 1L16 0L11 0L11 1L10 1L10 0ZM13 1L13 2L12 2L12 3L13 3L13 4L14 4L14 2L15 2L15 1ZM18 1L18 3L19 3L19 2L20 2L20 1ZM9 2L9 3L10 3L10 5L9 5L9 8L8 8L8 9L10 9L10 10L7 10L7 9L6 9L6 10L5 10L5 11L4 11L4 12L5 12L5 11L6 11L6 12L7 12L7 13L10 13L10 14L12 14L12 16L13 16L13 17L14 17L14 18L10 18L10 20L11 20L11 21L9 21L9 22L10 22L10 23L12 23L12 24L11 24L11 25L10 25L10 27L11 27L11 26L12 26L12 25L13 25L13 23L12 23L12 22L13 22L13 20L14 20L14 19L15 19L15 20L17 20L17 21L18 21L18 22L17 22L17 24L18 24L18 26L19 26L19 28L20 28L20 24L18 24L18 22L19 22L19 23L20 23L20 21L19 21L19 20L21 20L21 19L20 19L20 17L23 17L23 18L22 18L22 20L25 20L25 23L27 23L27 22L26 22L26 20L27 20L27 18L28 18L28 17L27 17L27 15L26 15L26 13L27 13L27 12L26 12L26 13L25 13L25 11L24 11L24 10L25 10L25 9L24 9L24 10L23 10L23 12L24 12L24 15L22 15L22 14L23 14L23 13L22 13L22 12L19 12L19 11L16 11L16 9L13 9L13 8L14 8L14 5L13 5L13 8L10 8L10 5L11 5L11 7L12 7L12 5L11 5L11 2ZM15 6L15 8L17 8L17 7L16 7L16 6ZM0 8L0 9L2 9L2 8ZM3 8L3 9L4 9L4 8ZM26 9L26 10L28 10L28 9ZM6 10L6 11L7 11L7 10ZM12 10L12 14L13 14L13 13L14 13L14 15L13 15L13 16L14 16L14 15L15 15L15 13L14 13L14 11L15 11L15 10ZM8 11L8 12L10 12L10 13L11 13L11 11ZM17 12L17 13L18 13L18 12ZM19 13L19 14L20 14L20 13ZM2 14L2 15L3 15L3 14ZM10 15L10 16L11 16L11 15ZM16 15L16 16L15 16L15 18L16 18L16 19L17 19L17 20L18 20L18 19L19 19L19 18L17 18L17 17L18 17L18 16L19 16L19 17L20 17L20 15ZM21 15L21 16L22 16L22 15ZM24 15L24 16L25 16L25 17L26 17L26 15ZM6 17L6 18L7 18L7 17ZM0 18L0 19L1 19L1 18ZM23 18L23 19L24 19L24 18ZM25 18L25 19L26 19L26 18ZM12 19L12 20L13 20L13 19ZM0 20L0 21L1 21L1 20ZM14 21L14 23L15 23L15 24L16 24L16 21ZM21 21L21 24L24 24L24 21ZM22 22L22 23L23 23L23 22ZM23 25L23 26L24 26L24 25ZM28 26L28 27L27 27L27 29L28 29L28 27L29 27L29 26ZM0 0L7 0L7 7L0 7ZM1 1L1 6L6 6L6 1ZM5 3.5A1.5 1.5 0 0 1 3.5 5A1.5 1.5 0 0 1 2 3.5A1.5 1.5 0 0 1 3.5 2A1.5 1.5 0 0 1 5 3.5ZM22 0L29 0L29 7L22 7ZM23 1L23 6L28 6L28 1ZM27 3.5A1.5 1.5 0 0 1 25.5 5A1.5 1.5 0 0 1 24 3.5A1.5 1.5 0 0 1 25.5 2A1.5 1.5 0 0 1 27 3.5ZM0 22L7 22L7 29L0 29ZM1 23L1 28L6 28L6 23ZM5 25.5A1.5 1.5 0 0 1 3.5 27A1.5 1.5 0 0 1 2 25.5A1.5 1.5 0 0 1 3.5 24A1.5 1.5 0 0 1 5 25.5Z" fill="#000000"/></g></g></svg>
