<?xml version="1.0" encoding="UTF-8"?>
<svg xmlns="http://www.w3.org/2000/svg" version="1.1" width="180" height="180" viewBox="0 0 180 180"><rect x="0" y="0" width="180" height="180" fill="#ffffff"/><g transform="scale(6.207)"><g transform="translate(0,0)"><path fill-rule="evenodd" d="M10 0L10 1L9 1L9 2L8 2L8 3L9 3L9 5L10 5L10 7L11 7L11 8L12 8L12 9L11 9L11 10L10 10L10 9L9 9L9 6L8 6L8 8L4 8L4 9L3 9L3 8L0 8L0 14L1 14L1 15L0 15L0 16L1 16L1 18L0 18L0 19L1 19L1 20L0 20L0 21L1 21L1 20L2 20L2 19L1 19L1 18L3 18L3 21L5 21L5 19L4 19L4 18L5 18L5 17L7 17L7 16L5 16L5 13L7 13L7 14L6 14L6 15L7 15L7 14L8 14L8 15L10 15L10 14L12 14L12 12L13 12L13 13L14 13L14 14L15 14L15 11L14 11L14 10L13 10L13 9L14 9L14 7L15 7L15 6L16 6L16 13L17 13L17 14L16 14L16 15L13 15L13 16L12 16L12 15L11 15L11 16L12 16L12 17L11 17L11 18L9 18L9 17L10 17L10 16L9 16L9 17L8 17L8 18L9 18L9 19L8 19L8 20L6 20L6 21L8 21L8 25L10 25L10 26L11 26L11 27L12 27L12 28L10 28L10 27L9 27L9 26L8 26L8 29L9 29L9 28L10 28L10 29L12 29L12 28L14 28L14 29L15 29L15 28L16 28L16 29L18 29L18 28L19 28L19 26L21 26L21 27L20 27L20 29L23 29L23 28L24 28L24 29L26 29L26 27L27 27L27 29L29 29L29 28L28 28L28 27L29 27L29 25L27 25L27 26L26 26L26 22L27 22L27 23L29 23L29 21L26 21L26 22L25 22L25 20L26 20L26 18L27 18L27 20L28 20L28 19L29 19L29 16L28 16L28 15L29 15L29 12L28 12L28 11L29 11L29 9L28 9L28 10L26 10L26 9L27 9L27 8L26 8L26 9L25 9L25 10L24 10L24 9L23 9L23 8L21 8L21 10L20 10L20 11L18 11L18 10L17 10L17 9L19 9L19 8L20 8L20 7L21 7L21 6L20 6L20 5L21 5L21 4L19 4L19 3L20 3L20 2L21 2L21 1L20 1L20 0L19 0L19 3L18 3L18 4L19 4L19 6L18 6L18 7L17 7L17 5L16 5L16 4L17 4L17 2L18 2L18 1L17 1L17 2L16 2L16 0L15 0L15 1L13 1L13 2L15 2L15 3L14 3L14 4L15 4L15 6L14 6L14 5L13 5L13 3L12 3L12 2L11 2L11 3L12 3L12 5L10 5L10 3L9 3L9 2L10 2L10 1L11 1L11 0ZM11 6L11 7L12 7L12 8L13 8L13 7L14 7L14 6L13 6L13 7L12 7L12 6ZM19 6L19 7L18 7L18 8L19 8L19 7L20 7L20 6ZM1 9L1 10L2 10L2 11L1 11L1 14L4 14L4 13L5 13L5 11L6 11L6 12L7 12L7 13L8 13L8 14L10 14L10 12L9 12L9 11L10 11L10 10L9 10L9 9L8 9L8 11L6 11L6 10L7 10L7 9L6 9L6 10L5 10L5 9L4 9L4 10L5 10L5 11L4 11L4 12L2 12L2 11L3 11L3 9ZM22 10L22 11L24 11L24 14L23 14L23 15L22 15L22 12L21 12L21 11L20 11L20 12L18 12L18 13L19 13L19 15L20 15L20 16L18 16L18 17L19 17L19 19L18 19L18 20L19 20L19 19L20 19L20 20L21 20L21 19L20 19L20 18L21 18L21 17L22 17L22 16L23 16L23 17L24 17L24 19L23 19L23 18L22 18L22 19L23 19L23 20L25 20L25 18L26 18L26 17L27 17L27 18L28 18L28 17L27 17L27 14L28 14L28 13L27 13L27 11L26 11L26 10L25 10L25 11L24 11L24 10ZM11 11L11 12L12 12L12 11ZM25 11L25 14L27 14L27 13L26 13L26 11ZM8 12L8 13L9 13L9 12ZM17 14L17 15L16 15L16 16L13 16L13 17L14 17L14 18L15 18L15 19L14 19L14 20L12 20L12 19L10 19L10 20L8 20L8 21L11 21L11 20L12 20L12 22L11 22L11 23L12 23L12 24L11 24L11 25L12 25L12 24L13 24L13 25L14 25L14 26L13 26L13 27L14 27L14 26L15 26L15 27L16 27L16 26L17 26L17 27L18 27L18 26L19 26L19 25L20 25L20 24L18 24L18 25L17 25L17 24L16 24L16 25L15 25L15 23L17 23L17 22L18 22L18 23L19 23L19 22L20 22L20 21L19 21L19 22L18 22L18 21L17 21L17 20L15 20L15 19L17 19L17 15L18 15L18 14ZM20 14L20 15L21 15L21 16L22 16L22 15L21 15L21 14ZM1 15L1 16L2 16L2 17L3 17L3 18L4 18L4 17L5 17L5 16L4 16L4 15ZM24 15L24 16L26 16L26 15ZM6 18L6 19L7 19L7 18ZM14 20L14 21L15 21L15 20ZM21 21L21 24L24 24L24 21ZM13 22L13 23L14 23L14 22ZM22 22L22 23L23 23L23 22ZM22 25L22 28L23 28L23 27L24 27L24 25ZM27 26L27 27L28 27L28 26ZM0 0L7 0L7 7L0 7ZM1 1L1 6L6 6L6 1ZM5 3.5A1.5 1.5 0 0 1 3.5 5A1.5 1.5 0 0 1 2 3.5A1.5 1.5 0 0 1 3.5 2A1.5 1.5 0 0 1 5 3.5ZM22 0L29 0L29 7L22 7ZM23 1L23 6L28 6L28 1ZM27 3.5A1.5 1.5 0 0 1 25.5 5A1.5 1.5 0 0 1 24 3.5A1.5 1.5 0 0 1 25.5 2A1.5 1.5 0 0 1 27 3.5ZM0 22L7 22L7 29L0 29ZM1 23L1 28L6 28L6 23ZM5 25.5A1.5 1.5 0 0 1 3.5 27A1.5 1.5 0 0 1 2 25.5A1.5 1.5 0 0 1 3.5 24A1.5 1.5 0 0 1 5 25.5Z" fill="#000000"/></g></g></svg>
