<?xml version="1.0" encoding="UTF-8"?>
<svg xmlns="http://www.w3.org/2000/svg" version="1.1" width="180" height="180" viewBox="0 0 180 180"><rect x="0" y="0" width="180" height="180" fill="#ffffff"/><g transform="scale(5.455)"><g transform="translate(0,0)"><path fill-rule="evenodd" d="M9 0L9 1L8 1L8 2L9 2L9 3L8 3L8 4L10 4L10 7L11 7L11 4L12 4L12 5L13 5L13 6L12 6L12 9L13 9L13 8L14 8L14 9L15 9L15 8L16 8L16 9L17 9L17 11L16 11L16 10L15 10L15 11L14 11L14 12L15 12L15 13L12 13L12 11L13 11L13 10L11 10L11 11L10 11L10 9L11 9L11 8L6 8L6 9L5 9L5 8L0 8L0 9L2 9L2 11L3 11L3 12L4 12L4 14L6 14L6 15L5 15L5 16L3 16L3 15L2 15L2 14L3 14L3 13L2 13L2 12L1 12L1 13L0 13L0 14L1 14L1 15L0 15L0 16L2 16L2 17L1 17L1 19L0 19L0 25L1 25L1 20L3 20L3 18L4 18L4 17L7 17L7 16L6 16L6 15L7 15L7 14L9 14L9 13L10 13L10 15L8 15L8 18L9 18L9 16L10 16L10 17L11 17L11 16L10 16L10 15L11 15L11 13L12 13L12 14L13 14L13 15L12 15L12 17L13 17L13 16L14 16L14 17L15 17L15 16L16 16L16 15L17 15L17 14L20 14L20 15L21 15L21 16L22 16L22 17L23 17L23 18L24 18L24 17L26 17L26 18L25 18L25 19L24 19L24 21L23 21L23 19L22 19L22 18L21 18L21 17L19 17L19 16L17 16L17 17L16 17L16 18L15 18L15 19L14 19L14 20L15 20L15 19L16 19L16 21L18 21L18 20L20 20L20 21L19 21L19 22L20 22L20 23L21 23L21 24L22 24L22 25L18 25L18 24L19 24L19 23L18 23L18 22L15 22L15 21L12 21L12 19L13 19L13 18L11 18L11 20L9 20L9 19L7 19L7 18L6 18L6 19L4 19L4 20L5 20L5 21L4 21L4 22L3 22L3 21L2 21L2 22L3 22L3 23L2 23L2 24L3 24L3 23L5 23L5 24L4 24L4 25L8 25L8 27L10 27L10 28L11 28L11 29L12 29L12 30L13 30L13 31L12 31L12 33L13 33L13 32L14 32L14 33L18 33L18 32L16 32L16 31L18 31L18 30L20 30L20 31L19 31L19 33L20 33L20 32L22 32L22 33L26 33L26 32L28 32L28 33L29 33L29 32L31 32L31 33L32 33L32 32L31 32L31 30L33 30L33 28L31 28L31 27L32 27L32 26L33 26L33 24L32 24L32 26L30 26L30 25L29 25L29 24L31 24L31 23L32 23L32 22L33 22L33 21L32 21L32 20L31 20L31 19L32 19L32 18L33 18L33 17L32 17L32 16L31 16L31 15L32 15L32 14L33 14L33 13L31 13L31 15L30 15L30 16L31 16L31 19L30 19L30 17L29 17L29 16L28 16L28 15L25 15L25 14L27 14L27 13L30 13L30 12L31 12L31 11L32 11L32 10L33 10L33 9L32 9L32 8L31 8L31 9L30 9L30 8L29 8L29 9L30 9L30 10L29 10L29 11L28 11L28 10L27 10L27 9L28 9L28 8L27 8L27 9L26 9L26 8L25 8L25 6L24 6L24 7L23 7L23 5L24 5L24 4L25 4L25 3L24 3L24 2L21 2L21 1L24 1L24 0L21 0L21 1L20 1L20 0L17 0L17 1L15 1L15 0L13 0L13 1L11 1L11 2L10 2L10 0ZM13 1L13 2L12 2L12 4L14 4L14 5L18 5L18 4L21 4L21 7L22 7L22 8L21 8L21 9L22 9L22 8L23 8L23 9L24 9L24 10L23 10L23 11L22 11L22 12L19 12L19 11L20 11L20 10L18 10L18 11L17 11L17 12L16 12L16 13L15 13L15 14L16 14L16 13L17 13L17 12L18 12L18 13L22 13L22 12L24 12L24 11L25 11L25 10L26 10L26 13L27 13L27 12L28 12L28 11L27 11L27 10L26 10L26 9L24 9L24 8L23 8L23 7L22 7L22 5L23 5L23 3L21 3L21 2L20 2L20 1L18 1L18 2L16 2L16 3L15 3L15 1ZM18 2L18 3L16 3L16 4L18 4L18 3L19 3L19 2ZM10 3L10 4L11 4L11 3ZM8 5L8 7L9 7L9 5ZM19 5L19 7L18 7L18 6L17 6L17 8L18 8L18 9L20 9L20 5ZM13 6L13 7L14 7L14 8L15 8L15 7L16 7L16 6L15 6L15 7L14 7L14 6ZM3 9L3 11L6 11L6 12L5 12L5 13L6 13L6 14L7 14L7 13L8 13L8 12L9 12L9 11L6 11L6 10L9 10L9 9L6 9L6 10L5 10L5 9ZM0 10L0 11L1 11L1 10ZM30 10L30 11L29 11L29 12L30 12L30 11L31 11L31 10ZM6 12L6 13L7 13L7 12ZM10 12L10 13L11 13L11 12ZM1 13L1 14L2 14L2 13ZM24 13L24 14L21 14L21 15L22 15L22 16L25 16L25 15L24 15L24 14L25 14L25 13ZM14 15L14 16L15 16L15 15ZM26 16L26 17L27 17L27 18L29 18L29 17L27 17L27 16ZM2 17L2 18L3 18L3 17ZM18 18L18 19L17 19L17 20L18 20L18 19L20 19L20 20L21 20L21 21L22 21L22 22L21 22L21 23L22 23L22 24L23 24L23 25L24 25L24 24L25 24L25 23L24 23L24 22L26 22L26 21L27 21L27 24L29 24L29 21L30 21L30 23L31 23L31 20L30 20L30 19L28 19L28 20L26 20L26 19L25 19L25 20L26 20L26 21L24 21L24 22L23 22L23 21L22 21L22 20L21 20L21 18ZM6 19L6 20L7 20L7 19ZM8 20L8 21L5 21L5 22L8 22L8 21L9 21L9 22L10 22L10 24L9 24L9 23L8 23L8 25L10 25L10 24L11 24L11 26L13 26L13 27L12 27L12 29L15 29L15 30L16 30L16 29L15 29L15 28L19 28L19 29L20 29L20 28L21 28L21 29L22 29L22 28L21 28L21 27L20 27L20 26L18 26L18 25L17 25L17 24L18 24L18 23L17 23L17 24L16 24L16 23L14 23L14 24L13 24L13 25L12 25L12 23L13 23L13 22L12 22L12 21L9 21L9 20ZM28 20L28 21L29 21L29 20ZM6 23L6 24L7 24L7 23ZM14 24L14 25L15 25L15 24ZM25 25L25 28L28 28L28 25ZM15 26L15 27L14 27L14 28L15 28L15 27L16 27L16 26ZM26 26L26 27L27 27L27 26ZM19 27L19 28L20 28L20 27ZM8 28L8 33L9 33L9 32L10 32L10 31L11 31L11 30L10 30L10 29L9 29L9 28ZM23 28L23 29L24 29L24 28ZM29 28L29 30L27 30L27 29L26 29L26 30L25 30L25 31L22 31L22 32L25 32L25 31L26 31L26 30L27 30L27 31L29 31L29 30L31 30L31 28ZM9 30L9 31L10 31L10 30ZM14 31L14 32L15 32L15 31ZM0 0L7 0L7 7L0 7ZM1 1L1 6L6 6L6 1ZM5 3.5A1.5 1.5 0 0 1 3.5 5A1.5 1.5 0 0 1 2 3.5A1.5 1.5 0 0 1 3.5 2A1.5 1.5 0 0 1 5 3.5ZM26 0L33 0L33 7L26 7ZM27 1L27 6L32 6L32 1ZM31 3.5A1.5 1.5 0 0 1 29.5 5A1.5 1.5 0 0 1 28 3.5A1.5 1.5 0 0 1 29.5 2A1.5 1.5 0 0 1 31 3.5ZM0 26L7 26L7 33L0 33ZM1 27L1 32L6 32L6 27ZM5 29.5A1.5 1.5 0 0 1 3.5 31A1.5 1.5 0 0 1 2 29.5A1.5 1.5 0 0 1 3.5 28A1.5 1.5 0 0 1 5 29.5Z" fill="#000000"/></g></g></svg>
