<?xml version="1.0" encoding="UTF-8"?>
<svg xmlns="http://www.w3.org/2000/svg" version="1.1" width="180" height="180" viewBox="0 0 180 180"><rect x="0" y="0" width="180" height="180" fill="#ffffff"/><g transform="scale(6.207)"><g transform="translate(0,0)"><path fill-rule="evenodd" d="M9 0L9 1L8 1L8 2L9 2L9 3L8 3L8 4L10 4L10 1L14 1L14 0ZM16 0L16 1L15 1L15 2L14 2L14 3L13 3L13 2L12 2L12 3L13 3L13 4L11 4L11 5L10 5L10 7L11 7L11 5L13 5L13 6L12 6L12 7L13 7L13 6L14 6L14 8L13 8L13 9L12 9L12 8L6 8L6 9L9 9L9 11L8 11L8 10L6 10L6 11L3 11L3 9L4 9L4 10L5 10L5 8L0 8L0 9L1 9L1 10L0 10L0 11L1 11L1 10L2 10L2 11L3 11L3 12L4 12L4 15L5 15L5 17L3 17L3 13L0 13L0 14L2 14L2 17L1 17L1 15L0 15L0 21L1 21L1 18L2 18L2 20L3 20L3 21L7 21L7 20L8 20L8 23L9 23L9 22L12 22L12 23L10 23L10 25L9 25L9 24L8 24L8 29L10 29L10 28L11 28L11 27L10 27L10 28L9 28L9 26L12 26L12 25L11 25L11 24L13 24L13 27L12 27L12 28L13 28L13 29L15 29L15 28L16 28L16 27L19 27L19 28L22 28L22 27L23 27L23 26L24 26L24 27L26 27L26 26L24 26L24 25L28 25L28 26L27 26L27 28L24 28L24 29L27 29L27 28L28 28L28 26L29 26L29 25L28 25L28 24L29 24L29 23L28 23L28 24L25 24L25 23L27 23L27 22L29 22L29 20L28 20L28 19L27 19L27 16L28 16L28 15L27 15L27 12L28 12L28 11L27 11L27 12L25 12L25 9L26 9L26 8L25 8L25 9L24 9L24 8L23 8L23 9L22 9L22 8L20 8L20 9L19 9L19 10L17 10L17 9L18 9L18 8L19 8L19 5L20 5L20 3L21 3L21 0L18 0L18 2L19 2L19 5L18 5L18 8L17 8L17 4L18 4L18 3L17 3L17 2L16 2L16 1L17 1L17 0ZM19 1L19 2L20 2L20 1ZM15 3L15 4L13 4L13 5L14 5L14 6L15 6L15 9L14 9L14 10L13 10L13 11L12 11L12 10L11 10L11 9L10 9L10 11L11 11L11 12L10 12L10 13L9 13L9 15L6 15L6 16L9 16L9 17L6 17L6 18L3 18L3 17L2 17L2 18L3 18L3 20L7 20L7 19L8 19L8 20L11 20L11 19L12 19L12 21L13 21L13 24L14 24L14 26L16 26L16 25L17 25L17 26L18 26L18 25L19 25L19 27L20 27L20 23L18 23L18 21L19 21L19 20L21 20L21 19L22 19L22 18L21 18L21 17L20 17L20 16L21 16L21 14L22 14L22 17L23 17L23 18L24 18L24 19L25 19L25 21L26 21L26 20L27 20L27 19L25 19L25 18L24 18L24 17L26 17L26 16L27 16L27 15L26 15L26 13L25 13L25 12L24 12L24 9L23 9L23 12L22 12L22 13L20 13L20 12L21 12L21 11L22 11L22 10L21 10L21 9L20 9L20 10L19 10L19 12L18 12L18 11L15 11L15 10L16 10L16 9L17 9L17 8L16 8L16 6L15 6L15 5L16 5L16 4L17 4L17 3ZM8 5L8 7L9 7L9 5ZM20 6L20 7L21 7L21 6ZM27 8L27 9L28 9L28 10L29 10L29 9L28 9L28 8ZM6 11L6 12L5 12L5 13L6 13L6 14L8 14L8 13L6 13L6 12L7 12L7 11ZM14 11L14 12L12 12L12 13L10 13L10 14L12 14L12 13L14 13L14 15L16 15L16 17L15 17L15 16L13 16L13 15L12 15L12 16L11 16L11 17L9 17L9 18L8 18L8 19L10 19L10 18L12 18L12 17L14 17L14 20L13 20L13 21L15 21L15 19L16 19L16 20L17 20L17 21L16 21L16 22L14 22L14 23L16 23L16 24L17 24L17 25L18 25L18 24L17 24L17 21L18 21L18 20L19 20L19 18L20 18L20 17L18 17L18 16L17 16L17 15L18 15L18 14L20 14L20 13L18 13L18 12L15 12L15 11ZM23 12L23 13L22 13L22 14L23 14L23 13L24 13L24 14L25 14L25 13L24 13L24 12ZM15 13L15 14L16 14L16 13ZM28 13L28 14L29 14L29 13ZM23 15L23 16L24 16L24 15ZM17 17L17 18L16 18L16 19L17 19L17 20L18 20L18 19L17 19L17 18L18 18L18 17ZM28 17L28 18L29 18L29 17ZM6 18L6 19L7 19L7 18ZM21 21L21 24L24 24L24 21ZM22 22L22 23L23 23L23 22ZM22 25L22 26L21 26L21 27L22 27L22 26L23 26L23 25ZM13 27L13 28L14 28L14 27ZM17 28L17 29L18 29L18 28ZM0 0L7 0L7 7L0 7ZM1 1L1 6L6 6L6 1ZM5 3.5A1.5 1.5 0 0 1 3.5 5A1.5 1.5 0 0 1 2 3.5A1.5 1.5 0 0 1 3.5 2A1.5 1.5 0 0 1 5 3.5ZM22 0L29 0L29 7L22 7ZM23 1L23 6L28 6L28 1ZM27 3.5A1.5 1.5 0 0 1 25.5 5A1.5 1.5 0 0 1 24 3.5A1.5 1.5 0 0 1 25.5 2A1.5 1.5 0 0 1 27 3.5ZM0 22L7 22L7 29L0 29ZM1 23L1 28L6 28L6 23ZM5 25.5A1.5 1.5 0 0 1 3.5 27A1.5 1.5 0 0 1 2 25.5A1.5 1.5 0 0 1 3.5 24A1.5 1.5 0 0 1 5 25.5Z" fill="#000000"/></g></g></svg>
