<?xml version="1.0" encoding="UTF-8"?>
<svg xmlns="http://www.w3.org/2000/svg" version="1.1" width="180" height="180" viewBox="0 0 180 180"><rect x="0" y="0" width="180" height="180" fill="#ffffff"/><g transform="scale(5.455)"><g transform="translate(0,0)"><path fill-rule="evenodd" d="M8 0L8 4L10 4L10 3L11 3L11 4L12 4L12 2L11 2L11 0ZM12 0L12 1L13 1L13 2L14 2L14 3L13 3L13 5L11 5L11 6L10 6L10 7L9 7L9 5L8 5L8 7L9 7L9 8L10 8L10 7L11 7L11 6L12 6L12 8L11 8L11 9L9 9L9 10L8 10L8 9L7 9L7 8L4 8L4 10L3 10L3 11L2 11L2 8L0 8L0 9L1 9L1 10L0 10L0 11L1 11L1 15L0 15L0 16L2 16L2 18L3 18L3 21L0 21L0 22L4 22L4 24L3 24L3 25L4 25L4 24L5 24L5 23L7 23L7 24L6 24L6 25L8 25L8 26L10 26L10 28L12 28L12 29L13 29L13 30L15 30L15 31L14 31L14 32L13 32L13 31L12 31L12 32L10 32L10 33L12 33L12 32L13 32L13 33L15 33L15 32L16 32L16 33L18 33L18 32L20 32L20 33L25 33L25 32L26 32L26 33L29 33L29 32L28 32L28 31L29 31L29 26L30 26L30 25L29 25L29 22L30 22L30 23L32 23L32 22L30 22L30 21L29 21L29 20L30 20L30 19L32 19L32 18L30 18L30 17L29 17L29 16L30 16L30 15L32 15L32 14L28 14L28 13L30 13L30 11L32 11L32 10L31 10L31 9L33 9L33 8L29 8L29 9L30 9L30 11L29 11L29 10L28 10L28 8L27 8L27 11L29 11L29 12L28 12L28 13L27 13L27 12L26 12L26 9L25 9L25 8L24 8L24 9L23 9L23 5L24 5L24 4L23 4L23 3L22 3L22 1L24 1L24 0L22 0L22 1L21 1L21 0L20 0L20 1L19 1L19 0L17 0L17 2L16 2L16 3L15 3L15 1L16 1L16 0L15 0L15 1L14 1L14 0ZM18 1L18 3L16 3L16 5L15 5L15 3L14 3L14 6L13 6L13 8L12 8L12 9L11 9L11 10L9 10L9 11L8 11L8 10L7 10L7 9L6 9L6 10L5 10L5 12L4 12L4 11L3 11L3 12L2 12L2 13L5 13L5 12L9 12L9 13L10 13L10 14L9 14L9 15L8 15L8 13L6 13L6 14L7 14L7 15L6 15L6 16L5 16L5 14L2 14L2 15L3 15L3 18L7 18L7 19L6 19L6 20L7 20L7 21L5 21L5 19L4 19L4 21L5 21L5 22L9 22L9 18L8 18L8 16L9 16L9 17L10 17L10 19L11 19L11 18L12 18L12 17L13 17L13 18L15 18L15 17L13 17L13 16L14 16L14 15L15 15L15 14L13 14L13 13L12 13L12 12L13 12L13 11L12 11L12 12L11 12L11 13L10 13L10 11L11 11L11 10L12 10L12 9L13 9L13 10L14 10L14 9L13 9L13 8L15 8L15 7L16 7L16 8L17 8L17 7L18 7L18 6L17 6L17 7L16 7L16 5L18 5L18 3L19 3L19 5L20 5L20 6L19 6L19 8L18 8L18 9L19 9L19 11L20 11L20 10L22 10L22 11L23 11L23 10L22 10L22 9L21 9L21 8L20 8L20 6L21 6L21 7L22 7L22 6L21 6L21 4L22 4L22 5L23 5L23 4L22 4L22 3L21 3L21 1L20 1L20 2L19 2L19 1ZM9 2L9 3L10 3L10 2ZM24 2L24 3L25 3L25 2ZM14 6L14 7L15 7L15 6ZM24 6L24 7L25 7L25 6ZM19 8L19 9L20 9L20 8ZM16 9L16 10L17 10L17 11L16 11L16 12L15 12L15 11L14 11L14 13L17 13L17 11L18 11L18 10L17 10L17 9ZM24 9L24 10L25 10L25 9ZM6 10L6 11L7 11L7 10ZM24 11L24 12L25 12L25 13L24 13L24 15L28 15L28 14L27 14L27 13L26 13L26 12L25 12L25 11ZM18 12L18 13L19 13L19 16L21 16L21 15L22 15L22 13L19 13L19 12ZM31 12L31 13L33 13L33 12ZM10 14L10 15L9 15L9 16L10 16L10 17L12 17L12 16L13 16L13 15L12 15L12 16L10 16L10 15L11 15L11 14ZM16 14L16 15L17 15L17 14ZM20 14L20 15L21 15L21 14ZM6 16L6 17L7 17L7 16ZM16 16L16 17L17 17L17 16ZM25 16L25 17L24 17L24 18L25 18L25 17L26 17L26 18L27 18L27 17L28 17L28 19L30 19L30 18L29 18L29 17L28 17L28 16L27 16L27 17L26 17L26 16ZM32 16L32 17L33 17L33 16ZM0 17L0 19L1 19L1 17ZM19 17L19 19L18 19L18 18L16 18L16 19L14 19L14 21L15 21L15 20L17 20L17 19L18 19L18 21L16 21L16 23L15 23L15 22L13 22L13 21L12 21L12 20L13 20L13 19L12 19L12 20L10 20L10 21L11 21L11 22L10 22L10 23L8 23L8 25L10 25L10 26L12 26L12 25L13 25L13 26L15 26L15 25L13 25L13 24L14 24L14 23L15 23L15 24L16 24L16 26L18 26L18 25L19 25L19 27L20 27L20 29L19 29L19 31L20 31L20 30L22 30L22 31L26 31L26 29L25 29L25 30L22 30L22 29L21 29L21 27L20 27L20 26L22 26L22 28L23 28L23 29L24 29L24 26L22 26L22 25L19 25L19 24L21 24L21 23L22 23L22 22L23 22L23 21L24 21L24 23L25 23L25 21L26 21L26 22L27 22L27 24L28 24L28 22L29 22L29 21L28 21L28 22L27 22L27 21L26 21L26 19L24 19L24 20L23 20L23 19L22 19L22 20L23 20L23 21L21 21L21 17ZM22 17L22 18L23 18L23 17ZM7 19L7 20L8 20L8 19ZM19 19L19 21L20 21L20 19ZM24 20L24 21L25 21L25 20ZM32 20L32 21L33 21L33 20ZM18 22L18 23L17 23L17 25L18 25L18 23L19 23L19 22ZM20 22L20 23L21 23L21 22ZM12 23L12 24L10 24L10 25L12 25L12 24L13 24L13 23ZM0 24L0 25L2 25L2 24ZM23 24L23 25L24 25L24 24ZM31 24L31 28L32 28L32 24ZM25 25L25 28L28 28L28 25ZM26 26L26 27L27 27L27 26ZM8 27L8 29L9 29L9 27ZM12 27L12 28L13 28L13 27ZM14 27L14 29L16 29L16 27ZM10 29L10 31L11 31L11 29ZM27 29L27 31L28 31L28 29ZM16 30L16 31L18 31L18 30ZM8 31L8 33L9 33L9 31ZM32 32L32 33L33 33L33 32ZM0 0L7 0L7 7L0 7ZM1 1L1 6L6 6L6 1ZM5 3.5A1.5 1.5 0 0 1 3.5 5A1.5 1.5 0 0 1 2 3.5A1.5 1.5 0 0 1 3.5 2A1.5 1.5 0 0 1 5 3.5ZM26 0L33 0L33 7L26 7ZM27 1L27 6L32 6L32 1ZM31 3.5A1.5 1.5 0 0 1 29.5 5A1.5 1.5 0 0 1 28 3.5A1.5 1.5 0 0 1 29.5 2A1.5 1.5 0 0 1 31 3.5ZM0 26L7 26L7 33L0 33ZM1 27L1 32L6 32L6 27ZM5 29.5A1.5 1.5 0 0 1 3.5 31A1.5 1.5 0 0 1 2 29.5A1.5 1.5 0 0 1 3.5 28A1.5 1.5 0 0 1 5 29.5Z" fill="#000000"/></g></g></svg>
