<?xml version="1.0" encoding="UTF-8"?>
<svg xmlns="http://www.w3.org/2000/svg" version="1.1" width="180" height="180" viewBox="0 0 180 180"><rect x="0" y="0" width="180" height="180" fill="#ffffff"/><g transform="scale(5.455)"><g transform="translate(0,0)"><path fill-rule="evenodd" d="M9 0L9 1L8 1L8 2L9 2L9 3L8 3L8 4L10 4L10 7L11 7L11 8L6 8L6 9L9 9L9 10L5 10L5 8L0 8L0 10L1 10L1 11L2 11L2 12L4 12L4 13L8 13L8 12L6 12L6 11L9 11L9 13L10 13L10 14L9 14L9 15L8 15L8 14L4 14L4 15L3 15L3 13L1 13L1 14L2 14L2 15L1 15L1 17L0 17L0 18L1 18L1 20L0 20L0 25L1 25L1 21L3 21L3 20L4 20L4 23L3 23L3 22L2 22L2 23L3 23L3 24L2 24L2 25L5 25L5 24L6 24L6 25L7 25L7 24L6 24L6 23L8 23L8 27L9 27L9 28L8 28L8 33L11 33L11 32L12 32L12 33L16 33L16 32L17 32L17 33L18 33L18 32L17 32L17 31L16 31L16 30L18 30L18 31L19 31L19 30L20 30L20 31L21 31L21 32L22 32L22 33L23 33L23 32L24 32L24 33L25 33L25 32L24 32L24 31L27 31L27 32L28 32L28 33L29 33L29 31L30 31L30 32L31 32L31 33L32 33L32 32L31 32L31 31L32 31L32 30L31 30L31 29L30 29L30 28L31 28L31 27L32 27L32 29L33 29L33 27L32 27L32 26L33 26L33 24L32 24L32 26L31 26L31 25L30 25L30 24L31 24L31 23L32 23L32 22L33 22L33 21L32 21L32 20L31 20L31 19L32 19L32 18L33 18L33 17L32 17L32 16L31 16L31 15L32 15L32 14L33 14L33 13L31 13L31 15L30 15L30 13L29 13L29 10L28 10L28 8L27 8L27 9L26 9L26 8L25 8L25 6L24 6L24 8L25 8L25 10L27 10L27 11L28 11L28 12L27 12L27 13L25 13L25 12L26 12L26 11L25 11L25 12L24 12L24 11L21 11L21 10L24 10L24 9L23 9L23 5L24 5L24 4L23 4L23 3L25 3L25 1L24 1L24 2L23 2L23 3L22 3L22 2L21 2L21 1L23 1L23 0L19 0L19 1L15 1L15 0L14 0L14 1L15 1L15 2L14 2L14 3L12 3L12 2L13 2L13 1L11 1L11 2L10 2L10 0ZM19 1L19 3L18 3L18 2L17 2L17 3L18 3L18 4L22 4L22 5L23 5L23 4L22 4L22 3L21 3L21 2L20 2L20 1ZM10 3L10 4L11 4L11 7L12 7L12 6L13 6L13 8L11 8L11 9L10 9L10 11L11 11L11 12L10 12L10 13L11 13L11 12L12 12L12 13L13 13L13 15L12 15L12 14L10 14L10 15L9 15L9 16L8 16L8 15L5 15L5 17L4 17L4 16L3 16L3 17L4 17L4 20L5 20L5 19L6 19L6 20L7 20L7 21L5 21L5 22L7 22L7 21L8 21L8 22L9 22L9 25L10 25L10 23L11 23L11 25L12 25L12 26L11 26L11 28L10 28L10 29L9 29L9 31L13 31L13 32L14 32L14 31L15 31L15 29L14 29L14 30L13 30L13 29L12 29L12 30L10 30L10 29L11 29L11 28L12 28L12 27L13 27L13 28L18 28L18 29L21 29L21 31L22 31L22 29L23 29L23 31L24 31L24 27L23 27L23 26L24 26L24 25L22 25L22 24L23 24L23 23L24 23L24 24L27 24L27 22L25 22L25 21L27 21L27 20L28 20L28 19L26 19L26 18L25 18L25 17L28 17L28 18L29 18L29 17L30 17L30 19L29 19L29 20L30 20L30 21L28 21L28 24L30 24L30 23L29 23L29 22L30 22L30 21L31 21L31 20L30 20L30 19L31 19L31 16L30 16L30 15L29 15L29 13L28 13L28 16L26 16L26 14L25 14L25 16L23 16L23 17L24 17L24 18L21 18L21 19L20 19L20 18L19 18L19 17L17 17L17 16L20 16L20 17L22 17L22 16L20 16L20 15L21 15L21 14L19 14L19 13L18 13L18 14L17 14L17 16L16 16L16 17L15 17L15 18L14 18L14 16L15 16L15 15L14 15L14 14L16 14L16 13L13 13L13 12L14 12L14 11L15 11L15 10L16 10L16 11L17 11L17 12L19 12L19 11L20 11L20 10L18 10L18 11L17 11L17 10L16 10L16 9L17 9L17 8L18 8L18 9L19 9L19 7L20 7L20 6L21 6L21 7L22 7L22 6L21 6L21 5L19 5L19 7L18 7L18 5L17 5L17 4L16 4L16 3L14 3L14 4L13 4L13 5L12 5L12 4L11 4L11 3ZM8 5L8 7L9 7L9 5ZM13 5L13 6L14 6L14 7L15 7L15 6L16 6L16 8L17 8L17 5ZM13 8L13 9L11 9L11 10L14 10L14 9L15 9L15 8ZM20 8L20 9L22 9L22 8ZM29 8L29 9L30 9L30 8ZM31 8L31 10L33 10L33 9L32 9L32 8ZM1 9L1 10L4 10L4 9ZM4 11L4 12L5 12L5 11ZM30 11L30 12L31 12L31 11ZM20 12L20 13L22 13L22 14L23 14L23 15L24 15L24 14L23 14L23 13L22 13L22 12ZM6 16L6 17L8 17L8 18L6 18L6 19L8 19L8 18L9 18L9 19L11 19L11 18L12 18L12 17L13 17L13 16L12 16L12 17L11 17L11 18L9 18L9 17L8 17L8 16ZM28 16L28 17L29 17L29 16ZM16 17L16 18L15 18L15 19L14 19L14 18L13 18L13 19L14 19L14 20L13 20L13 22L12 22L12 21L10 21L10 22L12 22L12 23L14 23L14 24L13 24L13 26L14 26L14 27L18 27L18 28L19 28L19 27L18 27L18 26L19 26L19 22L22 22L22 23L20 23L20 26L21 26L21 27L20 27L20 28L23 28L23 27L22 27L22 25L21 25L21 24L22 24L22 23L23 23L23 22L24 22L24 21L23 21L23 20L22 20L22 19L21 19L21 20L22 20L22 21L19 21L19 20L17 20L17 21L16 21L16 22L14 22L14 21L15 21L15 19L16 19L16 18L17 18L17 17ZM18 18L18 19L19 19L19 18ZM2 19L2 20L3 20L3 19ZM24 19L24 20L25 20L25 19ZM17 21L17 22L19 22L19 21ZM17 23L17 24L18 24L18 23ZM14 25L14 26L16 26L16 25ZM17 25L17 26L18 26L18 25ZM25 25L25 28L28 28L28 25ZM29 25L29 28L30 28L30 27L31 27L31 26L30 26L30 25ZM9 26L9 27L10 27L10 26ZM26 26L26 27L27 27L27 26ZM25 29L25 30L28 30L28 31L29 31L29 30L28 30L28 29ZM30 30L30 31L31 31L31 30ZM19 32L19 33L20 33L20 32ZM0 0L7 0L7 7L0 7ZM1 1L1 6L6 6L6 1ZM5 3.5A1.5 1.5 0 0 1 3.5 5A1.5 1.5 0 0 1 2 3.5A1.5 1.5 0 0 1 3.5 2A1.5 1.5 0 0 1 5 3.5ZM26 0L33 0L33 7L26 7ZM27 1L27 6L32 6L32 1ZM31 3.5A1.5 1.5 0 0 1 29.5 5A1.5 1.5 0 0 1 28 3.5A1.5 1.5 0 0 1 29.5 2A1.5 1.5 0 0 1 31 3.5ZM0 26L7 26L7 33L0 33ZM1 27L1 32L6 32L6 27ZM5 29.5A1.5 1.5 0 0 1 3.5 31A1.5 1.5 0 0 1 2 29.5A1.5 1.5 0 0 1 3.5 28A1.5 1.5 0 0 1 5 29.5Z" fill="#000000"/></g></g></svg>
