<?xml version="1.0" encoding="UTF-8"?>
<svg xmlns="http://www.w3.org/2000/svg" version="1.1" width="180" height="180" viewBox="0 0 180 180"><rect x="0" y="0" width="180" height="180" fill="#ffffff"/><g transform="scale(5.455)"><g transform="translate(0,0)"><path fill-rule="evenodd" d="M8 0L8 1L10 1L10 0ZM13 0L13 1L14 1L14 2L11 2L11 4L10 4L10 3L9 3L9 2L8 2L8 5L9 5L9 6L8 6L8 7L9 7L9 8L8 8L8 9L9 9L9 10L10 10L10 9L9 9L9 8L10 8L10 7L11 7L11 8L12 8L12 7L13 7L13 5L14 5L14 7L15 7L15 5L16 5L16 4L17 4L17 6L16 6L16 8L14 8L14 9L16 9L16 8L17 8L17 10L18 10L18 12L17 12L17 13L16 13L16 12L15 12L15 11L14 11L14 10L13 10L13 11L11 11L11 13L10 13L10 12L9 12L9 11L8 11L8 10L6 10L6 11L8 11L8 12L6 12L6 13L8 13L8 12L9 12L9 15L7 15L7 14L6 14L6 15L5 15L5 16L6 16L6 17L7 17L7 16L9 16L9 20L8 20L8 18L6 18L6 19L5 19L5 21L4 21L4 20L3 20L3 17L4 17L4 18L5 18L5 17L4 17L4 16L3 16L3 17L2 17L2 15L4 15L4 14L3 14L3 13L2 13L2 11L5 11L5 9L4 9L4 8L0 8L0 11L1 11L1 13L0 13L0 14L2 14L2 15L0 15L0 19L2 19L2 20L1 20L1 21L0 21L0 22L1 22L1 21L3 21L3 23L4 23L4 25L5 25L5 24L6 24L6 25L8 25L8 26L10 26L10 30L11 30L11 28L12 28L12 26L14 26L14 28L13 28L13 29L14 29L14 31L17 31L17 33L19 33L19 32L20 32L20 31L23 31L23 33L24 33L24 32L26 32L26 31L27 31L27 30L26 30L26 31L25 31L25 30L24 30L24 29L30 29L30 30L29 30L29 31L28 31L28 32L27 32L27 33L28 33L28 32L29 32L29 31L32 31L32 32L33 32L33 31L32 31L32 29L33 29L33 28L31 28L31 27L30 27L30 26L31 26L31 25L30 25L30 26L29 26L29 24L30 24L30 23L31 23L31 24L32 24L32 25L33 25L33 24L32 24L32 23L33 23L33 21L31 21L31 20L30 20L30 18L31 18L31 19L32 19L32 20L33 20L33 19L32 19L32 18L33 18L33 16L31 16L31 14L32 14L32 13L30 13L30 12L28 12L28 11L27 11L27 9L26 9L26 8L25 8L25 9L26 9L26 10L24 10L24 9L22 9L22 8L19 8L19 6L20 6L20 7L21 7L21 6L22 6L22 7L23 7L23 6L22 6L22 4L21 4L21 5L20 5L20 4L19 4L19 6L18 6L18 3L15 3L15 5L14 5L14 2L15 2L15 0ZM17 0L17 1L16 1L16 2L17 2L17 1L18 1L18 2L19 2L19 3L20 3L20 2L19 2L19 1L20 1L20 0ZM21 0L21 2L22 2L22 1L23 1L23 4L24 4L24 7L25 7L25 1L24 1L24 0ZM12 3L12 5L10 5L10 6L9 6L9 7L10 7L10 6L11 6L11 7L12 7L12 5L13 5L13 3ZM17 6L17 7L18 7L18 6ZM6 8L6 9L7 9L7 8ZM28 8L28 9L30 9L30 11L31 11L31 12L32 12L32 11L33 11L33 8L32 8L32 9L31 9L31 8ZM1 9L1 11L2 11L2 9ZM3 9L3 10L4 10L4 9ZM19 10L19 12L18 12L18 13L17 13L17 14L15 14L15 13L13 13L13 12L12 12L12 14L10 14L10 15L9 15L9 16L10 16L10 18L12 18L12 17L13 17L13 16L14 16L14 17L15 17L15 15L16 15L16 18L17 18L17 17L18 17L18 20L19 20L19 19L21 19L21 20L22 20L22 23L21 23L21 22L19 22L19 21L17 21L17 20L16 20L16 21L15 21L15 23L14 23L14 20L15 20L15 19L14 19L14 18L13 18L13 23L11 23L11 22L12 22L12 21L11 21L11 22L10 22L10 23L9 23L9 22L7 22L7 21L8 21L8 20L7 20L7 19L6 19L6 20L7 20L7 21L5 21L5 22L4 22L4 23L5 23L5 22L7 22L7 23L6 23L6 24L8 24L8 25L9 25L9 24L10 24L10 23L11 23L11 25L10 25L10 26L11 26L11 25L12 25L12 24L13 24L13 23L14 23L14 24L15 24L15 25L16 25L16 26L15 26L15 29L16 29L16 30L17 30L17 29L18 29L18 31L20 31L20 29L21 29L21 30L23 30L23 29L21 29L21 27L23 27L23 26L24 26L24 23L25 23L25 24L26 24L26 23L27 23L27 22L28 22L28 23L30 23L30 22L31 22L31 21L30 21L30 20L29 20L29 19L25 19L25 18L22 18L22 19L21 19L21 18L20 18L20 16L21 16L21 15L18 15L18 14L19 14L19 13L20 13L20 14L22 14L22 10ZM20 11L20 12L21 12L21 11ZM23 11L23 12L26 12L26 15L27 15L27 11ZM4 12L4 13L5 13L5 12ZM23 13L23 15L22 15L22 16L23 16L23 17L25 17L25 14L24 14L24 13ZM28 13L28 14L29 14L29 15L28 15L28 16L27 16L27 17L28 17L28 16L30 16L30 14L29 14L29 13ZM12 14L12 16L11 16L11 17L12 17L12 16L13 16L13 14ZM6 15L6 16L7 16L7 15ZM1 17L1 18L2 18L2 17ZM31 17L31 18L32 18L32 17ZM10 19L10 20L9 20L9 21L10 21L10 20L12 20L12 19ZM22 19L22 20L24 20L24 19ZM27 20L27 21L26 21L26 22L25 22L25 23L26 23L26 22L27 22L27 21L28 21L28 20ZM23 21L23 23L22 23L22 26L23 26L23 23L24 23L24 21ZM29 21L29 22L30 22L30 21ZM16 22L16 23L15 23L15 24L16 24L16 23L17 23L17 22ZM18 22L18 23L19 23L19 24L20 24L20 23L19 23L19 22ZM1 23L1 24L0 24L0 25L1 25L1 24L2 24L2 25L3 25L3 24L2 24L2 23ZM17 24L17 26L16 26L16 27L17 27L17 26L18 26L18 27L19 27L19 28L20 28L20 27L21 27L21 26L20 26L20 25L19 25L19 26L18 26L18 24ZM25 25L25 28L28 28L28 25ZM26 26L26 27L27 27L27 26ZM16 28L16 29L17 29L17 28ZM8 29L8 33L10 33L10 32L11 32L11 31L9 31L9 29ZM12 30L12 31L13 31L13 30ZM13 32L13 33L15 33L15 32ZM21 32L21 33L22 33L22 32ZM30 32L30 33L31 33L31 32ZM0 0L7 0L7 7L0 7ZM1 1L1 6L6 6L6 1ZM5 3.5A1.5 1.5 0 0 1 3.5 5A1.5 1.5 0 0 1 2 3.5A1.5 1.5 0 0 1 3.5 2A1.5 1.5 0 0 1 5 3.5ZM26 0L33 0L33 7L26 7ZM27 1L27 6L32 6L32 1ZM31 3.5A1.5 1.5 0 0 1 29.5 5A1.5 1.5 0 0 1 28 3.5A1.5 1.5 0 0 1 29.5 2A1.5 1.5 0 0 1 31 3.5ZM0 26L7 26L7 33L0 33ZM1 27L1 32L6 32L6 27ZM5 29.5A1.5 1.5 0 0 1 3.5 31A1.5 1.5 0 0 1 2 29.5A1.5 1.5 0 0 1 3.5 28A1.5 1.5 0 0 1 5 29.5Z" fill="#000000"/></g></g></svg>
