<?xml version="1.0" encoding="UTF-8"?>
<svg xmlns="http://www.w3.org/2000/svg" version="1.1" width="180" height="180" viewBox="0 0 180 180"><rect x="0" y="0" width="180" height="180" fill="#ffffff"/><g transform="scale(5.455)"><g transform="translate(0,0)"><path fill-rule="evenodd" d="M9 0L9 1L10 1L10 2L8 2L8 3L9 3L9 4L10 4L10 5L9 5L9 6L8 6L8 8L4 8L4 9L3 9L3 8L0 8L0 9L2 9L2 10L0 10L0 11L2 11L2 13L3 13L3 15L1 15L1 13L0 13L0 15L1 15L1 16L0 16L0 17L1 17L1 16L3 16L3 17L2 17L2 19L3 19L3 18L5 18L5 17L4 17L4 16L5 16L5 15L7 15L7 16L6 16L6 17L7 17L7 18L6 18L6 19L8 19L8 23L7 23L7 22L6 22L6 21L7 21L7 20L6 20L6 21L5 21L5 22L4 22L4 20L5 20L5 19L4 19L4 20L2 20L2 21L1 21L1 18L0 18L0 21L1 21L1 22L0 22L0 23L1 23L1 24L0 24L0 25L1 25L1 24L3 24L3 25L4 25L4 23L5 23L5 22L6 22L6 23L7 23L7 24L6 24L6 25L7 25L7 24L8 24L8 29L9 29L9 30L8 30L8 33L9 33L9 32L10 32L10 29L11 29L11 31L12 31L12 32L11 32L11 33L12 33L12 32L14 32L14 33L15 33L15 32L16 32L16 31L15 31L15 30L14 30L14 29L13 29L13 28L12 28L12 27L11 27L11 26L12 26L12 24L14 24L14 26L13 26L13 27L14 27L14 26L15 26L15 25L17 25L17 26L16 26L16 27L17 27L17 29L16 29L16 30L17 30L17 33L18 33L18 32L19 32L19 33L22 33L22 31L20 31L20 32L19 32L19 31L18 31L18 30L17 30L17 29L19 29L19 27L17 27L17 26L18 26L18 22L19 22L19 21L18 21L18 18L17 18L17 17L19 17L19 16L20 16L20 19L21 19L21 21L20 21L20 22L21 22L21 24L20 24L20 23L19 23L19 24L20 24L20 26L23 26L23 27L21 27L21 29L20 29L20 30L23 30L23 33L28 33L28 32L29 32L29 31L31 31L31 33L33 33L33 32L32 32L32 31L33 31L33 29L32 29L32 31L31 31L31 29L29 29L29 27L32 27L32 28L33 28L33 25L30 25L30 26L29 26L29 24L27 24L27 23L30 23L30 22L31 22L31 24L32 24L32 23L33 23L33 20L32 20L32 19L33 19L33 16L32 16L32 15L33 15L33 12L32 12L32 11L33 11L33 9L32 9L32 10L31 10L31 12L32 12L32 14L31 14L31 13L30 13L30 9L31 9L31 8L30 8L30 9L29 9L29 10L28 10L28 12L29 12L29 14L27 14L27 12L24 12L24 11L23 11L23 13L22 13L22 11L20 11L20 14L21 14L21 16L20 16L20 15L17 15L17 16L16 16L16 15L15 15L15 14L14 14L14 13L13 13L13 12L12 12L12 11L11 11L11 12L12 12L12 13L11 13L11 14L10 14L10 13L9 13L9 16L8 16L8 12L9 12L9 11L10 11L10 10L12 10L12 8L14 8L14 10L13 10L13 11L14 11L14 10L15 10L15 9L16 9L16 8L17 8L17 9L18 9L18 8L21 8L21 9L20 9L20 10L23 10L23 9L22 9L22 7L23 7L23 6L24 6L24 7L25 7L25 5L24 5L24 4L21 4L21 5L20 5L20 3L21 3L21 0L16 0L16 1L15 1L15 0L12 0L12 1L10 1L10 0ZM23 0L23 3L24 3L24 2L25 2L25 1L24 1L24 0ZM13 1L13 2L14 2L14 1ZM16 1L16 3L17 3L17 7L18 7L18 6L19 6L19 7L20 7L20 6L19 6L19 5L18 5L18 1ZM11 2L11 3L12 3L12 4L11 4L11 5L10 5L10 6L9 6L9 7L10 7L10 6L11 6L11 8L12 8L12 6L13 6L13 7L14 7L14 6L15 6L15 7L16 7L16 6L15 6L15 5L14 5L14 4L13 4L13 3L12 3L12 2ZM19 2L19 3L20 3L20 2ZM13 5L13 6L14 6L14 5ZM21 5L21 7L22 7L22 5ZM9 8L9 10L10 10L10 8ZM24 8L24 10L25 10L25 11L27 11L27 8ZM6 9L6 10L5 10L5 11L6 11L6 12L5 12L5 14L4 14L4 15L5 15L5 14L7 14L7 13L6 13L6 12L7 12L7 11L8 11L8 9ZM2 10L2 11L3 11L3 13L4 13L4 10ZM6 10L6 11L7 11L7 10ZM16 10L16 11L15 11L15 12L16 12L16 14L17 14L17 13L18 13L18 12L19 12L19 11L18 11L18 10ZM23 13L23 15L22 15L22 17L21 17L21 19L22 19L22 18L23 18L23 19L24 19L24 20L22 20L22 22L23 22L23 23L22 23L22 25L23 25L23 26L24 26L24 24L23 24L23 23L24 23L24 20L25 20L25 18L24 18L24 17L23 17L23 15L24 15L24 13ZM25 13L25 16L26 16L26 13ZM13 14L13 15L14 15L14 14ZM29 14L29 15L28 15L28 16L27 16L27 18L26 18L26 19L28 19L28 21L27 21L27 22L26 22L26 23L25 23L25 24L26 24L26 23L27 23L27 22L30 22L30 21L31 21L31 22L32 22L32 21L31 21L31 18L32 18L32 17L31 17L31 14ZM10 15L10 16L9 16L9 17L8 17L8 18L9 18L9 19L12 19L12 20L11 20L11 21L10 21L10 20L9 20L9 21L10 21L10 22L9 22L9 23L8 23L8 24L9 24L9 25L10 25L10 26L9 26L9 27L10 27L10 26L11 26L11 25L10 25L10 22L11 22L11 21L12 21L12 20L13 20L13 21L14 21L14 22L13 22L13 23L14 23L14 22L15 22L15 24L16 24L16 23L17 23L17 20L16 20L16 19L17 19L17 18L16 18L16 17L15 17L15 18L14 18L14 16L12 16L12 15ZM29 15L29 16L30 16L30 15ZM11 16L11 17L10 17L10 18L12 18L12 16ZM30 17L30 18L29 18L29 20L30 20L30 18L31 18L31 17ZM13 18L13 19L14 19L14 18ZM15 20L15 21L16 21L16 20ZM2 21L2 22L1 22L1 23L4 23L4 22L3 22L3 21ZM11 23L11 24L12 24L12 23ZM25 25L25 28L28 28L28 25ZM26 26L26 27L27 27L27 26ZM23 27L23 28L22 28L22 29L23 29L23 30L25 30L25 32L26 32L26 31L27 31L27 29L24 29L24 27ZM9 28L9 29L10 29L10 28ZM11 28L11 29L12 29L12 28ZM13 30L13 31L14 31L14 30ZM0 0L7 0L7 7L0 7ZM1 1L1 6L6 6L6 1ZM5 3.5A1.5 1.5 0 0 1 3.5 5A1.5 1.5 0 0 1 2 3.5A1.5 1.5 0 0 1 3.5 2A1.5 1.5 0 0 1 5 3.5ZM26 0L33 0L33 7L26 7ZM27 1L27 6L32 6L32 1ZM31 3.5A1.5 1.5 0 0 1 29.5 5A1.5 1.5 0 0 1 28 3.5A1.5 1.5 0 0 1 29.5 2A1.5 1.5 0 0 1 31 3.5ZM0 26L7 26L7 33L0 33ZM1 27L1 32L6 32L6 27ZM5 29.5A1.5 1.5 0 0 1 3.5 31A1.5 1.5 0 0 1 2 29.5A1.5 1.5 0 0 1 3.5 28A1.5 1.5 0 0 1 5 29.5Z" fill="#000000"/></g></g></svg>
