<?xml version="1.0" encoding="UTF-8"?>
<svg xmlns="http://www.w3.org/2000/svg" version="1.1" width="180" height="180" viewBox="0 0 180 180"><rect x="0" y="0" width="180" height="180" fill="#ffffff"/><g transform="scale(5.455)"><g transform="translate(0,0)"><path fill-rule="evenodd" d="M9 0L9 1L11 1L11 2L9 2L9 3L8 3L8 5L9 5L9 6L8 6L8 7L9 7L9 9L8 9L8 8L5 8L5 9L8 9L8 10L4 10L4 11L3 11L3 9L2 9L2 8L0 8L0 10L1 10L1 11L0 11L0 13L1 13L1 11L3 11L3 12L2 12L2 14L0 14L0 16L1 16L1 18L0 18L0 25L3 25L3 24L1 24L1 22L2 22L2 21L3 21L3 20L4 20L4 22L3 22L3 23L4 23L4 22L5 22L5 21L7 21L7 22L6 22L6 23L5 23L5 24L4 24L4 25L5 25L5 24L6 24L6 25L8 25L8 28L9 28L9 27L11 27L11 28L10 28L10 30L9 30L9 31L8 31L8 33L10 33L10 32L11 32L11 31L12 31L12 33L13 33L13 32L14 32L14 33L18 33L18 32L14 32L14 31L12 31L12 30L15 30L15 31L16 31L16 30L19 30L19 33L20 33L20 32L21 32L21 31L22 31L22 30L24 30L24 31L25 31L25 32L22 32L22 33L26 33L26 32L27 32L27 31L26 31L26 29L28 29L28 33L29 33L29 32L31 32L31 33L32 33L32 32L31 32L31 31L33 31L33 27L32 27L32 26L33 26L33 25L32 25L32 24L31 24L31 23L32 23L32 20L31 20L31 19L30 19L30 20L31 20L31 23L30 23L30 21L29 21L29 20L28 20L28 21L27 21L27 22L24 22L24 21L26 21L26 20L27 20L27 19L28 19L28 17L29 17L29 18L30 18L30 17L29 17L29 15L28 15L28 16L27 16L27 17L26 17L26 15L25 15L25 14L28 14L28 12L29 12L29 11L30 11L30 12L31 12L31 15L30 15L30 16L31 16L31 18L32 18L32 19L33 19L33 17L32 17L32 16L33 16L33 15L32 15L32 14L33 14L33 12L31 12L31 11L32 11L32 9L30 9L30 8L28 8L28 9L27 9L27 12L26 12L26 10L25 10L25 11L24 11L24 13L22 13L22 14L24 14L24 15L25 15L25 16L23 16L23 15L22 15L22 17L19 17L19 16L17 16L17 14L20 14L20 16L21 16L21 11L23 11L23 10L24 10L24 9L25 9L25 6L24 6L24 7L23 7L23 5L24 5L24 4L25 4L25 3L24 3L24 2L22 2L22 0L20 0L20 2L21 2L21 3L20 3L20 4L18 4L18 3L19 3L19 2L18 2L18 1L19 1L19 0L18 0L18 1L17 1L17 0L16 0L16 2L18 2L18 3L17 3L17 4L18 4L18 5L16 5L16 9L15 9L15 8L14 8L14 7L15 7L15 5L14 5L14 4L15 4L15 2L14 2L14 4L12 4L12 2L13 2L13 1L14 1L14 0L13 0L13 1L12 1L12 0ZM9 3L9 5L10 5L10 3ZM11 4L11 7L10 7L10 6L9 6L9 7L10 7L10 8L11 8L11 10L10 10L10 9L9 9L9 10L10 10L10 11L8 11L8 12L7 12L7 11L4 11L4 12L3 12L3 13L4 13L4 12L7 12L7 13L5 13L5 14L4 14L4 16L5 16L5 17L6 17L6 18L3 18L3 14L2 14L2 15L1 15L1 16L2 16L2 18L1 18L1 19L2 19L2 18L3 18L3 19L6 19L6 20L7 20L7 21L8 21L8 22L10 22L10 21L11 21L11 24L12 24L12 23L13 23L13 22L12 22L12 21L14 21L14 22L15 22L15 21L16 21L16 20L14 20L14 19L12 19L12 18L15 18L15 17L17 17L17 16L16 16L16 15L15 15L15 17L14 17L14 16L13 16L13 17L12 17L12 15L13 15L13 14L12 14L12 13L13 13L13 12L14 12L14 11L15 11L15 12L16 12L16 11L17 11L17 13L19 13L19 11L20 11L20 10L23 10L23 9L24 9L24 8L23 8L23 7L22 7L22 6L21 6L21 9L20 9L20 5L19 5L19 7L18 7L18 6L17 6L17 8L18 8L18 9L20 9L20 10L18 10L18 11L17 11L17 10L16 10L16 11L15 11L15 10L14 10L14 8L13 8L13 9L12 9L12 6L13 6L13 7L14 7L14 6L13 6L13 5L12 5L12 4ZM21 4L21 5L23 5L23 4ZM22 8L22 9L23 9L23 8ZM1 9L1 10L2 10L2 9ZM29 9L29 10L28 10L28 11L29 11L29 10L30 10L30 11L31 11L31 10L30 10L30 9ZM11 10L11 11L10 11L10 12L9 12L9 13L8 13L8 14L9 14L9 15L7 15L7 14L6 14L6 15L7 15L7 16L6 16L6 17L8 17L8 19L7 19L7 18L6 18L6 19L7 19L7 20L8 20L8 21L9 21L9 20L10 20L10 19L11 19L11 21L12 21L12 19L11 19L11 17L10 17L10 16L9 16L9 15L11 15L11 12L12 12L12 11L13 11L13 10ZM25 12L25 13L24 13L24 14L25 14L25 13L26 13L26 12ZM9 13L9 14L10 14L10 13ZM31 15L31 16L32 16L32 15ZM9 17L9 18L10 18L10 17ZM22 17L22 18L23 18L23 17ZM24 17L24 19L23 19L23 21L24 21L24 19L25 19L25 20L26 20L26 19L27 19L27 18L26 18L26 17ZM16 18L16 19L17 19L17 20L18 20L18 21L17 21L17 22L18 22L18 23L17 23L17 25L16 25L16 24L15 24L15 23L14 23L14 25L10 25L10 24L9 24L9 26L13 26L13 27L12 27L12 29L11 29L11 30L10 30L10 31L11 31L11 30L12 30L12 29L15 29L15 25L16 25L16 27L17 27L17 28L19 28L19 29L20 29L20 28L19 28L19 27L20 27L20 26L18 26L18 25L19 25L19 24L21 24L21 26L22 26L22 25L23 25L23 24L25 24L25 23L24 23L24 22L22 22L22 19L20 19L20 20L18 20L18 19L19 19L19 18ZM8 19L8 20L9 20L9 19ZM20 20L20 21L19 21L19 22L20 22L20 23L21 23L21 22L20 22L20 21L21 21L21 20ZM27 22L27 23L28 23L28 24L29 24L29 22ZM6 23L6 24L8 24L8 23ZM18 23L18 24L19 24L19 23ZM30 24L30 26L32 26L32 25L31 25L31 24ZM25 25L25 28L28 28L28 25ZM26 26L26 27L27 27L27 26ZM21 27L21 30L20 30L20 31L21 31L21 30L22 30L22 28L23 28L23 29L24 29L24 28L23 28L23 27ZM31 27L31 28L29 28L29 31L30 31L30 30L31 30L31 28L32 28L32 27ZM0 0L7 0L7 7L0 7ZM1 1L1 6L6 6L6 1ZM5 3.5A1.5 1.5 0 0 1 3.5 5A1.5 1.5 0 0 1 2 3.5A1.5 1.5 0 0 1 3.5 2A1.5 1.5 0 0 1 5 3.5ZM26 0L33 0L33 7L26 7ZM27 1L27 6L32 6L32 1ZM31 3.5A1.5 1.5 0 0 1 29.5 5A1.5 1.5 0 0 1 28 3.5A1.5 1.5 0 0 1 29.5 2A1.5 1.5 0 0 1 31 3.5ZM0 26L7 26L7 33L0 33ZM1 27L1 32L6 32L6 27ZM5 29.5A1.5 1.5 0 0 1 3.5 31A1.5 1.5 0 0 1 2 29.5A1.5 1.5 0 0 1 3.5 28A1.5 1.5 0 0 1 5 29.5Z" fill="#000000"/></g></g></svg>
