<?xml version="1.0" encoding="UTF-8"?>
<svg xmlns="http://www.w3.org/2000/svg" version="1.1" width="180" height="180" viewBox="0 0 180 180"><rect x="0" y="0" width="180" height="180" fill="#ffffff"/><g transform="scale(5.455)"><g transform="translate(0,0)"><path fill-rule="evenodd" d="M10 0L10 2L11 2L11 0ZM12 0L12 1L13 1L13 0ZM14 0L14 1L15 1L15 2L14 2L14 3L13 3L13 2L12 2L12 4L14 4L14 5L15 5L15 6L14 6L14 7L15 7L15 8L16 8L16 9L17 9L17 11L16 11L16 10L15 10L15 9L14 9L14 8L13 8L13 9L12 9L12 7L13 7L13 5L11 5L11 6L10 6L10 4L11 4L11 3L8 3L8 4L9 4L9 5L8 5L8 7L9 7L9 8L6 8L6 9L7 9L7 10L5 10L5 11L4 11L4 12L3 12L3 11L0 11L0 12L1 12L1 13L0 13L0 17L2 17L2 18L3 18L3 16L2 16L2 15L4 15L4 18L6 18L6 19L4 19L4 20L6 20L6 21L7 21L7 22L5 22L5 21L4 21L4 22L3 22L3 21L0 21L0 25L1 25L1 22L3 22L3 23L4 23L4 24L2 24L2 25L5 25L5 24L6 24L6 25L8 25L8 27L9 27L9 28L8 28L8 33L10 33L10 32L11 32L11 33L12 33L12 32L11 32L11 29L10 29L10 30L9 30L9 28L10 28L10 27L11 27L11 28L12 28L12 29L13 29L13 31L14 31L14 32L13 32L13 33L14 33L14 32L15 32L15 33L18 33L18 32L16 32L16 31L18 31L18 30L20 30L20 31L19 31L19 33L20 33L20 32L22 32L22 33L26 33L26 32L28 32L28 33L29 33L29 32L31 32L31 33L32 33L32 32L31 32L31 31L32 31L32 30L29 30L29 28L31 28L31 29L32 29L32 26L33 26L33 24L32 24L32 26L30 26L30 25L29 25L29 24L31 24L31 23L32 23L32 22L33 22L33 21L32 21L32 20L31 20L31 19L32 19L32 18L33 18L33 17L32 17L32 16L31 16L31 15L32 15L32 14L33 14L33 13L31 13L31 15L30 15L30 16L31 16L31 19L30 19L30 17L29 17L29 16L28 16L28 15L25 15L25 14L27 14L27 13L30 13L30 12L31 12L31 11L32 11L32 10L33 10L33 9L32 9L32 8L31 8L31 9L30 9L30 8L29 8L29 9L30 9L30 10L29 10L29 11L28 11L28 10L27 10L27 9L28 9L28 8L27 8L27 9L26 9L26 8L25 8L25 6L24 6L24 7L23 7L23 5L24 5L24 4L25 4L25 3L24 3L24 2L21 2L21 1L24 1L24 0L21 0L21 1L20 1L20 0L17 0L17 1L15 1L15 0ZM8 1L8 2L9 2L9 1ZM18 1L18 2L16 2L16 3L18 3L18 4L15 4L15 3L14 3L14 4L15 4L15 5L18 5L18 4L21 4L21 7L22 7L22 8L21 8L21 9L22 9L22 8L23 8L23 9L24 9L24 10L23 10L23 11L22 11L22 12L19 12L19 11L20 11L20 10L18 10L18 11L17 11L17 12L16 12L16 13L12 13L12 11L13 11L13 12L14 12L14 11L13 11L13 10L12 10L12 9L11 9L11 8L10 8L10 9L9 9L9 10L7 10L7 11L6 11L6 12L7 12L7 11L8 11L8 13L5 13L5 14L4 14L4 15L6 15L6 16L7 16L7 15L6 15L6 14L9 14L9 15L8 15L8 17L10 17L10 18L9 18L9 19L6 19L6 20L7 20L7 21L8 21L8 23L11 23L11 22L13 22L13 23L12 23L12 24L14 24L14 21L12 21L12 19L13 19L13 20L15 20L15 22L18 22L18 23L17 23L17 24L16 24L16 23L15 23L15 26L14 26L14 25L13 25L13 28L19 28L19 29L20 29L20 28L21 28L21 29L22 29L22 28L21 28L21 27L20 27L20 26L18 26L18 25L22 25L22 24L23 24L23 25L24 25L24 24L25 24L25 23L24 23L24 22L26 22L26 21L27 21L27 24L29 24L29 21L30 21L30 23L31 23L31 20L30 20L30 19L28 19L28 20L26 20L26 19L25 19L25 18L26 18L26 17L27 17L27 18L29 18L29 17L27 17L27 16L26 16L26 17L24 17L24 18L23 18L23 17L22 17L22 16L25 16L25 15L24 15L24 14L25 14L25 13L24 13L24 14L21 14L21 15L20 15L20 14L17 14L17 15L16 15L16 16L15 16L15 18L14 18L14 17L13 17L13 16L14 16L14 15L12 15L12 17L11 17L11 16L9 16L9 15L10 15L10 14L16 14L16 13L17 13L17 12L18 12L18 13L22 13L22 12L24 12L24 11L25 11L25 10L26 10L26 13L27 13L27 12L28 12L28 11L27 11L27 10L26 10L26 9L24 9L24 8L23 8L23 7L22 7L22 5L23 5L23 3L21 3L21 2L20 2L20 1ZM18 2L18 3L19 3L19 2ZM19 5L19 7L18 7L18 6L17 6L17 8L18 8L18 9L20 9L20 5ZM9 6L9 7L10 7L10 6ZM11 6L11 7L12 7L12 6ZM15 6L15 7L16 7L16 6ZM0 8L0 9L1 9L1 10L2 10L2 9L3 9L3 10L4 10L4 9L5 9L5 8ZM10 9L10 11L11 11L11 9ZM30 10L30 11L29 11L29 12L30 12L30 11L31 11L31 10ZM9 12L9 14L10 14L10 13L11 13L11 12ZM1 13L1 14L2 14L2 13ZM21 15L21 16L22 16L22 15ZM17 16L17 17L16 17L16 18L15 18L15 19L16 19L16 21L18 21L18 20L20 20L20 21L19 21L19 22L20 22L20 23L21 23L21 24L22 24L22 23L21 23L21 22L22 22L22 21L23 21L23 22L24 22L24 21L26 21L26 20L25 20L25 19L24 19L24 21L23 21L23 19L22 19L22 18L21 18L21 17L19 17L19 16ZM6 17L6 18L7 18L7 17ZM12 17L12 18L13 18L13 19L14 19L14 18L13 18L13 17ZM0 18L0 20L1 20L1 18ZM10 18L10 19L9 19L9 22L10 22L10 20L11 20L11 18ZM18 18L18 19L17 19L17 20L18 20L18 19L20 19L20 20L21 20L21 21L22 21L22 20L21 20L21 18ZM2 19L2 20L3 20L3 19ZM28 20L28 21L29 21L29 20ZM6 23L6 24L7 24L7 23ZM18 23L18 24L17 24L17 25L18 25L18 24L19 24L19 23ZM8 24L8 25L11 25L11 27L12 27L12 25L11 25L11 24ZM25 25L25 28L28 28L28 25ZM15 26L15 27L16 27L16 26ZM26 26L26 27L27 27L27 26ZM19 27L19 28L20 28L20 27ZM23 28L23 29L24 29L24 28ZM14 29L14 30L16 30L16 29ZM26 29L26 30L25 30L25 31L22 31L22 32L25 32L25 31L26 31L26 30L27 30L27 31L29 31L29 30L27 30L27 29ZM9 31L9 32L10 32L10 31ZM0 0L7 0L7 7L0 7ZM1 1L1 6L6 6L6 1ZM5 3.5A1.5 1.5 0 0 1 3.5 5A1.5 1.5 0 0 1 2 3.5A1.5 1.5 0 0 1 3.5 2A1.5 1.5 0 0 1 5 3.5ZM26 0L33 0L33 7L26 7ZM27 1L27 6L32 6L32 1ZM31 3.5A1.5 1.5 0 0 1 29.5 5A1.5 1.5 0 0 1 28 3.5A1.5 1.5 0 0 1 29.5 2A1.5 1.5 0 0 1 31 3.5ZM0 26L7 26L7 33L0 33ZM1 27L1 32L6 32L6 27ZM5 29.5A1.5 1.5 0 0 1 3.5 31A1.5 1.5 0 0 1 2 29.5A1.5 1.5 0 0 1 3.5 28A1.5 1.5 0 0 1 5 29.5Z" fill="#000000"/></g></g></svg>
