<?xml version="1.0" encoding="UTF-8"?>
<svg xmlns="http://www.w3.org/2000/svg" version="1.1" width="180" height="180" viewBox="0 0 180 180"><rect x="0" y="0" width="180" height="180" fill="#ffffff"/><g transform="scale(6.207)"><g transform="translate(0,0)"><path fill-rule="evenodd" d="M9 0L9 1L8 1L8 2L9 2L9 3L8 3L8 4L10 4L10 7L11 7L11 4L12 4L12 5L13 5L13 4L14 4L14 5L15 5L15 6L14 6L14 7L15 7L15 6L16 6L16 8L13 8L13 6L12 6L12 9L13 9L13 10L11 10L11 11L10 11L10 9L11 9L11 8L6 8L6 9L7 9L7 10L6 10L6 11L3 11L3 12L4 12L4 13L5 13L5 12L6 12L6 13L8 13L8 10L9 10L9 13L10 13L10 15L9 15L9 14L8 14L8 16L6 16L6 15L7 15L7 14L5 14L5 15L3 15L3 16L2 16L2 15L1 15L1 16L2 16L2 17L0 17L0 21L1 21L1 18L2 18L2 19L3 19L3 20L2 20L2 21L3 21L3 20L4 20L4 19L3 19L3 18L4 18L4 17L3 17L3 16L5 16L5 19L8 19L8 20L10 20L10 21L8 21L8 23L10 23L10 26L9 26L9 24L8 24L8 29L12 29L12 27L13 27L13 26L11 26L11 23L10 23L10 21L12 21L12 22L13 22L13 23L12 23L12 25L13 25L13 24L14 24L14 25L15 25L15 24L16 24L16 25L17 25L17 26L18 26L18 27L19 27L19 28L22 28L22 27L23 27L23 26L24 26L24 27L26 27L26 26L24 26L24 25L27 25L27 28L24 28L24 29L27 29L27 28L28 28L28 26L29 26L29 24L25 24L25 23L27 23L27 22L29 22L29 20L28 20L28 19L27 19L27 16L28 16L28 15L27 15L27 12L28 12L28 11L27 11L27 12L25 12L25 9L26 9L26 8L25 8L25 9L24 9L24 8L23 8L23 9L22 9L22 8L20 8L20 9L19 9L19 5L20 5L20 3L21 3L21 0L19 0L19 1L18 1L18 2L19 2L19 5L17 5L17 4L18 4L18 3L15 3L15 2L16 2L16 1L17 1L17 0L16 0L16 1L15 1L15 0L14 0L14 3L13 3L13 4L12 4L12 2L13 2L13 1L11 1L11 2L10 2L10 0ZM19 1L19 2L20 2L20 1ZM10 3L10 4L11 4L11 3ZM15 4L15 5L16 5L16 4ZM8 5L8 7L9 7L9 5ZM17 6L17 8L16 8L16 9L14 9L14 10L16 10L16 11L15 11L15 12L14 12L14 11L12 11L12 13L11 13L11 12L10 12L10 13L11 13L11 16L8 16L8 17L6 17L6 18L9 18L9 19L10 19L10 20L11 20L11 18L14 18L14 19L12 19L12 21L14 21L14 22L17 22L17 21L15 21L15 20L18 20L18 19L17 19L17 18L19 18L19 20L21 20L21 19L22 19L22 18L21 18L21 17L20 17L20 16L21 16L21 14L22 14L22 17L23 17L23 18L24 18L24 19L25 19L25 21L26 21L26 20L27 20L27 19L25 19L25 18L24 18L24 17L26 17L26 16L27 16L27 15L26 15L26 13L25 13L25 12L24 12L24 9L23 9L23 12L22 12L22 13L20 13L20 12L21 12L21 11L22 11L22 10L21 10L21 9L20 9L20 10L18 10L18 11L17 11L17 10L16 10L16 9L17 9L17 8L18 8L18 6ZM20 6L20 7L21 7L21 6ZM0 8L0 12L1 12L1 13L0 13L0 14L1 14L1 13L2 13L2 11L1 11L1 9L2 9L2 10L5 10L5 8ZM27 8L27 9L28 9L28 10L29 10L29 9L28 9L28 8ZM6 11L6 12L7 12L7 11ZM16 11L16 12L15 12L15 13L14 13L14 12L13 12L13 13L12 13L12 14L14 14L14 17L18 17L18 16L16 16L16 14L15 14L15 13L16 13L16 12L17 12L17 13L18 13L18 12L17 12L17 11ZM23 12L23 13L22 13L22 14L23 14L23 13L24 13L24 14L25 14L25 13L24 13L24 12ZM19 13L19 14L18 14L18 15L19 15L19 14L20 14L20 13ZM28 13L28 14L29 14L29 13ZM12 15L12 17L13 17L13 15ZM23 15L23 16L24 16L24 15ZM9 17L9 18L11 18L11 17ZM19 17L19 18L20 18L20 17ZM28 17L28 18L29 18L29 17ZM15 18L15 19L16 19L16 18ZM5 20L5 21L7 21L7 20ZM18 21L18 23L17 23L17 24L18 24L18 25L19 25L19 27L20 27L20 23L19 23L19 21ZM21 21L21 24L24 24L24 21ZM22 22L22 23L23 23L23 22ZM14 23L14 24L15 24L15 23ZM22 25L22 26L21 26L21 27L22 27L22 26L23 26L23 25ZM10 26L10 27L9 27L9 28L11 28L11 26ZM15 26L15 27L14 27L14 28L15 28L15 29L16 29L16 28L17 28L17 29L18 29L18 28L17 28L17 27L16 27L16 26ZM0 0L7 0L7 7L0 7ZM1 1L1 6L6 6L6 1ZM5 3.5A1.5 1.5 0 0 1 3.5 5A1.5 1.5 0 0 1 2 3.5A1.5 1.5 0 0 1 3.5 2A1.5 1.5 0 0 1 5 3.5ZM22 0L29 0L29 7L22 7ZM23 1L23 6L28 6L28 1ZM27 3.5A1.5 1.5 0 0 1 25.5 5A1.5 1.5 0 0 1 24 3.5A1.5 1.5 0 0 1 25.5 2A1.5 1.5 0 0 1 27 3.5ZM0 22L7 22L7 29L0 29ZM1 23L1 28L6 28L6 23ZM5 25.5A1.5 1.5 0 0 1 3.5 27A1.5 1.5 0 0 1 2 25.5A1.5 1.5 0 0 1 3.5 24A1.5 1.5 0 0 1 5 25.5Z" fill="#000000"/></g></g></svg>
