<?xml version="1.0" encoding="UTF-8"?>
<svg xmlns="http://www.w3.org/2000/svg" version="1.1" width="130" height="130" viewBox="0 0 130 130"><rect x="0" y="0" width="130" height="130" fill="#ffffff"/><g transform="scale(4.483)"><g transform="translate(0,0)"><path fill-rule="evenodd" d="M9 0L9 3L8 3L8 5L9 5L9 6L8 6L8 7L9 7L9 9L8 9L8 8L5 8L5 10L3 10L3 9L2 9L2 8L0 8L0 12L1 12L1 11L2 11L2 10L3 10L3 12L4 12L4 14L2 14L2 13L1 13L1 14L0 14L0 21L1 21L1 19L3 19L3 20L4 20L4 21L5 21L5 20L6 20L6 21L8 21L8 24L9 24L9 27L8 27L8 29L9 29L9 27L10 27L10 28L11 28L11 26L12 26L12 24L13 24L13 21L14 21L14 23L15 23L15 24L14 24L14 25L13 25L13 27L12 27L12 28L13 28L13 29L15 29L15 28L13 28L13 27L16 27L16 28L17 28L17 29L18 29L18 28L17 28L17 27L19 27L19 28L20 28L20 27L21 27L21 25L23 25L23 26L22 26L22 28L23 28L23 26L24 26L24 27L26 27L26 28L24 28L24 29L27 29L27 27L28 27L28 28L29 28L29 27L28 27L28 26L29 26L29 23L27 23L27 22L26 22L26 21L29 21L29 20L26 20L26 21L25 21L25 19L22 19L22 20L19 20L19 19L21 19L21 18L20 18L20 17L22 17L22 18L23 18L23 17L22 17L22 16L24 16L24 15L22 15L22 14L23 14L23 10L22 10L22 12L21 12L21 15L20 15L20 17L18 17L18 16L16 16L16 15L18 15L18 14L20 14L20 12L19 12L19 10L21 10L21 8L20 8L20 9L19 9L19 10L16 10L16 9L15 9L15 8L17 8L17 9L18 9L18 8L19 8L19 5L20 5L20 4L21 4L21 1L20 1L20 2L19 2L19 0L17 0L17 1L18 1L18 2L19 2L19 5L18 5L18 8L17 8L17 4L18 4L18 3L17 3L17 2L14 2L14 3L13 3L13 4L11 4L11 1L10 1L10 0ZM12 0L12 1L13 1L13 0ZM14 0L14 1L15 1L15 0ZM9 3L9 5L11 5L11 7L10 7L10 6L9 6L9 7L10 7L10 8L12 8L12 9L13 9L13 8L14 8L14 6L15 6L15 7L16 7L16 4L15 4L15 3L14 3L14 4L13 4L13 5L11 5L11 4L10 4L10 3ZM13 5L13 6L12 6L12 7L13 7L13 6L14 6L14 5ZM20 6L20 7L21 7L21 6ZM24 8L24 12L25 12L25 9L26 9L26 10L28 10L28 9L26 9L26 8ZM1 9L1 10L2 10L2 9ZM6 9L6 10L5 10L5 12L7 12L7 11L6 11L6 10L7 10L7 9ZM9 9L9 10L8 10L8 13L5 13L5 16L3 16L3 15L2 15L2 14L1 14L1 17L2 17L2 16L3 16L3 18L4 18L4 19L6 19L6 20L8 20L8 19L6 19L6 18L7 18L7 17L6 17L6 16L8 16L8 14L9 14L9 12L10 12L10 11L11 11L11 12L13 12L13 13L12 13L12 14L10 14L10 15L11 15L11 16L12 16L12 15L13 15L13 16L14 16L14 13L15 13L15 12L14 12L14 11L15 11L15 10L13 10L13 11L12 11L12 10L10 10L10 9ZM9 10L9 11L10 11L10 10ZM16 11L16 13L19 13L19 12L18 12L18 11ZM28 12L28 13L26 13L26 17L24 17L24 18L28 18L28 19L29 19L29 17L27 17L27 14L29 14L29 12ZM24 13L24 14L25 14L25 13ZM6 14L6 15L7 15L7 14ZM21 15L21 16L22 16L22 15ZM28 15L28 16L29 16L29 15ZM9 16L9 20L11 20L11 19L10 19L10 16ZM15 16L15 18L14 18L14 17L12 17L12 21L13 21L13 20L14 20L14 19L15 19L15 18L16 18L16 16ZM4 17L4 18L6 18L6 17ZM17 17L17 20L15 20L15 21L16 21L16 22L17 22L17 26L18 26L18 25L19 25L19 27L20 27L20 25L19 25L19 24L20 24L20 23L18 23L18 21L19 21L19 20L18 20L18 17ZM13 18L13 19L14 19L14 18ZM17 20L17 21L18 21L18 20ZM9 21L9 22L10 22L10 21ZM21 21L21 24L24 24L24 21ZM11 22L11 23L9 23L9 24L10 24L10 26L11 26L11 23L12 23L12 22ZM22 22L22 23L23 23L23 22ZM25 23L25 25L24 25L24 26L26 26L26 27L27 27L27 23ZM15 24L15 25L14 25L14 26L15 26L15 25L16 25L16 24ZM0 0L7 0L7 7L0 7ZM1 1L1 6L6 6L6 1ZM5 3.5A1.5 1.5 0 0 1 3.5 5A1.5 1.5 0 0 1 2 3.5A1.5 1.5 0 0 1 3.5 2A1.5 1.5 0 0 1 5 3.5ZM22 0L29 0L29 7L22 7ZM23 1L23 6L28 6L28 1ZM27 3.5A1.5 1.5 0 0 1 25.5 5A1.5 1.5 0 0 1 24 3.5A1.5 1.5 0 0 1 25.5 2A1.5 1.5 0 0 1 27 3.5ZM0 22L7 22L7 29L0 29ZM1 23L1 28L6 28L6 23ZM5 25.5A1.5 1.5 0 0 1 3.5 27A1.5 1.5 0 0 1 2 25.5A1.5 1.5 0 0 1 3.5 24A1.5 1.5 0 0 1 5 25.5Z" fill="#000000"/></g></g></svg>
