<?xml version="1.0" encoding="UTF-8"?>
<svg xmlns="http://www.w3.org/2000/svg" version="1.1" width="180" height="180" viewBox="0 0 180 180"><rect x="0" y="0" width="180" height="180" fill="#ffffff"/><g transform="scale(5.455)"><g transform="translate(0,0)"><path fill-rule="evenodd" d="M9 0L9 1L8 1L8 2L9 2L9 3L8 3L8 4L10 4L10 7L11 7L11 4L12 4L12 5L13 5L13 6L12 6L12 9L13 9L13 8L14 8L14 9L15 9L15 8L16 8L16 9L17 9L17 11L16 11L16 10L15 10L15 11L14 11L14 12L15 12L15 13L12 13L12 11L13 11L13 10L11 10L11 11L10 11L10 9L11 9L11 8L6 8L6 9L7 9L7 10L4 10L4 11L9 11L9 13L8 13L8 12L6 12L6 13L5 13L5 12L4 12L4 13L3 13L3 14L4 14L4 15L7 15L7 16L4 16L4 17L7 17L7 18L4 18L4 19L5 19L5 20L6 20L6 21L4 21L4 20L3 20L3 19L1 19L1 18L0 18L0 20L1 20L1 21L0 21L0 25L1 25L1 21L2 21L2 22L6 22L6 23L7 23L7 22L6 22L6 21L7 21L7 20L6 20L6 19L7 19L7 18L8 18L8 21L9 21L9 22L10 22L10 23L11 23L11 21L12 21L12 22L13 22L13 23L12 23L12 25L13 25L13 24L14 24L14 25L15 25L15 24L14 24L14 23L16 23L16 24L17 24L17 25L18 25L18 26L20 26L20 27L19 27L19 28L15 28L15 27L16 27L16 26L15 26L15 27L14 27L14 28L15 28L15 29L12 29L12 27L13 27L13 26L11 26L11 24L10 24L10 25L9 25L9 24L8 24L8 27L9 27L9 28L8 28L8 33L9 33L9 32L10 32L10 31L9 31L9 30L10 30L10 29L12 29L12 30L13 30L13 31L12 31L12 33L13 33L13 32L14 32L14 33L18 33L18 32L16 32L16 31L18 31L18 30L20 30L20 31L19 31L19 33L20 33L20 32L22 32L22 33L26 33L26 32L28 32L28 33L29 33L29 32L31 32L31 33L32 33L32 32L31 32L31 30L33 30L33 28L31 28L31 27L32 27L32 26L33 26L33 24L32 24L32 26L30 26L30 25L29 25L29 24L31 24L31 23L32 23L32 22L33 22L33 21L32 21L32 20L31 20L31 19L32 19L32 18L33 18L33 17L32 17L32 16L31 16L31 15L32 15L32 14L33 14L33 13L31 13L31 15L30 15L30 16L31 16L31 19L30 19L30 17L29 17L29 16L28 16L28 15L25 15L25 14L27 14L27 13L30 13L30 12L31 12L31 11L32 11L32 10L33 10L33 9L32 9L32 8L31 8L31 9L30 9L30 8L29 8L29 9L30 9L30 10L29 10L29 11L28 11L28 10L27 10L27 9L28 9L28 8L27 8L27 9L26 9L26 8L25 8L25 6L24 6L24 7L23 7L23 5L24 5L24 4L25 4L25 3L24 3L24 2L21 2L21 1L24 1L24 0L21 0L21 1L20 1L20 0L17 0L17 1L15 1L15 0L14 0L14 1L15 1L15 2L14 2L14 3L15 3L15 4L18 4L18 5L14 5L14 4L12 4L12 2L13 2L13 1L11 1L11 2L10 2L10 0ZM18 1L18 2L17 2L17 3L18 3L18 4L21 4L21 7L22 7L22 8L21 8L21 9L22 9L22 8L23 8L23 9L24 9L24 10L23 10L23 11L22 11L22 12L19 12L19 11L20 11L20 10L18 10L18 11L17 11L17 12L16 12L16 13L15 13L15 14L16 14L16 13L17 13L17 12L18 12L18 13L22 13L22 12L24 12L24 11L25 11L25 10L26 10L26 13L27 13L27 12L28 12L28 11L27 11L27 10L26 10L26 9L24 9L24 8L23 8L23 7L22 7L22 5L23 5L23 3L21 3L21 2L20 2L20 1ZM18 2L18 3L19 3L19 2ZM10 3L10 4L11 4L11 3ZM8 5L8 7L9 7L9 5ZM19 5L19 7L18 7L18 6L17 6L17 8L18 8L18 9L20 9L20 5ZM13 6L13 7L14 7L14 8L15 8L15 7L16 7L16 6L15 6L15 7L14 7L14 6ZM0 8L0 9L5 9L5 8ZM8 9L8 10L9 10L9 9ZM0 10L0 11L1 11L1 10ZM30 10L30 11L29 11L29 12L30 12L30 11L31 11L31 10ZM0 12L0 15L1 15L1 17L2 17L2 18L3 18L3 17L2 17L2 12ZM10 12L10 13L9 13L9 14L8 14L8 13L6 13L6 14L7 14L7 15L8 15L8 16L9 16L9 14L10 14L10 13L11 13L11 15L10 15L10 17L11 17L11 18L13 18L13 19L12 19L12 21L15 21L15 22L18 22L18 23L17 23L17 24L18 24L18 25L22 25L22 24L23 24L23 25L24 25L24 24L25 24L25 23L24 23L24 22L26 22L26 21L27 21L27 24L29 24L29 21L30 21L30 23L31 23L31 20L30 20L30 19L28 19L28 20L26 20L26 19L25 19L25 18L26 18L26 17L27 17L27 18L29 18L29 17L27 17L27 16L26 16L26 17L24 17L24 18L23 18L23 17L22 17L22 16L25 16L25 15L24 15L24 14L25 14L25 13L24 13L24 14L21 14L21 15L20 15L20 14L17 14L17 15L16 15L16 16L15 16L15 15L14 15L14 16L13 16L13 17L12 17L12 15L13 15L13 14L12 14L12 13L11 13L11 12ZM4 13L4 14L5 14L5 13ZM21 15L21 16L22 16L22 15ZM14 16L14 17L15 17L15 16ZM17 16L17 17L16 17L16 18L15 18L15 19L14 19L14 20L15 20L15 19L16 19L16 21L18 21L18 20L20 20L20 21L19 21L19 22L20 22L20 23L21 23L21 24L22 24L22 23L21 23L21 22L22 22L22 21L23 21L23 22L24 22L24 21L26 21L26 20L25 20L25 19L24 19L24 21L23 21L23 19L22 19L22 18L21 18L21 17L19 17L19 16ZM8 17L8 18L9 18L9 21L10 21L10 20L11 20L11 19L10 19L10 18L9 18L9 17ZM18 18L18 19L17 19L17 20L18 20L18 19L20 19L20 20L21 20L21 21L22 21L22 20L21 20L21 18ZM28 20L28 21L29 21L29 20ZM3 23L3 24L2 24L2 25L7 25L7 24L4 24L4 23ZM18 23L18 24L19 24L19 23ZM25 25L25 28L28 28L28 25ZM9 26L9 27L10 27L10 28L9 28L9 29L10 29L10 28L11 28L11 27L10 27L10 26ZM26 26L26 27L27 27L27 26ZM20 27L20 28L19 28L19 29L20 29L20 28L21 28L21 29L22 29L22 28L21 28L21 27ZM23 28L23 29L24 29L24 28ZM29 28L29 30L27 30L27 29L26 29L26 30L25 30L25 31L22 31L22 32L25 32L25 31L26 31L26 30L27 30L27 31L29 31L29 30L31 30L31 28ZM15 29L15 30L16 30L16 29ZM14 31L14 32L15 32L15 31ZM0 0L7 0L7 7L0 7ZM1 1L1 6L6 6L6 1ZM5 3.5A1.5 1.5 0 0 1 3.5 5A1.5 1.5 0 0 1 2 3.5A1.5 1.5 0 0 1 3.5 2A1.5 1.5 0 0 1 5 3.5ZM26 0L33 0L33 7L26 7ZM27 1L27 6L32 6L32 1ZM31 3.5A1.5 1.5 0 0 1 29.5 5A1.5 1.5 0 0 1 28 3.5A1.5 1.5 0 0 1 29.5 2A1.5 1.5 0 0 1 31 3.5ZM0 26L7 26L7 33L0 33ZM1 27L1 32L6 32L6 27ZM5 29.5A1.5 1.5 0 0 1 3.5 31A1.5 1.5 0 0 1 2 29.5A1.5 1.5 0 0 1 3.5 28A1.5 1.5 0 0 1 5 29.5Z" fill="#000000"/></g></g></svg>
