<?xml version="1.0" encoding="UTF-8"?>
<svg xmlns="http://www.w3.org/2000/svg" version="1.1" width="180" height="180" viewBox="0 0 180 180"><rect x="0" y="0" width="180" height="180" fill="#ffffff"/><g transform="scale(5.455)"><g transform="translate(0,0)"><path fill-rule="evenodd" d="M9 0L9 1L8 1L8 2L9 2L9 3L8 3L8 4L10 4L10 7L11 7L11 4L12 4L12 7L13 7L13 6L14 6L14 7L15 7L15 6L16 6L16 8L17 8L17 9L16 9L16 10L15 10L15 11L14 11L14 12L13 12L13 13L12 13L12 12L11 12L11 11L10 11L10 9L11 9L11 10L14 10L14 9L15 9L15 8L13 8L13 9L11 9L11 8L6 8L6 9L5 9L5 8L0 8L0 10L1 10L1 9L4 9L4 11L3 11L3 10L2 10L2 11L1 11L1 12L0 12L0 14L1 14L1 15L0 15L0 17L1 17L1 19L0 19L0 20L1 20L1 21L0 21L0 25L1 25L1 21L2 21L2 20L3 20L3 21L8 21L8 20L6 20L6 19L7 19L7 18L8 18L8 19L9 19L9 18L8 18L8 16L9 16L9 17L10 17L10 16L11 16L11 14L12 14L12 15L13 15L13 13L16 13L16 14L14 14L14 15L15 15L15 16L14 16L14 18L13 18L13 19L14 19L14 20L13 20L13 22L12 22L12 21L11 21L11 22L10 22L10 23L9 23L9 22L3 22L3 23L2 23L2 25L5 25L5 24L6 24L6 25L8 25L8 27L9 27L9 28L8 28L8 33L11 33L11 32L12 32L12 33L16 33L16 32L17 32L17 33L18 33L18 32L17 32L17 31L16 31L16 30L18 30L18 31L19 31L19 30L20 30L20 31L21 31L21 32L22 32L22 33L23 33L23 32L24 32L24 33L25 33L25 32L24 32L24 31L27 31L27 32L28 32L28 33L29 33L29 31L30 31L30 32L31 32L31 33L32 33L32 32L31 32L31 31L32 31L32 30L31 30L31 29L30 29L30 28L31 28L31 27L32 27L32 29L33 29L33 27L32 27L32 26L33 26L33 24L32 24L32 26L31 26L31 25L30 25L30 24L31 24L31 23L32 23L32 22L33 22L33 21L32 21L32 20L31 20L31 19L32 19L32 18L33 18L33 17L32 17L32 16L31 16L31 15L32 15L32 14L33 14L33 13L31 13L31 15L30 15L30 13L29 13L29 10L28 10L28 8L27 8L27 9L26 9L26 8L25 8L25 6L24 6L24 8L25 8L25 10L27 10L27 11L28 11L28 12L27 12L27 13L25 13L25 12L26 12L26 11L25 11L25 12L24 12L24 11L21 11L21 10L24 10L24 9L23 9L23 5L24 5L24 4L23 4L23 3L25 3L25 1L24 1L24 2L23 2L23 3L22 3L22 2L21 2L21 1L23 1L23 0L19 0L19 1L15 1L15 0L14 0L14 1L15 1L15 2L14 2L14 3L12 3L12 2L13 2L13 1L11 1L11 2L10 2L10 0ZM19 1L19 3L18 3L18 2L17 2L17 3L18 3L18 4L22 4L22 5L23 5L23 4L22 4L22 3L21 3L21 2L20 2L20 1ZM10 3L10 4L11 4L11 3ZM14 3L14 4L13 4L13 5L17 5L17 8L18 8L18 9L19 9L19 7L20 7L20 6L21 6L21 7L22 7L22 6L21 6L21 5L19 5L19 7L18 7L18 5L17 5L17 4L16 4L16 3ZM8 5L8 7L9 7L9 5ZM20 8L20 9L22 9L22 8ZM29 8L29 9L30 9L30 8ZM31 8L31 10L33 10L33 9L32 9L32 8ZM6 9L6 10L5 10L5 11L4 11L4 12L1 12L1 14L3 14L3 15L4 15L4 17L5 17L5 18L3 18L3 19L5 19L5 18L7 18L7 17L5 17L5 15L6 15L6 16L7 16L7 15L6 15L6 14L7 14L7 13L6 13L6 12L7 12L7 11L9 11L9 9ZM6 10L6 11L5 11L5 12L4 12L4 13L5 13L5 14L6 14L6 13L5 13L5 12L6 12L6 11L7 11L7 10ZM16 10L16 11L17 11L17 12L19 12L19 11L20 11L20 10L18 10L18 11L17 11L17 10ZM30 11L30 12L31 12L31 11ZM8 12L8 13L9 13L9 14L10 14L10 13L11 13L11 12L10 12L10 13L9 13L9 12ZM20 12L20 13L22 13L22 14L23 14L23 15L24 15L24 14L23 14L23 13L22 13L22 12ZM18 13L18 14L17 14L17 16L16 16L16 17L15 17L15 18L14 18L14 19L15 19L15 21L14 21L14 22L16 22L16 21L17 21L17 22L19 22L19 26L18 26L18 25L17 25L17 26L18 26L18 27L14 27L14 26L16 26L16 25L14 25L14 26L13 26L13 24L14 24L14 23L12 23L12 22L11 22L11 25L10 25L10 26L11 26L11 27L10 27L10 28L9 28L9 29L11 29L11 28L12 28L12 27L13 27L13 28L18 28L18 29L21 29L21 31L22 31L22 29L23 29L23 31L24 31L24 27L23 27L23 26L24 26L24 25L22 25L22 24L23 24L23 23L24 23L24 24L27 24L27 22L25 22L25 21L27 21L27 20L28 20L28 19L26 19L26 18L25 18L25 17L28 17L28 18L29 18L29 17L30 17L30 19L29 19L29 20L30 20L30 21L28 21L28 24L30 24L30 23L29 23L29 22L30 22L30 21L31 21L31 20L30 20L30 19L31 19L31 16L30 16L30 15L29 15L29 13L28 13L28 16L26 16L26 14L25 14L25 16L23 16L23 17L24 17L24 18L21 18L21 19L20 19L20 18L19 18L19 17L17 17L17 16L20 16L20 17L22 17L22 16L20 16L20 15L21 15L21 14L19 14L19 13ZM9 15L9 16L10 16L10 15ZM12 16L12 17L11 17L11 18L12 18L12 17L13 17L13 16ZM28 16L28 17L29 17L29 16ZM16 17L16 18L15 18L15 19L16 19L16 18L17 18L17 17ZM18 18L18 19L19 19L19 18ZM21 19L21 20L22 20L22 21L19 21L19 20L17 20L17 21L19 21L19 22L22 22L22 23L20 23L20 26L21 26L21 27L20 27L20 28L23 28L23 27L22 27L22 25L21 25L21 24L22 24L22 23L23 23L23 22L24 22L24 21L23 21L23 20L22 20L22 19ZM24 19L24 20L25 20L25 19ZM9 20L9 21L10 21L10 20ZM3 23L3 24L5 24L5 23ZM6 23L6 24L8 24L8 25L9 25L9 23ZM17 23L17 24L18 24L18 23ZM11 25L11 26L12 26L12 25ZM25 25L25 28L28 28L28 25ZM29 25L29 28L30 28L30 27L31 27L31 26L30 26L30 25ZM26 26L26 27L27 27L27 26ZM18 27L18 28L19 28L19 27ZM12 29L12 30L9 30L9 32L11 32L11 31L13 31L13 32L14 32L14 31L15 31L15 29L14 29L14 30L13 30L13 29ZM25 29L25 30L28 30L28 31L29 31L29 30L28 30L28 29ZM30 30L30 31L31 31L31 30ZM19 32L19 33L20 33L20 32ZM0 0L7 0L7 7L0 7ZM1 1L1 6L6 6L6 1ZM5 3.5A1.5 1.5 0 0 1 3.5 5A1.5 1.5 0 0 1 2 3.5A1.5 1.5 0 0 1 3.5 2A1.5 1.5 0 0 1 5 3.5ZM26 0L33 0L33 7L26 7ZM27 1L27 6L32 6L32 1ZM31 3.5A1.5 1.5 0 0 1 29.5 5A1.5 1.5 0 0 1 28 3.5A1.5 1.5 0 0 1 29.5 2A1.5 1.5 0 0 1 31 3.5ZM0 26L7 26L7 33L0 33ZM1 27L1 32L6 32L6 27ZM5 29.5A1.5 1.5 0 0 1 3.5 31A1.5 1.5 0 0 1 2 29.5A1.5 1.5 0 0 1 3.5 28A1.5 1.5 0 0 1 5 29.5Z" fill="#000000"/></g></g></svg>
